<svg width="54" height="54" viewBox="0 0 54 54" fill="none" xmlns="http://www.w3.org/2000/svg">
<path d="M48.8834 51.652H20.3769C18.8545 51.652 17.6084 50.427 17.6084 48.9156V5.08415C17.6084 3.57216 18.8472 2.34766 20.3769 2.34766H48.8834C50.4131 2.34766 51.6519 3.57216 51.6519 5.08415V48.9156C51.6519 50.4276 50.4131 51.652 48.8834 51.652Z" stroke="#5AC8FF"/>
<path d="M48.4029 51.652H20.8574C19.0656 51.652 17.6084 50.1961 17.6084 48.4058V5.59386C17.6084 3.80358 19.0656 2.34766 20.8574 2.34766H48.4029C50.1947 2.34766 51.6519 3.80358 51.6519 5.59386V48.4058C51.6519 50.1961 50.1947 51.652 48.4029 51.652ZM20.8574 2.72403C19.2748 2.72403 17.9851 4.01266 17.9851 5.59386V48.4058C17.9851 49.9871 19.2748 51.2757 20.8574 51.2757H48.4029C49.9854 51.2757 51.2751 49.9871 51.2751 48.4058V5.59386C51.2751 4.01266 49.9854 2.72403 48.4029 2.72403H20.8574Z" fill="#5AC8FF" stroke="#5AC8FF"/>
<path d="M50.4671 45.7824H18.7932C18.1425 45.7824 17.6084 45.2601 17.6084 44.6238V10.5498C17.6084 9.91341 18.1425 9.39111 18.7932 9.39111H50.4671C51.1178 9.39111 51.6519 9.91341 51.6519 10.5498V44.6238C51.6519 45.2601 51.1178 45.7824 50.4671 45.7824Z" stroke="#5AC8FF"/>
<path d="M49.9332 45.7825H19.327C18.377 45.7825 17.6084 45.0044 17.6084 44.0425V9.95729C17.6084 8.99533 18.377 8.21729 19.327 8.21729H49.9332C50.8833 8.21729 51.6519 8.99533 51.6519 9.95729V44.0425C51.6519 44.9976 50.8825 45.7825 49.9332 45.7825ZM19.327 8.59862C18.5862 8.59862 17.9851 9.20719 17.9851 9.95729V44.0425C17.9851 44.7926 18.5862 45.4012 19.327 45.4012H49.9332C50.6741 45.4012 51.2751 44.7926 51.2751 44.0425V9.95729C51.2751 9.20719 50.6741 8.59862 49.9332 8.59862H19.327Z" fill="#5AC8FF" stroke="#5AC8FF"/>
<path d="M38.5461 5.86963H30.7142C30.6111 5.86963 30.5215 5.86963 30.5215 5.86963C30.5215 5.86963 30.6111 5.86963 30.7142 5.86963H38.5461C38.6492 5.86963 38.7389 5.86963 38.7389 5.86963C38.7389 5.86963 38.6536 5.86963 38.5461 5.86963Z" fill="#5AC8FF"/>
<path d="M38.5461 5.86963H30.7142C30.6111 5.86963 30.5215 5.86963 30.5215 5.86963C30.5215 5.86963 30.6111 5.86963 30.7142 5.86963H38.5461C38.6492 5.86963 38.7389 5.86963 38.7389 5.86963C38.7389 5.86963 38.6536 5.86963 38.5461 5.86963Z" stroke="#5AC8FF"/>
<path d="M36.1979 49.3043H33.0621C32.9588 49.3043 32.8691 49.0313 32.8691 48.7173C32.8691 48.4033 32.9588 48.1304 33.0621 48.1304H36.1979C36.3012 48.1304 36.3909 48.4033 36.3909 48.7173C36.3909 49.0419 36.3056 49.3043 36.1979 49.3043Z" fill="#5AC8FF" stroke="#5AC8FF"/>
<path d="M44.4157 49.3043H41.2799C41.1767 49.3043 41.0869 49.0313 41.0869 48.7173C41.0869 48.4033 41.1767 48.1304 41.2799 48.1304H44.4157C44.519 48.1304 44.6087 48.4033 44.6087 48.7173C44.6087 49.0313 44.519 49.3043 44.4157 49.3043Z" fill="#5AC8FF" stroke="#5AC8FF"/>
<path d="M29.155 49.3043H26.0192C25.9159 49.3043 25.8262 49.0313 25.8262 48.7173C25.8262 48.4033 25.9159 48.1304 26.0192 48.1304H29.155C29.2582 48.1304 29.3479 48.4033 29.3479 48.7173C29.3479 49.0419 29.2627 49.3043 29.155 49.3043Z" fill="#5AC8FF" stroke="#5AC8FF"/>
<path d="M42.2608 5.28282C42.2608 5.60422 41.9954 5.86971 41.6739 5.86971C41.3524 5.86971 41.0869 5.60422 41.0869 5.28282C41.0869 4.96129 41.3524 4.6958 41.6739 4.6958C42.0072 4.6958 42.2608 4.94949 42.2608 5.28282Z" fill="#5AC8FF" stroke="#5AC8FF"/>
<path d="M5.41875 17.6087H3.97222C3.07412 17.6087 2.34766 16.8822 2.34766 15.9841V14.5376C2.34766 13.6396 3.07412 12.9131 3.97222 12.9131H5.41875C6.31681 12.9131 7.04331 13.6396 7.04331 14.5376V15.9841C7.04331 16.8759 6.31601 17.6087 5.41875 17.6087ZM3.97222 13.2692C3.27191 13.2692 2.70372 13.8373 2.70372 14.5376V15.9841C2.70372 16.6844 3.27191 17.2526 3.97222 17.2526H5.41875C6.11908 17.2526 6.6872 16.6844 6.6872 15.9841V14.5376C6.6872 13.8373 6.11908 13.2692 5.41875 13.2692H3.97222Z" fill="#5AC8FF" stroke="#5AC8FF"/>
<path d="M5.41875 34.0434H3.97222C3.07412 34.0434 2.34766 33.1354 2.34766 32.0127V30.2045C2.34766 29.0819 3.07412 28.1738 3.97222 28.1738H5.41875C6.31681 28.1738 7.04331 29.0819 7.04331 30.2045V32.0127C7.04331 33.1273 6.31601 34.0434 5.41875 34.0434ZM3.97222 28.6189C3.27191 28.6189 2.70372 29.3291 2.70372 30.2045V32.0127C2.70372 32.8881 3.27191 33.5984 3.97222 33.5984H5.41875C6.11908 33.5984 6.6872 32.8881 6.6872 32.0127V30.2045C6.6872 29.3291 6.11908 28.6189 5.41875 28.6189H3.97222Z" fill="#5AC8FF" stroke="#5AC8FF"/>
<path d="M5.41875 41.0868H3.97222C3.07412 41.0868 2.34766 40.3603 2.34766 39.4622V38.0157C2.34766 37.1175 3.07412 36.3911 3.97222 36.3911H5.41875C6.31681 36.3911 7.04331 37.1175 7.04331 38.0157V39.4622C7.04331 40.3603 6.31681 41.0868 5.41875 41.0868ZM3.97222 36.7471C3.27191 36.7471 2.70372 37.3153 2.70372 38.0157V39.4622C2.70372 40.1625 3.27191 40.7307 3.97222 40.7307H5.41875C6.11908 40.7307 6.6872 40.1625 6.6872 39.4622V38.0157C6.6872 37.3153 6.11908 36.7471 5.41875 36.7471H3.97222Z" fill="#5AC8FF" stroke="#5AC8FF"/>
<path d="M11.3459 14.0869H45.7853C46.4363 14.0869 46.9564 14.5995 46.9564 15.2413V39.9324C46.9564 40.5665 46.4285 41.0869 45.7853 41.0869H11.3459C10.7027 41.0869 10.1748 40.5665 10.1748 39.9324V27.5869C10.1748 26.5234 9.29377 25.6549 8.21501 25.6549H3.51872C2.87553 25.6549 2.34766 25.1346 2.34766 24.5005V22.9573C2.34766 22.3232 2.87553 21.8028 3.51872 21.8028H8.21501C9.29377 21.8028 10.1748 20.9343 10.1748 19.8709V15.2413C10.1748 14.6072 10.7027 14.0869 11.3459 14.0869Z" stroke="#5AC8FF"/>
<path d="M45.2433 41.087H11.6871C10.7401 41.087 9.97407 40.3116 9.97407 39.3529V27.0001C9.97407 26.2525 9.37494 25.646 8.63656 25.646H4.06067C3.11367 25.646 2.34766 24.8706 2.34766 23.9118V22.3678C2.34766 21.4091 3.11367 20.6336 4.06067 20.6336H8.63656C9.37494 20.6336 9.97407 20.0271 9.97407 19.2795V14.6472C9.97407 13.6886 10.7401 12.9131 11.6871 12.9131H45.2433C46.1903 12.9131 46.9564 13.6886 46.9564 14.6472V39.3529C46.9564 40.3048 46.1894 41.087 45.2433 41.087ZM4.06067 21.0137C3.32223 21.0137 2.72311 21.6202 2.72311 22.3678V23.9118C2.72311 24.6594 3.32223 25.2659 4.06067 25.2659H8.63656C9.58351 25.2659 10.3496 26.0414 10.3496 27.0001V39.3529C10.3496 40.1004 10.9486 40.707 11.6871 40.707H45.2433C45.9817 40.707 46.5809 40.1004 46.5809 39.3529V14.6472C46.5809 13.8997 45.9817 13.2932 45.2433 13.2932H11.6871C10.9486 13.2932 10.3496 13.8997 10.3496 14.6472V19.2795C10.3496 20.2383 9.58351 21.0137 8.63656 21.0137H4.06067Z" fill="#5AC8FF" stroke="#5AC8FF"/>
<path d="M26.004 37.5654H26.1805H26.2847C26.3457 37.5654 26.4633 37.5654 26.6107 37.5654C26.8192 37.5654 27.0001 37.5654 27.0001 37.5654C27.0001 37.5654 26.828 37.5654 26.6107 37.5654H26.2154C26.0071 37.5654 25.8262 37.5654 25.8262 37.5654C25.8262 37.5654 25.9006 37.5654 26.004 37.5654Z" fill="#5AC8FF" stroke="#5AC8FF"/>
<path d="M18.9198 37.5654H18.9199C18.9222 37.5654 18.8387 37.5654 18.732 37.5654H18.3186C18.2139 37.5654 18.1229 37.5654 18.1229 37.5654C18.1229 37.5654 18.2139 37.5654 18.3186 37.5654H18.7241C18.8288 37.5654 18.9198 37.5654 18.9198 37.5654ZM16.0577 37.5654H16.0577C16.0601 37.5654 15.9766 37.5654 15.8699 37.5654H15.4565C15.3517 37.5654 15.2607 37.5654 15.2607 37.5654C15.2607 37.5654 15.3517 37.5654 15.4565 37.5654H15.8619C15.9666 37.5654 16.0577 37.5654 16.0577 37.5654ZM24.4564 37.5654H24.0509C23.9461 37.5654 23.8552 37.5654 23.8552 37.5654C23.8552 37.5654 23.9461 37.5654 24.0509 37.5654H24.4564C24.5611 37.5654 24.652 37.5654 24.652 37.5654C24.652 37.5654 24.5656 37.5654 24.4564 37.5654ZM21.5942 37.5654H21.1887C21.084 37.5654 20.9931 37.5654 20.9931 37.5654C20.9931 37.5654 21.084 37.5654 21.1887 37.5654H21.5942C21.699 37.5654 21.7899 37.5654 21.7899 37.5654C21.7899 37.5654 21.7034 37.5654 21.5942 37.5654Z" fill="#5AC8FF"/>
<path d="M18.9198 37.5654H18.9199C18.9222 37.5654 18.8387 37.5654 18.732 37.5654H18.3186C18.2139 37.5654 18.1229 37.5654 18.1229 37.5654C18.1229 37.5654 18.2139 37.5654 18.3186 37.5654H18.7241C18.8288 37.5654 18.9198 37.5654 18.9198 37.5654ZM16.0577 37.5654H16.0577C16.0601 37.5654 15.9766 37.5654 15.8699 37.5654H15.4565C15.3517 37.5654 15.2607 37.5654 15.2607 37.5654C15.2607 37.5654 15.3517 37.5654 15.4565 37.5654H15.8619C15.9666 37.5654 16.0577 37.5654 16.0577 37.5654ZM24.4564 37.5654H24.0509C23.9461 37.5654 23.8552 37.5654 23.8552 37.5654C23.8552 37.5654 23.9461 37.5654 24.0509 37.5654H24.4564C24.5611 37.5654 24.652 37.5654 24.652 37.5654C24.652 37.5654 24.5656 37.5654 24.4564 37.5654ZM21.5942 37.5654H21.1887C21.084 37.5654 20.9931 37.5654 20.9931 37.5654C20.9931 37.5654 21.084 37.5654 21.1887 37.5654H21.5942C21.699 37.5654 21.7899 37.5654 21.7899 37.5654C21.7899 37.5654 21.7034 37.5654 21.5942 37.5654Z" stroke="#5AC8FF"/>
<path d="M12.9131 36.3912C12.9131 36.3912 12.9131 36.2439 12.9131 36.0744V35.534C12.9131 35.3646 12.9131 35.2173 12.9131 35.2173C12.9131 35.2173 12.9131 35.3646 12.9131 35.534V36.0744C12.9131 36.2439 12.9131 36.3912 12.9131 36.3912Z" fill="#5AC8FF" stroke="#5AC8FF"/>
<path d="M12.9131 33.585V33.6823V33.8432C12.9131 33.9817 12.9131 34.0435 12.9131 34.0435C12.9131 34.0435 12.9131 33.8627 12.9131 33.6544V33.259C12.9131 33.0507 12.9131 32.8696 12.9131 32.8696C12.9131 32.8696 12.9131 33.0507 12.9131 33.259C12.9131 33.4064 12.9131 33.524 12.9131 33.585Z" fill="#5AC8FF" stroke="#5AC8FF"/>
<path d="M18.9198 33.4566L18.9199 33.4859C18.9222 33.7713 18.8387 34.0435 18.732 34.0435H18.3186C18.2139 34.0435 18.1229 33.7706 18.1229 33.4566C18.1229 33.1426 18.2139 32.8696 18.3186 32.8696H18.7241C18.8288 32.8696 18.9198 33.1426 18.9198 33.4566ZM16.0577 33.4566L16.0577 33.4859C16.0601 33.7713 15.9766 34.0435 15.8699 34.0435H15.4565C15.3517 34.0435 15.2607 33.7706 15.2607 33.4566C15.2607 33.1426 15.3517 32.8696 15.4565 32.8696H15.8619C15.9666 32.8696 16.0577 33.1426 16.0577 33.4566ZM24.4564 34.0435H24.0509C23.9461 34.0435 23.8552 33.7706 23.8552 33.4566C23.8552 33.1426 23.9461 32.8696 24.0509 32.8696H24.4564C24.5611 32.8696 24.652 33.1423 24.652 33.4566C24.652 33.7812 24.5656 34.0435 24.4564 34.0435ZM21.5942 34.0435H21.1887C21.084 34.0435 20.9931 33.7706 20.9931 33.4566C20.9931 33.1426 21.084 32.8696 21.1887 32.8696H21.5942C21.699 32.8696 21.7899 33.1426 21.7899 33.4566C21.7899 33.7812 21.7034 34.0435 21.5942 34.0435Z" fill="#5AC8FF" stroke="#5AC8FF"/>
<path d="M26.2847 33.8657L26.1805 33.6893L26.004 33.585C25.9006 33.524 25.8262 33.4064 25.8262 33.259C25.8262 33.0507 26.0071 32.8696 26.2154 32.8696H26.6107C26.8192 32.8696 27.0001 33.0507 27.0001 33.259V33.6544C27.0001 33.8695 26.828 34.0435 26.6107 34.0435C26.4633 34.0435 26.3457 33.9691 26.2847 33.8657Z" fill="#5AC8FF" stroke="#5AC8FF"/>
<path d="M27 36.3912C27 36.3912 27 36.2439 27 36.0744V35.534C27 35.3646 27 35.2173 27 35.2173C27 35.2173 27 35.3646 27 35.534V36.0744C27 36.2496 27 36.3912 27 36.3912Z" fill="#5AC8FF" stroke="#5AC8FF"/>
<path d="M19.3619 30.5216C18.9475 30.5216 18.5254 30.4903 18.1267 30.4198C17.8765 30.3806 17.681 30.1849 17.6419 29.9343L17.3136 27.8747C17.3058 27.8747 17.2979 27.8668 17.2901 27.8668L15.6014 29.0964C15.3981 29.2451 15.1166 29.2451 14.9134 29.0964C14.2411 28.6108 13.6469 28.0156 13.17 27.3422C13.0214 27.1386 13.0214 26.8566 13.17 26.653L14.3896 24.9615C14.3896 24.9536 14.3818 24.9458 14.3818 24.938L12.3256 24.6091C12.0754 24.57 11.88 24.3742 11.8409 24.1235C11.7705 23.7163 11.7393 23.2934 11.7393 22.8863C11.7393 22.4712 11.7705 22.0562 11.8409 21.6489C11.88 21.3983 12.0754 21.2026 12.3256 21.1634L14.3818 20.8345C14.3818 20.8267 14.3896 20.8189 14.3896 20.811L13.17 19.1273C13.0214 18.9237 13.0214 18.6496 13.17 18.4382C13.6547 17.7647 14.2411 17.1695 14.9134 16.684C15.1166 16.5352 15.3981 16.5352 15.6014 16.684L17.2901 17.9135C17.2979 17.9135 17.3058 17.9056 17.3136 17.9056L17.6419 15.8461C17.681 15.5954 17.8765 15.3997 18.1267 15.3606C18.9397 15.2275 19.7919 15.2275 20.605 15.3606C20.8551 15.3997 21.0506 15.5954 21.0897 15.8461L21.418 17.9056C21.4258 17.9056 21.4337 17.9135 21.4415 17.9135L23.1302 16.684C23.3335 16.5352 23.6149 16.5352 23.8182 16.684C24.4983 17.1695 25.0847 17.7647 25.5694 18.4382C25.7179 18.6418 25.7179 18.9237 25.5694 19.1273L24.3498 20.811C24.3498 20.8189 24.3576 20.8267 24.3576 20.8345L26.4138 21.1634C26.664 21.2026 26.8594 21.3983 26.8985 21.6489C26.9689 22.064 27.0001 22.4869 27.0001 22.8863C27.0001 23.2934 26.9689 23.7085 26.8985 24.1235C26.8594 24.3742 26.664 24.57 26.4138 24.6091L24.3576 24.938C24.3576 24.9458 24.3498 24.9536 24.3498 24.9615L25.5694 26.653C25.7179 26.8566 25.7179 27.1386 25.5694 27.3422C25.0847 28.0156 24.4983 28.6108 23.8182 29.0964C23.6149 29.2451 23.3335 29.2451 23.1302 29.0964L21.4493 27.8668C21.4415 27.8668 21.4337 27.8747 21.4258 27.8747L21.0975 29.9343C21.0584 30.1849 20.8629 30.3806 20.6128 30.4198C20.1984 30.4824 19.7762 30.5216 19.3619 30.5216ZM18.7286 29.3156C19.143 29.3547 19.573 29.3547 19.9873 29.3156L20.3 27.35C20.3313 27.1307 20.4877 26.9584 20.6909 26.888C20.8786 26.8253 21.0584 26.747 21.2304 26.6608C21.4258 26.559 21.6604 26.5826 21.8402 26.7079L23.4508 27.8747C23.7791 27.6084 24.0762 27.303 24.342 26.9819L23.1771 25.3687C23.052 25.1886 23.0286 24.9536 23.1302 24.7578C23.2162 24.5856 23.2944 24.4055 23.3569 24.2175C23.4273 24.0061 23.6071 23.8573 23.8182 23.826L25.7805 23.5127C25.804 23.3013 25.8118 23.0899 25.8118 22.8784C25.8118 22.6748 25.804 22.4634 25.7805 22.2441L23.8182 21.9308C23.5993 21.8995 23.4273 21.7429 23.3569 21.5393C23.2944 21.3514 23.2162 21.1712 23.1302 20.999C23.0364 20.8032 23.052 20.5682 23.1771 20.396L24.342 18.7828C24.0762 18.4538 23.7791 18.1563 23.4508 17.89L21.8402 19.0568C21.6604 19.1821 21.4337 19.2056 21.2382 19.1117C21.0663 19.0255 20.8864 18.9472 20.6987 18.8846C20.4877 18.8141 20.3392 18.6339 20.3079 18.4225L19.9951 16.4569C19.5729 16.4177 19.1508 16.4177 18.7364 16.4569L18.4238 18.4225C18.3925 18.6418 18.2361 18.8219 18.0328 18.8846C17.8452 18.9472 17.6654 19.0255 17.4933 19.1117C17.2979 19.2056 17.0633 19.1899 16.8914 19.0568L15.2808 17.89C14.9525 18.1563 14.6554 18.4617 14.3896 18.7828L15.5545 20.396C15.6795 20.5761 15.703 20.811 15.6014 21.0068C15.5154 21.179 15.4372 21.3592 15.3747 21.5393C15.3043 21.7508 15.1245 21.8995 14.9134 21.9387L12.9511 22.2519C12.9276 22.4634 12.9198 22.6748 12.9198 22.8863C12.9198 23.0977 12.9276 23.3092 12.9511 23.5206L14.9134 23.8338C15.1323 23.8651 15.3121 24.0217 15.3825 24.2332C15.445 24.4211 15.5154 24.5935 15.6014 24.7657C15.703 24.9615 15.6795 25.1964 15.5545 25.3765L14.3896 26.9898C14.6554 27.3187 14.9525 27.6163 15.2808 27.8825L16.8914 26.7157C17.0712 26.5826 17.3058 26.5669 17.5012 26.6687C17.6732 26.7548 17.853 26.8331 18.0328 26.8958C18.2439 26.9662 18.3925 27.1464 18.4238 27.3578L18.7286 29.3156Z" fill="#5AC8FF"/>
<path d="M19.3619 30.5216C18.9475 30.5216 18.5254 30.4903 18.1267 30.4198C17.8765 30.3806 17.681 30.1849 17.6419 29.9343L17.3136 27.8747C17.3058 27.8747 17.2979 27.8668 17.2901 27.8668L15.6014 29.0964C15.3981 29.2451 15.1166 29.2451 14.9134 29.0964C14.2411 28.6108 13.6469 28.0156 13.17 27.3422C13.0214 27.1386 13.0214 26.8566 13.17 26.653L14.3896 24.9615C14.3896 24.9536 14.3818 24.9458 14.3818 24.938L12.3256 24.6091C12.0754 24.57 11.88 24.3742 11.8409 24.1235C11.7705 23.7163 11.7393 23.2934 11.7393 22.8863C11.7393 22.4712 11.7705 22.0562 11.8409 21.6489C11.88 21.3983 12.0754 21.2026 12.3256 21.1634L14.3818 20.8345C14.3818 20.8267 14.3896 20.8189 14.3896 20.811L13.17 19.1273C13.0214 18.9237 13.0214 18.6496 13.17 18.4382C13.6547 17.7647 14.2411 17.1695 14.9134 16.684C15.1166 16.5352 15.3981 16.5352 15.6014 16.684L17.2901 17.9135C17.2979 17.9135 17.3058 17.9056 17.3136 17.9056L17.6419 15.8461C17.681 15.5954 17.8765 15.3997 18.1267 15.3606C18.9397 15.2275 19.7919 15.2275 20.605 15.3606C20.8551 15.3997 21.0506 15.5954 21.0897 15.8461L21.418 17.9056C21.4258 17.9056 21.4337 17.9135 21.4415 17.9135L23.1302 16.684C23.3335 16.5352 23.6149 16.5352 23.8182 16.684C24.4983 17.1695 25.0847 17.7647 25.5694 18.4382C25.7179 18.6418 25.7179 18.9237 25.5694 19.1273L24.3498 20.811C24.3498 20.8189 24.3576 20.8267 24.3576 20.8345L26.4138 21.1634C26.664 21.2026 26.8594 21.3983 26.8985 21.6489C26.9689 22.064 27.0001 22.4869 27.0001 22.8863C27.0001 23.2934 26.9689 23.7085 26.8985 24.1235C26.8594 24.3742 26.664 24.57 26.4138 24.6091L24.3576 24.938C24.3576 24.9458 24.3498 24.9536 24.3498 24.9615L25.5694 26.653C25.7179 26.8566 25.7179 27.1386 25.5694 27.3422C25.0847 28.0156 24.4983 28.6108 23.8182 29.0964C23.6149 29.2451 23.3335 29.2451 23.1302 29.0964L21.4493 27.8668C21.4415 27.8668 21.4337 27.8747 21.4258 27.8747L21.0975 29.9343C21.0584 30.1849 20.8629 30.3806 20.6128 30.4198C20.1984 30.4824 19.7762 30.5216 19.3619 30.5216ZM18.7286 29.3156C19.143 29.3547 19.573 29.3547 19.9873 29.3156L20.3 27.35C20.3313 27.1307 20.4877 26.9584 20.6909 26.888C20.8786 26.8253 21.0584 26.747 21.2304 26.6608C21.4258 26.559 21.6604 26.5826 21.8402 26.7079L23.4508 27.8747C23.7791 27.6084 24.0762 27.303 24.342 26.9819L23.1771 25.3687C23.052 25.1886 23.0286 24.9536 23.1302 24.7578C23.2162 24.5856 23.2944 24.4055 23.3569 24.2175C23.4273 24.0061 23.6071 23.8573 23.8182 23.826L25.7805 23.5127C25.804 23.3013 25.8118 23.0899 25.8118 22.8784C25.8118 22.6748 25.804 22.4634 25.7805 22.2441L23.8182 21.9308C23.5993 21.8995 23.4273 21.7429 23.3569 21.5393C23.2944 21.3514 23.2162 21.1712 23.1302 20.999C23.0364 20.8032 23.052 20.5682 23.1771 20.396L24.342 18.7828C24.0762 18.4538 23.7791 18.1563 23.4508 17.89L21.8402 19.0568C21.6604 19.1821 21.4337 19.2056 21.2382 19.1117C21.0663 19.0255 20.8864 18.9472 20.6987 18.8846C20.4877 18.8141 20.3392 18.6339 20.3079 18.4225L19.9951 16.4569C19.5729 16.4177 19.1508 16.4177 18.7364 16.4569L18.4238 18.4225C18.3925 18.6418 18.2361 18.8219 18.0328 18.8846C17.8452 18.9472 17.6654 19.0255 17.4933 19.1117C17.2979 19.2056 17.0633 19.1899 16.8914 19.0568L15.2808 17.89C14.9525 18.1563 14.6554 18.4617 14.3896 18.7828L15.5545 20.396C15.6795 20.5761 15.703 20.811 15.6014 21.0068C15.5154 21.179 15.4372 21.3592 15.3747 21.5393C15.3043 21.7508 15.1245 21.8995 14.9134 21.9387L12.9511 22.2519C12.9276 22.4634 12.9198 22.6748 12.9198 22.8863C12.9198 23.0977 12.9276 23.3092 12.9511 23.5206L14.9134 23.8338C15.1323 23.8651 15.3121 24.0217 15.3825 24.2332C15.445 24.4211 15.5154 24.5935 15.6014 24.7657C15.703 24.9615 15.6795 25.1964 15.5545 25.3765L14.3896 26.9898C14.6554 27.3187 14.9525 27.6163 15.2808 27.8825L16.8914 26.7157C17.0712 26.5826 17.3058 26.5669 17.5012 26.6687C17.6732 26.7548 17.853 26.8331 18.0328 26.8958C18.2439 26.9662 18.3925 27.1464 18.4238 27.3578L18.7286 29.3156Z" fill="#5AC8FF"/>
<path d="M19.9562 25.826C18.6638 25.826 17.6084 24.7707 17.6084 23.4782C17.6084 22.1857 18.6638 21.1304 19.9562 21.1304C21.2487 21.1304 22.3041 22.1857 22.3041 23.4782C22.3041 24.7707 21.2487 25.826 19.9562 25.826ZM19.9562 21.5513C18.8976 21.5513 18.0293 22.4196 18.0293 23.4782C18.0293 24.5368 18.8976 25.4051 19.9562 25.4051C21.0149 25.4051 21.8831 24.5368 21.8831 23.4782C21.8831 22.411 21.0234 21.5513 19.9562 21.5513Z" fill="#5AC8FF" stroke="#5AC8FF"/>
<path d="M43.2347 17.6089H40.1132C40.0061 17.6089 39.9131 17.6089 39.9131 17.6089C39.9131 17.6089 40.0061 17.6089 40.1132 17.6089H43.2347C43.3418 17.6089 43.4348 17.6089 43.4348 17.6089C43.4348 17.6089 43.3464 17.6089 43.2347 17.6089Z" fill="#5AC8FF"/>
<path d="M43.2347 17.6089H40.1132C40.0061 17.6089 39.9131 17.6089 39.9131 17.6089C39.9131 17.6089 40.0061 17.6089 40.1132 17.6089H43.2347C43.3418 17.6089 43.4348 17.6089 43.4348 17.6089C43.4348 17.6089 43.3464 17.6089 43.2347 17.6089Z" stroke="#5AC8FF"/>
<path d="M37.4124 17.6089H34.1973C34.1152 17.6089 34.0439 17.6089 34.0439 17.6089C34.0439 17.6089 34.1152 17.6089 34.1973 17.6089H37.4124C37.4944 17.6089 37.5657 17.6089 37.5657 17.6089C37.5657 17.6089 37.4944 17.6089 37.4124 17.6089Z" fill="#5AC8FF"/>
<path d="M37.4124 17.6089H34.1973C34.1152 17.6089 34.0439 17.6089 34.0439 17.6089C34.0439 17.6089 34.1152 17.6089 34.1973 17.6089H37.4124C37.4944 17.6089 37.5657 17.6089 37.5657 17.6089C37.5657 17.6089 37.4944 17.6089 37.4124 17.6089Z" stroke="#5AC8FF"/>
<path d="M31.5017 17.6089H30.7151C30.6115 17.6089 30.5215 17.6089 30.5215 17.6089C30.5215 17.6089 30.6115 17.6089 30.7151 17.6089H31.5017C31.6054 17.6089 31.6954 17.6089 31.6954 17.6089C31.6954 17.6089 31.6099 17.6089 31.5017 17.6089Z" fill="#5AC8FF"/>
<path d="M31.5017 17.6089H30.7151C30.6115 17.6089 30.5215 17.6089 30.5215 17.6089C30.5215 17.6089 30.6115 17.6089 30.7151 17.6089H31.5017C31.6054 17.6089 31.6954 17.6089 31.6954 17.6089C31.6954 17.6089 31.6099 17.6089 31.5017 17.6089Z" stroke="#5AC8FF"/>
<path d="M39.7434 21.1304H34.214C34.123 21.1304 34.0439 21.1304 34.0439 21.1304C34.0439 21.1304 34.123 21.1304 34.214 21.1304H39.7434C39.8345 21.1304 39.9135 21.1304 39.9135 21.1304C39.9135 21.1304 39.8384 21.1304 39.7434 21.1304Z" fill="#5AC8FF"/>
<path d="M39.7434 21.1304H34.214C34.123 21.1304 34.0439 21.1304 34.0439 21.1304C34.0439 21.1304 34.123 21.1304 34.214 21.1304H39.7434C39.8345 21.1304 39.9135 21.1304 39.9135 21.1304C39.9135 21.1304 39.8384 21.1304 39.7434 21.1304Z" stroke="#5AC8FF"/>
<path d="M43.2524 25.8263H38.9217C38.8241 25.8263 38.7393 25.5533 38.7393 25.2393C38.7393 24.9253 38.8241 24.6523 38.9217 24.6523H43.2524C43.3501 24.6523 43.4349 24.9253 43.4349 25.2393C43.4349 25.5639 43.3543 25.8263 43.2524 25.8263Z" fill="#5AC8FF" stroke="#5AC8FF"/>
<path d="M36.2335 25.8263H34.2021C34.1175 25.8263 34.0439 25.5533 34.0439 25.2393C34.0439 24.9253 34.1175 24.6523 34.2021 24.6523H36.2335C36.3182 24.6523 36.3918 24.9253 36.3918 25.2393C36.3918 25.5533 36.3182 25.8263 36.2335 25.8263Z" fill="#5AC8FF" stroke="#5AC8FF"/>
<path d="M31.5017 25.8263H30.7151C30.6115 25.8263 30.5215 25.5533 30.5215 25.2393C30.5215 24.9253 30.6115 24.6523 30.7151 24.6523H31.5017C31.6054 24.6523 31.6954 24.9253 31.6954 25.2393C31.6954 25.5639 31.6099 25.8263 31.5017 25.8263Z" fill="#5AC8FF" stroke="#5AC8FF"/>
<path d="M40.9048 29.3477H34.2265C34.1288 29.3477 34.0439 29.3477 34.0439 29.3477C34.0439 29.3477 34.1288 29.3477 34.2265 29.3477H40.9048C41.0026 29.3477 41.0874 29.3477 41.0874 29.3477C41.0874 29.3477 41.0067 29.3477 40.9048 29.3477Z" fill="#5AC8FF"/>
<path d="M40.9048 29.3477H34.2265C34.1288 29.3477 34.0439 29.3477 34.0439 29.3477C34.0439 29.3477 34.1288 29.3477 34.2265 29.3477H40.9048C41.0026 29.3477 41.0874 29.3477 41.0874 29.3477C41.0874 29.3477 41.0067 29.3477 40.9048 29.3477Z" stroke="#5AC8FF"/>
<path d="M40.9537 32.8696H38.8726C38.8012 32.8696 38.7393 32.8696 38.7393 32.8696C38.7393 32.8696 38.8012 32.8696 38.8726 32.8696H40.9537C41.0251 32.8696 41.0871 32.8696 41.0871 32.8696C41.0871 32.8696 41.0282 32.8696 40.9537 32.8696Z" fill="#5AC8FF"/>
<path d="M40.9537 32.8696H38.8726C38.8012 32.8696 38.7393 32.8696 38.7393 32.8696C38.7393 32.8696 38.8012 32.8696 38.8726 32.8696H40.9537C41.0251 32.8696 41.0871 32.8696 41.0871 32.8696C41.0871 32.8696 41.0282 32.8696 40.9537 32.8696Z" stroke="#5AC8FF"/>
<path d="M36.2335 32.8696H34.2021C34.1175 32.8696 34.0439 32.8696 34.0439 32.8696C34.0439 32.8696 34.1175 32.8696 34.2021 32.8696H36.2335C36.3182 32.8696 36.3918 32.8696 36.3918 32.8696C36.3918 32.8696 36.3182 32.8696 36.2335 32.8696Z" fill="#5AC8FF"/>
<path d="M36.2335 32.8696H34.2021C34.1175 32.8696 34.0439 32.8696 34.0439 32.8696C34.0439 32.8696 34.1175 32.8696 34.2021 32.8696H36.2335C36.3182 32.8696 36.3918 32.8696 36.3918 32.8696C36.3918 32.8696 36.3182 32.8696 36.2335 32.8696Z" stroke="#5AC8FF"/>
<path d="M43.2347 36.3911H40.1132C40.0061 36.3911 39.9131 36.3911 39.9131 36.3911C39.9131 36.3911 40.0061 36.3911 40.1132 36.3911H43.2347C43.3418 36.3911 43.4348 36.3911 43.4348 36.3911C43.4348 36.3911 43.3464 36.3911 43.2347 36.3911Z" fill="#5AC8FF"/>
<path d="M43.2347 36.3911H40.1132C40.0061 36.3911 39.9131 36.3911 39.9131 36.3911C39.9131 36.3911 40.0061 36.3911 40.1132 36.3911H43.2347C43.3418 36.3911 43.4348 36.3911 43.4348 36.3911C43.4348 36.3911 43.3464 36.3911 43.2347 36.3911Z" stroke="#5AC8FF"/>
<path d="M37.4124 36.3911H34.1973C34.1152 36.3911 34.0439 36.3911 34.0439 36.3911C34.0439 36.3911 34.1152 36.3911 34.1973 36.3911H37.4124C37.4944 36.3911 37.5657 36.3911 37.5657 36.3911C37.5657 36.3911 37.4944 36.3911 37.4124 36.3911Z" fill="#5AC8FF"/>
<path d="M37.4124 36.3911H34.1973C34.1152 36.3911 34.0439 36.3911 34.0439 36.3911C34.0439 36.3911 34.1152 36.3911 34.1973 36.3911H37.4124C37.4944 36.3911 37.5657 36.3911 37.5657 36.3911C37.5657 36.3911 37.4944 36.3911 37.4124 36.3911Z" stroke="#5AC8FF"/>
<path d="M31.5017 36.3911H30.7151C30.6115 36.3911 30.5215 36.3911 30.5215 36.3911C30.5215 36.3911 30.6115 36.3911 30.7151 36.3911H31.5017C31.6054 36.3911 31.6954 36.3911 31.6954 36.3911C31.6954 36.3911 31.6099 36.3911 31.5017 36.3911Z" fill="#5AC8FF"/>
<path d="M31.5017 36.3911H30.7151C30.6115 36.3911 30.5215 36.3911 30.5215 36.3911C30.5215 36.3911 30.6115 36.3911 30.7151 36.3911H31.5017C31.6054 36.3911 31.6954 36.3911 31.6954 36.3911C31.6954 36.3911 31.6099 36.3911 31.5017 36.3911Z" stroke="#5AC8FF"/>
</svg>
