<svg xmlns="http://www.w3.org/2000/svg" xmlns:xlink="http://www.w3.org/1999/xlink" width="54" zoomAndPan="magnify" viewBox="0 0 40.5 40.5" height="54" preserveAspectRatio="xMidYMid meet" version="1.0"><defs><clipPath id="e656c940c3"><path d="M 0 0 L 40.007812 0 L 40.007812 40.007812 L 0 40.007812 Z M 0 0 " clip-rule="nonzero"/></clipPath></defs><g clip-path="url(#e656c940c3)"><path fill="#508167" d="M 37.6875 3.660156 L 36.285156 3.660156 L 36.285156 1.707031 C 36.285156 0.792969 35.554688 0 34.578125 0 L 22.992188 0 C 22.078125 0 21.34375 0.730469 21.34375 1.707031 L 21.34375 3.660156 L 2.316406 3.660156 C 1.035156 3.660156 0 4.695312 0 5.976562 L 0 34.03125 C 0 35.308594 1.035156 36.347656 2.316406 36.347656 L 10.976562 36.347656 L 10.976562 39.03125 L 5.367188 39.03125 C 5.0625 39.03125 4.878906 39.214844 4.878906 39.519531 C 4.878906 39.761719 5.0625 40.007812 5.367188 40.007812 L 34.640625 40.007812 C 34.882812 40.007812 35.128906 39.824219 35.128906 39.519531 C 35.128906 39.273438 34.945312 39.03125 34.640625 39.03125 L 28.96875 39.03125 L 28.96875 36.285156 L 37.6875 36.285156 C 38.96875 36.285156 40.007812 35.25 40.007812 33.96875 L 40.007812 5.914062 C 39.945312 4.695312 38.910156 3.660156 37.6875 3.660156 Z M 22.257812 8.234375 L 22.257812 1.707031 C 22.257812 1.28125 22.625 0.914062 23.050781 0.914062 L 34.640625 0.914062 C 35.066406 0.914062 35.433594 1.28125 35.433594 1.707031 L 35.433594 20.0625 C 35.433594 20.492188 35.066406 20.855469 34.640625 20.855469 L 22.992188 20.855469 C 22.5625 20.855469 22.199219 20.492188 22.199219 20.0625 L 22.199219 8.234375 Z M 23.050781 21.648438 L 26.222656 21.648438 L 26.222656 28.054688 L 8.84375 28.054688 L 8.84375 8.234375 L 21.34375 8.234375 L 21.34375 20.003906 C 21.34375 20.917969 22.078125 21.648438 23.050781 21.648438 Z M 0.914062 8.234375 L 4.148438 8.234375 C 4.574219 8.234375 4.941406 8.597656 4.941406 9.027344 L 4.941406 12.195312 L 0.914062 12.195312 Z M 0.914062 13.113281 L 4.878906 13.113281 L 4.878906 17.074219 L 0.914062 17.074219 Z M 0.914062 17.992188 L 4.878906 17.992188 L 4.878906 21.953125 L 0.914062 21.953125 Z M 0.914062 22.871094 L 4.878906 22.871094 L 4.878906 26.101562 C 4.878906 26.46875 4.511719 26.832031 4.148438 26.832031 L 0.914062 26.832031 Z M 28.054688 39.03125 L 11.890625 39.03125 L 11.890625 36.285156 L 28.054688 36.285156 Z M 39.03125 34.03125 C 39.03125 34.761719 38.421875 35.433594 37.628906 35.433594 L 2.257812 35.433594 C 1.523438 35.433594 0.855469 34.824219 0.855469 34.03125 L 0.855469 32.625 L 39.03125 32.625 Z M 39.03125 31.710938 L 0.914062 31.710938 L 0.914062 27.75 L 4.148438 27.75 C 5.0625 27.75 5.855469 27.015625 5.855469 26.039062 L 5.855469 8.964844 C 5.855469 8.050781 5.121094 7.257812 4.148438 7.257812 L 0.914062 7.257812 L 0.914062 5.976562 C 0.914062 5.246094 1.523438 4.574219 2.316406 4.574219 L 21.34375 4.574219 L 21.34375 7.316406 L 8.414062 7.316406 C 8.171875 7.316406 7.929688 7.5 7.929688 7.804688 L 7.929688 28.539062 C 7.929688 28.785156 8.109375 29.027344 8.414062 29.027344 L 26.710938 29.027344 C 26.957031 29.027344 27.199219 28.847656 27.199219 28.539062 L 27.199219 21.648438 L 34.699219 21.648438 C 35.613281 21.648438 36.40625 20.917969 36.40625 19.941406 L 36.40625 4.574219 L 37.8125 4.574219 C 38.542969 4.574219 39.214844 5.183594 39.214844 5.976562 L 39.214844 31.710938 Z M 39.03125 31.710938 " fill-opacity="1" fill-rule="nonzero"/></g><path fill="#508167" d="M 20.003906 34.640625 C 20.339844 34.640625 20.613281 34.367188 20.613281 34.03125 C 20.613281 33.691406 20.339844 33.417969 20.003906 33.417969 C 19.667969 33.417969 19.394531 33.691406 19.394531 34.03125 C 19.394531 34.367188 19.667969 34.640625 20.003906 34.640625 Z M 20.003906 34.640625 " fill-opacity="1" fill-rule="nonzero"/><path fill="#508167" d="M 23.480469 4.453125 C 23.480469 4.511719 23.480469 4.511719 23.480469 4.574219 C 23.539062 5.609375 24.394531 6.402344 25.429688 6.402344 C 26.34375 6.402344 27.136719 5.734375 27.320312 4.878906 L 33.664062 4.878906 C 33.847656 4.878906 34.03125 4.757812 34.089844 4.574219 C 34.152344 4.511719 34.152344 4.453125 34.152344 4.453125 C 34.152344 4.328125 34.089844 4.207031 34.03125 4.148438 C 33.96875 4.023438 33.847656 3.964844 33.664062 3.964844 L 27.382812 3.964844 C 27.382812 3.84375 27.320312 3.78125 27.261719 3.660156 C 26.957031 2.925781 26.285156 2.4375 25.429688 2.4375 C 24.578125 2.4375 23.90625 2.925781 23.601562 3.660156 C 23.539062 3.78125 23.480469 3.964844 23.480469 4.148438 C 23.480469 4.207031 23.480469 4.328125 23.480469 4.453125 C 23.480469 4.390625 23.480469 4.390625 23.480469 4.453125 C 23.480469 4.390625 23.480469 4.390625 23.480469 4.453125 Z M 24.453125 4.148438 C 24.453125 4.085938 24.515625 4.023438 24.515625 3.964844 C 24.578125 3.84375 24.636719 3.71875 24.699219 3.660156 C 24.882812 3.476562 25.1875 3.355469 25.492188 3.355469 C 25.550781 3.355469 25.613281 3.355469 25.734375 3.355469 C 25.917969 3.414062 26.101562 3.539062 26.222656 3.660156 C 26.285156 3.71875 26.40625 3.84375 26.40625 3.964844 C 26.40625 4.023438 26.46875 4.085938 26.46875 4.148438 C 26.46875 4.269531 26.527344 4.328125 26.527344 4.453125 C 26.527344 4.511719 26.527344 4.574219 26.527344 4.636719 C 26.527344 4.757812 26.46875 4.816406 26.40625 4.941406 C 26.222656 5.304688 25.859375 5.550781 25.429688 5.550781 C 25.003906 5.550781 24.636719 5.304688 24.453125 4.941406 C 24.394531 4.878906 24.394531 4.757812 24.394531 4.695312 C 24.394531 4.695312 24.394531 4.695312 24.394531 4.636719 C 24.394531 4.574219 24.394531 4.511719 24.394531 4.453125 C 24.394531 4.328125 24.394531 4.207031 24.453125 4.148438 Z M 24.453125 4.148438 " fill-opacity="1" fill-rule="nonzero"/><path fill="#508167" d="M 23.96875 9.148438 L 29.089844 9.148438 C 29.335938 10 30.066406 10.671875 30.980469 10.671875 C 31.894531 10.671875 32.6875 10 32.871094 9.148438 L 33.726562 9.148438 C 33.96875 9.148438 34.214844 8.964844 34.214844 8.660156 C 34.214844 8.355469 34.03125 8.171875 33.726562 8.171875 L 32.933594 8.171875 C 32.75 7.316406 31.957031 6.648438 30.980469 6.648438 C 30.003906 6.648438 29.273438 7.316406 29.027344 8.171875 L 23.90625 8.171875 C 23.664062 8.171875 23.417969 8.355469 23.417969 8.660156 C 23.417969 8.964844 23.664062 9.148438 23.96875 9.148438 Z M 30.003906 8.234375 C 30.1875 7.867188 30.554688 7.625 30.980469 7.625 C 31.042969 7.625 31.101562 7.625 31.226562 7.625 C 31.53125 7.683594 31.835938 7.929688 31.957031 8.234375 C 32.015625 8.355469 32.078125 8.539062 32.078125 8.660156 C 32.078125 8.84375 32.015625 8.964844 31.957031 9.148438 C 31.773438 9.511719 31.40625 9.757812 30.980469 9.757812 C 30.554688 9.757812 30.1875 9.511719 30.003906 9.148438 C 29.945312 9.085938 29.945312 8.964844 29.945312 8.902344 C 29.945312 8.84375 29.945312 8.78125 29.945312 8.660156 C 29.882812 8.539062 29.945312 8.355469 30.003906 8.234375 Z M 30.003906 8.234375 " fill-opacity="1" fill-rule="nonzero"/><path fill="#508167" d="M 23.964844 13.417969 L 25.429688 13.417969 C 25.550781 13.90625 25.855469 14.332031 26.285156 14.636719 C 26.40625 14.699219 26.589844 14.820312 26.773438 14.820312 C 26.894531 14.878906 27.078125 14.878906 27.261719 14.878906 C 27.320312 14.878906 27.382812 14.878906 27.441406 14.878906 C 28.359375 14.878906 29.148438 14.210938 29.332031 13.355469 L 33.847656 13.355469 C 34.089844 13.355469 34.335938 13.171875 34.335938 12.867188 C 34.335938 12.625 34.152344 12.378906 33.847656 12.378906 L 29.394531 12.378906 C 29.210938 11.527344 28.417969 10.855469 27.441406 10.855469 C 27.382812 10.855469 27.320312 10.855469 27.261719 10.855469 C 27.078125 10.855469 26.953125 10.917969 26.773438 10.917969 C 26.589844 10.976562 26.46875 11.039062 26.285156 11.097656 C 25.855469 11.402344 25.550781 11.832031 25.429688 12.320312 L 24.027344 12.320312 C 23.785156 12.320312 23.539062 12.5 23.539062 12.808594 C 23.539062 13.113281 23.660156 13.417969 23.964844 13.417969 Z M 26.34375 12.5 C 26.40625 12.320312 26.527344 12.195312 26.710938 12.074219 C 26.832031 11.953125 27.015625 11.890625 27.199219 11.890625 C 27.261719 11.890625 27.320312 11.890625 27.382812 11.890625 C 27.441406 11.890625 27.503906 11.890625 27.625 11.890625 C 27.929688 11.953125 28.234375 12.195312 28.359375 12.5 C 28.417969 12.625 28.480469 12.808594 28.480469 12.929688 C 28.480469 13.113281 28.417969 13.234375 28.359375 13.417969 C 28.175781 13.78125 27.808594 14.027344 27.382812 14.027344 C 27.320312 14.027344 27.261719 14.027344 27.199219 14.027344 C 27.015625 14.027344 26.894531 13.964844 26.710938 13.84375 C 26.589844 13.722656 26.46875 13.601562 26.34375 13.417969 C 26.285156 13.355469 26.285156 13.234375 26.285156 13.171875 C 26.285156 13.113281 26.285156 13.050781 26.285156 12.929688 C 26.222656 12.808594 26.285156 12.625 26.34375 12.5 Z M 26.34375 12.5 " fill-opacity="1" fill-rule="nonzero"/><path fill="#508167" d="M 23.96875 17.6875 L 30.308594 17.6875 C 30.492188 18.539062 31.285156 19.210938 32.199219 19.210938 C 33.296875 19.210938 34.152344 18.355469 34.152344 17.257812 C 34.152344 16.160156 33.238281 15.246094 32.140625 15.246094 C 31.226562 15.246094 30.433594 15.917969 30.1875 16.769531 L 23.90625 16.769531 C 23.664062 16.769531 23.417969 16.953125 23.417969 17.257812 C 23.417969 17.5625 23.664062 17.6875 23.96875 17.6875 Z M 31.101562 17.015625 C 31.101562 17.015625 31.101562 16.953125 31.101562 17.015625 C 31.101562 16.894531 31.164062 16.832031 31.164062 16.769531 C 31.347656 16.40625 31.710938 16.160156 32.140625 16.160156 C 32.566406 16.160156 32.933594 16.40625 33.113281 16.769531 C 33.175781 16.894531 33.238281 17.074219 33.238281 17.199219 C 33.238281 17.378906 33.175781 17.503906 33.113281 17.6875 C 32.992188 17.992188 32.75 18.171875 32.382812 18.234375 C 32.324219 18.234375 32.261719 18.234375 32.140625 18.234375 C 31.710938 18.234375 31.347656 17.992188 31.164062 17.625 C 31.101562 17.503906 31.042969 17.320312 31.042969 17.136719 C 31.101562 17.136719 31.101562 17.074219 31.101562 17.015625 Z M 31.101562 17.015625 " fill-opacity="1" fill-rule="nonzero"/><path fill="#508167" d="M 35.980469 25.917969 L 29.882812 23.785156 C 29.699219 23.722656 29.515625 23.785156 29.394531 23.90625 C 29.273438 24.027344 29.273438 24.210938 29.273438 24.394531 L 31.347656 30.492188 C 31.40625 30.675781 31.589844 30.796875 31.773438 30.796875 C 31.957031 30.796875 32.140625 30.675781 32.199219 30.554688 L 33.359375 27.929688 L 35.980469 26.773438 C 36.164062 26.710938 36.285156 26.527344 36.226562 26.34375 C 36.285156 26.101562 36.164062 25.980469 35.980469 25.917969 Z M 32.871094 27.136719 C 32.75 27.199219 32.6875 27.261719 32.625 27.382812 L 31.832031 29.089844 L 30.492188 25.003906 L 34.578125 26.40625 Z M 32.871094 27.136719 " fill-opacity="1" fill-rule="nonzero"/><path fill="#508167" d="M 20.125 16.160156 L 19.210938 16.160156 C 18.964844 16.160156 18.722656 16.34375 18.722656 16.648438 C 18.722656 16.953125 18.90625 17.136719 19.210938 17.136719 L 19.699219 17.136719 L 19.699219 17.625 C 19.699219 17.867188 19.882812 18.113281 20.1875 18.113281 C 20.429688 18.113281 20.675781 17.929688 20.675781 17.625 L 20.675781 16.710938 C 20.613281 16.34375 20.371094 16.160156 20.125 16.160156 Z M 20.125 16.160156 " fill-opacity="1" fill-rule="nonzero"/><path fill="#508167" d="M 11.28125 16.160156 L 10.367188 16.160156 C 10.125 16.160156 9.878906 16.34375 9.878906 16.648438 L 9.878906 17.5625 C 9.878906 17.808594 10.0625 18.050781 10.367188 18.050781 C 10.609375 18.050781 10.855469 17.867188 10.855469 17.5625 L 10.855469 17.074219 L 11.34375 17.074219 C 11.585938 17.074219 11.832031 16.894531 11.832031 16.585938 C 11.832031 16.28125 11.527344 16.160156 11.28125 16.160156 Z M 11.28125 16.160156 " fill-opacity="1" fill-rule="nonzero"/><path fill="#508167" d="M 10.367188 23.050781 C 10.609375 23.050781 10.855469 22.871094 10.855469 22.5625 L 10.855469 20.429688 C 10.855469 20.1875 10.671875 19.941406 10.367188 19.941406 C 10.0625 19.941406 9.878906 20.125 9.878906 20.429688 L 9.878906 22.5625 C 9.941406 22.808594 10.125 23.050781 10.367188 23.050781 Z M 10.367188 23.050781 " fill-opacity="1" fill-rule="nonzero"/><path fill="#508167" d="M 11.28125 25.917969 L 10.792969 25.917969 L 10.792969 25.429688 C 10.792969 25.1875 10.609375 24.941406 10.304688 24.941406 C 10 24.941406 9.820312 25.125 9.820312 25.429688 L 9.820312 26.34375 C 9.820312 26.589844 10 26.832031 10.304688 26.832031 L 11.222656 26.832031 C 11.464844 26.832031 11.707031 26.652344 11.707031 26.34375 C 11.707031 26.039062 11.527344 25.917969 11.28125 25.917969 Z M 11.28125 25.917969 " fill-opacity="1" fill-rule="nonzero"/><path fill="#508167" d="M 16.34375 25.917969 L 14.210938 25.917969 C 13.964844 25.917969 13.722656 26.101562 13.722656 26.40625 C 13.722656 26.710938 13.90625 26.894531 14.210938 26.894531 L 16.34375 26.894531 C 16.589844 26.894531 16.832031 26.710938 16.832031 26.40625 C 16.832031 26.101562 16.589844 25.917969 16.34375 25.917969 Z M 16.34375 25.917969 " fill-opacity="1" fill-rule="nonzero"/><path fill="#508167" d="M 20.125 25.003906 C 19.878906 25.003906 19.636719 25.1875 19.636719 25.492188 L 19.636719 25.980469 L 19.148438 25.980469 C 18.90625 25.980469 18.660156 26.164062 18.660156 26.46875 C 18.660156 26.773438 18.84375 26.957031 19.148438 26.957031 L 20.125 26.957031 C 20.367188 26.957031 20.613281 26.773438 20.613281 26.46875 L 20.613281 25.550781 C 20.613281 25.1875 20.367188 25.003906 20.125 25.003906 Z M 20.125 25.003906 " fill-opacity="1" fill-rule="nonzero"/><path fill="#508167" d="M 20.125 19.941406 C 19.882812 19.941406 19.636719 20.125 19.636719 20.429688 L 19.636719 22.5625 C 19.636719 22.808594 19.820312 23.050781 20.125 23.050781 C 20.367188 23.050781 20.613281 22.871094 20.613281 22.5625 L 20.613281 20.429688 C 20.613281 20.1875 20.367188 19.941406 20.125 19.941406 Z M 20.125 19.941406 " fill-opacity="1" fill-rule="nonzero"/><path fill="#508167" d="M 20.125 13.113281 C 19.878906 13.113281 19.636719 13.292969 19.636719 13.601562 L 19.636719 14.027344 L 19.148438 14.027344 C 18.90625 14.027344 18.660156 14.210938 18.660156 14.515625 C 18.660156 14.757812 18.84375 15.003906 19.148438 15.003906 L 20.125 15.003906 C 20.367188 15.003906 20.613281 14.820312 20.613281 14.515625 L 20.613281 13.601562 C 20.613281 13.292969 20.367188 13.113281 20.125 13.113281 Z M 20.125 13.113281 " fill-opacity="1" fill-rule="nonzero"/><path fill="#508167" d="M 20.125 9.148438 L 19.210938 9.148438 C 18.964844 9.148438 18.722656 9.332031 18.722656 9.636719 C 18.722656 9.878906 18.90625 10.125 19.210938 10.125 L 19.699219 10.125 L 19.699219 10.613281 C 19.699219 10.855469 19.882812 11.097656 20.1875 11.097656 C 20.492188 11.097656 20.675781 10.917969 20.675781 10.613281 L 20.675781 9.695312 C 20.613281 9.332031 20.371094 9.148438 20.125 9.148438 Z M 20.125 9.148438 " fill-opacity="1" fill-rule="nonzero"/><path fill="#508167" d="M 14.148438 10.0625 L 16.28125 10.0625 C 16.527344 10.0625 16.769531 9.878906 16.769531 9.574219 C 16.769531 9.269531 16.589844 9.148438 16.34375 9.148438 L 14.210938 9.148438 C 13.964844 9.148438 13.722656 9.332031 13.722656 9.636719 C 13.722656 9.878906 13.90625 10.0625 14.148438 10.0625 Z M 14.148438 10.0625 " fill-opacity="1" fill-rule="nonzero"/><path fill="#508167" d="M 11.28125 9.148438 L 10.367188 9.148438 C 10.125 9.148438 9.878906 9.332031 9.878906 9.636719 L 9.878906 10.550781 C 9.878906 10.792969 10.0625 11.039062 10.367188 11.039062 C 10.671875 11.039062 10.855469 10.855469 10.855469 10.550781 L 10.855469 10.0625 L 11.34375 10.0625 C 11.585938 10.0625 11.832031 9.878906 11.832031 9.574219 C 11.832031 9.269531 11.527344 9.148438 11.28125 9.148438 Z M 11.28125 9.148438 " fill-opacity="1" fill-rule="nonzero"/><path fill="#508167" d="M 11.28125 14.027344 L 10.792969 14.027344 L 10.792969 13.539062 C 10.792969 13.292969 10.609375 13.050781 10.304688 13.050781 C 10 13.050781 9.820312 13.234375 9.820312 13.539062 L 9.820312 14.453125 C 9.820312 14.699219 10 14.941406 10.304688 14.941406 L 11.222656 14.941406 C 11.464844 14.941406 11.707031 14.757812 11.707031 14.453125 C 11.707031 14.148438 11.527344 14.027344 11.28125 14.027344 Z M 11.28125 14.027344 " fill-opacity="1" fill-rule="nonzero"/><path fill="#508167" d="M 14.148438 14.941406 L 16.28125 14.941406 C 16.527344 14.941406 16.769531 14.757812 16.769531 14.453125 C 16.769531 14.148438 16.589844 14.027344 16.34375 14.027344 L 14.210938 14.027344 C 13.964844 14.027344 13.722656 14.210938 13.722656 14.515625 C 13.722656 14.757812 13.90625 14.941406 14.148438 14.941406 Z M 14.148438 14.941406 " fill-opacity="1" fill-rule="nonzero"/></svg>