<svg fill="none" height="54" viewBox="0 0 54 54" width="54" xmlns="http://www.w3.org/2000/svg" xmlns:xlink="http://www.w3.org/1999/xlink"><clipPath id="a"><path d="m0 0h54v54h-54z"/></clipPath><g clip-path="url(#a)"><path d="m46.5312 35.5211c.7392.8394.6947 2.0681-.1132 3.1302-1.1682 1.5357-7.2324 5.0209-7.9201 5.4132-.1154.0659-.2411.0972-.3652.0972-.2566 0-.5057-.1339-.642-.3725-.202-.3542-.0787-.8051.2754-1.0072 3.7414-2.1348 6.8858-4.2479 7.4767-5.0247.3745-.4922.4418-.9635.1802-1.2605-.2705-.3071-.9277-.4265-1.7317.0377-2.4312 1.4037-9.0389 4.578-12.5651 5.5666-.9663.402-2.2052.5607-3.4951.5607-2.6521 0-5.518-.6691-6.6683-1.2677-.3617-.1883-.5023-.634-.314-.9957.1881-.3617.6342-.5024.9956-.3141.8713.4535 3.0931.9801 5.3034 1.0766 1.5489.0676 2.8043-.0831 3.6093-.4146.0348-.0187.0716-.0345.11-.0477.3553-.1623.6115-.3633.752-.5997.2451-.4125.2443-.9066-.0023-1.3216s-.6796-.6507-1.1597-.634c-.0094.0003-.0187.0005-.028.0005-4.6073 0-7.6713-1.271-10.1332-2.2922-2.1776-.9033-3.7508-1.5562-5.5923-1.1104-1.9677.4763-4.2491 2.2865-7.15889 5.685l6.33729 6.3372c2.5253-1.1436 5.3131-1.0897 7.7437-.9442.6326.0379 1.2886.0907 1.9829.1466 1.5941.1285 3.242.2614 4.7987.2268 2.7356-.0605 4.4846-.7161 6.9431-1.9855.3621-.1871.8077-.045.9947.3173s.045.8075-.3174.9946c-2.6007 1.3429-4.5803 2.0833-7.5878 2.1497-1.6315.0359-3.3185-.0999-4.9499-.2312-.6865-.0552-1.3349-.1076-1.9524-.1445-2.7203-.1628-4.8406-.0962-6.7527.6898.2801.7966.1047 1.7189-.5312 2.3548l-3.0241 3.024c-.1384.1384-.3262.2162-.522.2162-.1957 0-.3836-.0778-.52195-.2162l-5.28789-5.2879c-.28835-.2883-.28835-.7558 0-1.044.28825-.2884.7559-.2882 1.04393 0l4.76591 4.7659 2.502-2.5019c.3073-.3074.3073-.8073 0-1.1146l-7.18912-7.1892c-.30734-.3072-.80726-.3074-1.1146 0l-2.50182 2.5019 1.49628 1.4963c.28825.2884.28825.7558 0 1.0441-.28814.2884-.75568.2882-1.04403 0l-2.01825-2.0184c-.288247-.2884-.288247-.7558 0-1.044l3.02389-3.024c.68629-.6861 1.70596-.8365 2.54117-.4563 3.17165-3.7096 5.63498-5.6223 7.95338-6.1835 2.3096-.559 4.254.2476 6.5054 1.1816 2.4604 1.0207 5.2488 2.1773 9.5548 2.1797 1.0203-.0336 1.9448.4725 2.4697 1.3557.3458.5817.4637 1.2366.3567 1.8681 3.4753-1.3294 8.0556-3.5646 9.9102-4.6353 1.5315-.8842 2.9007-.504 3.5781.2652zm-29.4273-25.0038v-9.35714c0-.195754.0778-.383594.2164-.522074.1383-.138375.3262-.216211.5219-.216211h16.0813c.7108 0 1.3621.284344 1.8835.822125l6.3928 6.39278c.5377.52133.8217 1.17239.8217 1.88336v11.21776c0 .4077-.3305.7383-.7383.7383-.4077 0-.7382-.3306-.7382-.7383v-11.21787c0-.31176-.1229-.58197-.3758-.82603-.0031-.00306-.0063-.00612-.0093-.00918l-.0453-.04524c-.2634-.25408-.6085-.39403-.9719-.39403h-4.2067c-.4077 0-.7383-.33054-.7383-.73828v-4.20652c0-.36345-.1399-.70843-.3939-.97189l-.0452-.04525c-.0031-.00306-.0061-.00612-.0091-.00918-.2443-.25291-.5146-.37589-.8261-.37589h-15.3429v8.61886c0 .4078-.3305.7383-.7383.7383-.4077 0-.7383-.3306-.7383-.7384zm22.1401-3.74832-2.5696-2.56964v2.56964zm-21.4018 26.33542h18.8983c.4078 0 .7383-.3305.7383-.7383 0-.4077-.3305-.7382-.7383-.7382h-18.16v-18.2233c0-.4078-.3305-.7383-.7383-.7383-.4077 0-.7383.3305-.7383.7383v18.9617c0 .4077.3306.7382.7383.7382zm9.5028-25.02149c-.4078 0-.7383.33054-.7383.73829 0 .40774.3305.73828.7383.73828h2.9069c.4077 0 .7383-.33054.7383-.73828v-3.63878c0-.40774-.3306-.73828-.7383-.73828h-8.7012c-.4077 0-.7383.33054-.7383.73828v3.63878c0 .40774.3306.73828.7383.73828h2.907c.4077 0 .7382-.33054.7382-.73828 0-.40775-.3305-.73829-.7382-.73829h-2.1687v-2.16221h7.2246v2.16221zm25.8395 8.85809-5.228 9.0553c-.2039.3531-.6553.4742-1.0085.2702-.3531-.2039-.4741-.6554-.2702-1.0085l2.428-4.2055-2.5512-1.473-5.3972 9.3484 2.5511 1.4728 1.5256-2.6424c.204-.3531.6556-.4742 1.0085-.2702.3531.2039.4741.6554.2703 1.0085l-1.8948 3.2818c-.004.0069-.009.0128-.0132.0197-.0101.0163-.0208.0324-.0323.048-.008.0109-.0163.0215-.0248.0318-.0109.0132-.0223.0259-.0341.0383-.0101.0108-.0204.0214-.0311.0314-.0039.0036-.0072.0077-.0112.0113l-4.7783 4.2847c-.1819.1631-.4118.247-.6438.247-.1655 0-.3321-.0427-.483-.1298-.3625-.2094-.5479-.6252-.4615-1.0348l1.3214-6.28c.0001-.0006.0004-.0013.0005-.0019.0059-.0279.0134-.0556.0227-.083 0-.0001 0-.0003.0001-.0004.0085-.025.0187-.0498.0302-.0742.0036-.0078.0078-.0153.0118-.023.0059-.0116.0112-.0233.0177-.0347l8.5665-14.8374c.3928-.6802 1.0289-1.1672 1.7916-1.3716.7624-.2043 1.5572-.1008 2.2375.292.6802.3927 1.1672 1.029 1.3716 1.7916s.1006 1.5572-.292 2.2374zm-10.4568 14.5986-2.0663-1.193-.7898 3.7541zm7.1163-11.7658.7989-1.3838-2.5512-1.473-.7989 1.3838zm2.2064-4.6881c-.1023-.3817-.345-.6996-.6837-.8951s-.7356-.2468-1.1171-.1446c-.3817.1023-.6996.3451-.8949.6837l-.5246.9086 2.5512 1.4729.5245-.9085c.1955-.3385.2469-.7353.1446-1.117zm-13.4754.1162h-17.0243c-.4077 0-.7383.3306-.7383.7383 0 .4078.3306.7383.7383.7383h17.0242c.4077 0 .7382-.3305.7382-.7383 0-.4077-.3305-.7383-.7382-.7383zm0-3.6782h-17.0243c-.4077 0-.7383.3306-.7383.7383 0 .4078.3306.7383.7383.7383h17.0242c.4077 0 .7382-.3305.7382-.7383 0-.4077-.3305-.7383-.7382-.7383zm-17.0243 15.3854c-.4077 0-.7383.3305-.7383.7383 0 .4077.3306.7382.7383.7382h3.2426c.4077 0 .7382-.3305.7382-.7382 0-.4078-.3305-.7383-.7382-.7383zm17.0242-8.0288h-17.0242c-.4077 0-.7383.3305-.7383.7383 0 .4077.3306.7382.7383.7382h17.0242c.4077 0 .7382-.3305.7382-.7382 0-.4078-.3305-.7383-.7382-.7383zm.7382 4.4165c0-.4078-.3305-.7383-.7382-.7383h-17.0242c-.4077 0-.7383.3305-.7383.7383 0 .4077.3306.7383.7383.7383h17.0242c.4077 0 .7382-.3306.7382-.7383z" fill="#5ac8ff"/></g></svg>