<svg width="54" height="46" viewBox="0 0 54 46" fill="none" xmlns="http://www.w3.org/2000/svg">
<path d="M2.19831 34.94H1.44831V35.69H2.19831V34.94ZM52.2821 34.94V35.69H53.0321V34.94H52.2821ZM16.5098 40.2762V39.5262H15.7598V40.2762H16.5098ZM37.97 40.2762H38.72V39.5262H37.97V40.2762ZM37.97 44.3444V45.0944H38.72V44.3444H37.97ZM16.5098 44.3444H15.7598V45.0944H16.5098V44.3444ZM16.428 44.4265H15.678V45.1765H16.428V44.4265ZM38.0523 44.4265V45.1765H38.8023V44.4265H38.0523ZM38.0523 40.1941H38.8023V39.4441H38.0523V40.1941ZM16.428 40.1941V39.4441H15.678V40.1941H16.428ZM2.19831 35.4508V34.7008H1.44831V35.4508H2.19831ZM52.2821 35.4508H53.0321V34.7008H52.2821V35.4508ZM8.43818 15.7773V15.0273H7.68818V15.7773H8.43818ZM33.1553 15.7773H33.9053V15.0273H33.1553V15.7773ZM33.1553 16.1459V16.8959H33.9053V16.1459H33.1553ZM8.43818 16.1459H7.68818V16.8959H8.43818V16.1459ZM8.69326 15.4319H7.94326V16.1819H8.69326V15.4319ZM12.9306 15.4319V16.1819H13.6806V15.4319H12.9306ZM28.6637 15.4319H27.9137V16.1819H28.6637V15.4319ZM32.9011 15.4319V16.1819H33.6511V15.4319H32.9011ZM15.351 15.4319H14.601V16.1819H15.351V15.4319ZM19.5883 15.4319V16.1819H20.3383V15.4319H19.5883ZM22.0074 15.4319H21.2574V16.1819H22.0074V15.4319ZM26.2447 15.4319V16.1819H26.9947V15.4319H26.2447ZM20.7974 30.1359L20.5816 30.8542L20.9461 30.9637L21.2497 30.7341L20.7974 30.1359ZM30.7819 22.5863L31.0788 21.8976L30.6778 21.7247L30.3295 21.9881L30.7819 22.5863ZM35.9595 28.2713C35.5453 28.2713 35.2095 28.6071 35.2095 29.0213C35.2095 29.4355 35.5453 29.7713 35.9595 29.7713V28.2713ZM39.2561 29.7713C39.6703 29.7713 40.0061 29.4355 40.0061 29.0213C40.0061 28.6071 39.6703 28.2713 39.2561 28.2713V29.7713ZM33.2174 30.6745C32.8031 30.6745 32.4674 31.0103 32.4674 31.4245C32.4674 31.8387 32.8031 32.1745 33.2174 32.1745V30.6745ZM39.2571 32.1745C39.6713 32.1745 40.0071 31.8387 40.0071 31.4245C40.0071 31.0103 39.6713 30.6745 39.2571 30.6745V32.1745ZM44.024 12.2787C43.6098 12.2787 43.274 12.6145 43.274 13.0287C43.274 13.4429 43.6098 13.7787 44.024 13.7787V12.2787ZM47.5498 13.7787C47.964 13.7787 48.2998 13.4429 48.2998 13.0287C48.2998 12.6145 47.964 12.2787 47.5498 12.2787V13.7787ZM45.6126 9.87537C45.1984 9.87537 44.8626 10.2112 44.8626 10.6254C44.8626 11.0396 45.1984 11.3754 45.6126 11.3754V9.87537ZM47.5494 11.3754C47.9636 11.3754 48.2994 11.0396 48.2994 10.6254C48.2994 10.2112 47.9636 9.87537 47.5494 9.87537V11.3754ZM41.5178 14.6898C41.1036 14.6898 40.7678 15.0256 40.7678 15.4398C40.7678 15.854 41.1036 16.1898 41.5178 16.1898V14.6898ZM47.5496 16.1898C47.9638 16.1898 48.2996 15.854 48.2996 15.4398C48.2996 15.0256 47.9638 14.6898 47.5496 14.6898V16.1898ZM53.0321 4.36434C53.0321 2.78347 51.7468 1.49812 50.1659 1.49812V2.99812C50.9183 2.99812 51.5321 3.61187 51.5321 4.36434H53.0321ZM50.1659 1.49812H4.31453V2.99812H50.1659V1.49812ZM4.31453 1.49812C2.73365 1.49812 1.44831 2.78346 1.44831 4.36434H2.94831C2.94831 3.61188 3.56208 2.99812 4.31453 2.99812V1.49812ZM52.5375 34.7008H1.94291V36.2008H52.5375V34.7008ZM1.94291 34.7008C2.21924 34.7008 2.4375 34.9188 2.4375 35.1954H0.9375C0.9375 35.7475 1.39112 36.2008 1.94291 36.2008V34.7008ZM2.4375 35.1954V4.36434H0.9375V35.1954H2.4375ZM2.4375 4.36434C2.4375 3.32852 3.27872 2.4873 4.31453 2.4873V0.987305C2.45029 0.987305 0.9375 2.50009 0.9375 4.36434H2.4375ZM4.31453 2.4873H50.1659V0.987305H4.31453V2.4873ZM50.1659 2.4873C51.2017 2.4873 52.0429 3.32852 52.0429 4.36434H53.5429C53.5429 2.50009 52.0301 0.987305 50.1659 0.987305V2.4873ZM52.0429 4.36434V35.1954H53.5429V4.36434H52.0429ZM52.0429 35.1954C52.0429 34.9188 52.2612 34.7008 52.5375 34.7008V36.2008C53.0893 36.2008 53.5429 35.7475 53.5429 35.1954H52.0429ZM16.5098 41.0262H37.97V39.5262H16.5098V41.0262ZM37.22 40.2762V44.3444H38.72V40.2762H37.22ZM37.97 43.5944H16.5098V45.0944H37.97V43.5944ZM17.2598 44.3444V40.2762H15.7598V44.3444H17.2598ZM38.3077 44.1873H16.1726V45.6873H38.3077V44.1873ZM16.1726 44.1873C16.4492 44.1873 16.6672 44.4056 16.6672 44.6819H15.1672C15.1672 45.2337 15.6205 45.6873 16.1726 45.6873V44.1873ZM16.6672 44.6819V39.9387H15.1672V44.6819H16.6672ZM16.6672 39.9387C16.6672 40.2149 16.4494 40.4332 16.1726 40.4332V38.9332C15.6204 38.9332 15.1672 39.387 15.1672 39.9387H16.6672ZM16.1726 40.4332H38.3077V38.9332H16.1726V40.4332ZM38.3077 40.4332C38.0312 40.4332 37.8132 40.2151 37.8132 39.9387H39.3132C39.3132 39.3869 38.8598 38.9332 38.3077 38.9332V40.4332ZM37.8132 39.9387V44.6819H39.3132V39.9387H37.8132ZM37.8132 44.6819C37.8132 44.4054 38.0313 44.1873 38.3077 44.1873V45.6873C38.8597 45.6873 39.3132 45.2339 39.3132 44.6819H37.8132ZM1.44831 37.567C1.44831 39.1479 2.73366 40.4332 4.31453 40.4332V38.9332C3.56207 38.9332 2.94831 38.3195 2.94831 37.567H1.44831ZM4.31453 40.4332H50.1659V38.9332H4.31453V40.4332ZM50.1659 40.4332C51.7467 40.4332 53.0321 39.1479 53.0321 37.567H51.5321C51.5321 38.3195 50.9183 38.9332 50.1659 38.9332V40.4332ZM50.1659 39.4441H4.31453V40.9441H50.1659V39.4441ZM4.31453 39.4441C3.27872 39.4441 2.4375 38.6029 2.4375 37.567H0.9375C0.9375 39.4313 2.45029 40.9441 4.31453 40.9441V39.4441ZM2.4375 37.567V35.1954H0.9375V37.567H2.4375ZM2.4375 35.1954C2.4375 35.4709 2.21248 35.69 1.94291 35.69V34.19C1.39201 34.19 0.9375 34.6345 0.9375 35.1954H2.4375ZM1.94291 35.69H52.5375V34.19H1.94291V35.69ZM52.5375 35.69C52.261 35.69 52.0429 35.4719 52.0429 35.1954H53.5429C53.5429 34.6434 53.0894 34.19 52.5375 34.19V35.69ZM52.0429 35.1954V37.567H53.5429V35.1954H52.0429ZM52.0429 37.567C52.0429 38.6029 51.2017 39.4441 50.1659 39.4441V40.9441C52.0301 40.9441 53.5429 39.4313 53.5429 37.567H52.0429ZM46.213 44.1873H8.26706V45.6873H46.213V44.1873ZM8.26706 44.1873C8.54345 44.1873 8.76164 44.4053 8.76164 44.6819H7.26164C7.26164 45.234 7.71527 45.6873 8.26706 45.6873V44.1873ZM8.76164 44.6819C8.76164 44.9587 8.54331 45.1765 8.26706 45.1765V43.6765C7.71542 43.6765 7.26164 44.1297 7.26164 44.6819H8.76164ZM8.26706 45.1765H46.213V43.6765H8.26706V45.1765ZM46.213 45.1765C45.9367 45.1765 45.7184 44.9585 45.7184 44.6819H47.2184C47.2184 44.1298 46.7648 43.6765 46.213 43.6765V45.1765ZM45.7184 44.6819C45.7184 44.4054 45.9366 44.1873 46.213 44.1873V45.6873C46.765 45.6873 47.2184 45.2339 47.2184 44.6819H45.7184ZM26.9432 37.567C26.9432 37.4031 27.0761 37.2701 27.2401 37.2701V38.7701C27.9045 38.7701 28.4432 38.2315 28.4432 37.567H26.9432ZM27.2401 37.2701C27.4042 37.2701 27.5371 37.4031 27.5371 37.567H26.0371C26.0371 38.2314 26.5757 38.7701 27.2401 38.7701V37.2701ZM27.5371 37.567C27.5371 37.731 27.4042 37.864 27.2401 37.864V36.364C26.5757 36.364 26.0371 36.9027 26.0371 37.567H27.5371ZM27.2401 37.864C27.0761 37.864 26.9432 37.731 26.9432 37.567H28.4432C28.4432 36.9026 27.9045 36.364 27.2401 36.364V37.864ZM8.43818 16.5273H33.1553V15.0273H8.43818V16.5273ZM32.4053 15.7773V16.1459H33.9053V15.7773H32.4053ZM33.1553 15.3959H8.43818V16.8959H33.1553V15.3959ZM9.18818 16.1459V15.7773H7.68818V16.1459H9.18818ZM11.7447 8.95838H9.8791V10.4584H11.7447V8.95838ZM9.8791 8.95838C8.80872 8.95838 7.94326 9.82384 7.94326 10.8942H9.44326C9.44326 10.6523 9.63714 10.4584 9.8791 10.4584V8.95838ZM7.94326 10.8942V15.4319H9.44326V10.8942H7.94326ZM8.69326 16.1819H12.9306V14.6819H8.69326V16.1819ZM13.6806 15.4319V10.8942H12.1806V15.4319H13.6806ZM13.6806 10.8942C13.6806 9.82384 12.8151 8.95838 11.7447 8.95838V10.4584C11.9867 10.4584 12.1806 10.6523 12.1806 10.8942H13.6806ZM31.7153 8.95838H29.8496V10.4584H31.7153V8.95838ZM29.8496 8.95838C28.7792 8.95838 27.9137 9.82384 27.9137 10.8942H29.4137C29.4137 10.6523 29.6076 10.4584 29.8496 10.4584V8.95838ZM27.9137 10.8942V15.4319H29.4137V10.8942H27.9137ZM28.6637 16.1819H32.9011V14.6819H28.6637V16.1819ZM33.6511 15.4319V10.8942H32.1511V15.4319H33.6511ZM33.6511 10.8942C33.6511 9.82387 32.7856 8.95838 31.7153 8.95838V10.4584C31.9571 10.4584 32.1511 10.6522 32.1511 10.8942H33.6511ZM18.4025 6.69747H16.5368V8.19747H18.4025V6.69747ZM16.5368 6.69747C15.4664 6.69747 14.601 7.56293 14.601 8.63324H16.101C16.101 8.39135 16.2949 8.19747 16.5368 8.19747V6.69747ZM14.601 8.63324V15.4319H16.101V8.63324H14.601ZM15.351 16.1819H19.5883V14.6819H15.351V16.1819ZM20.3383 15.4319V8.63324H18.8383V15.4319H20.3383ZM20.3383 8.63324C20.3383 7.57405 19.4761 6.69747 18.4025 6.69747V8.19747C18.6412 8.19747 18.8383 8.39603 18.8383 8.63324H20.3383ZM25.0588 3.93057H23.1932V5.43057H25.0588V3.93057ZM23.1932 3.93057C22.1228 3.93057 21.2574 4.79601 21.2574 5.86635H22.7574C22.7574 5.62449 22.9512 5.43057 23.1932 5.43057V3.93057ZM21.2574 5.86635V15.4319H22.7574V5.86635H21.2574ZM22.0074 16.1819H26.2447V14.6819H22.0074V16.1819ZM26.9947 15.4319V5.86635H25.4947V15.4319H26.9947ZM26.9947 5.86635C26.9947 4.80715 26.1324 3.93057 25.0588 3.93057V5.43057C25.2976 5.43057 25.4947 5.62914 25.4947 5.86635H26.9947ZM10.0279 27.6841L20.5816 30.8542L21.0131 29.4176L10.4594 26.2475L10.0279 27.6841ZM21.2497 30.7341L31.2342 23.1845L30.3295 21.9881L20.345 29.5377L21.2497 30.7341ZM30.485 23.275L44.2404 29.204L44.8342 27.8266L31.0788 21.8976L30.485 23.275ZM10.2427 29.2654C11.5127 29.2654 12.5422 28.2359 12.5422 26.9659H11.0422C11.0422 27.4075 10.6843 27.7654 10.2427 27.7654V29.2654ZM12.5422 26.9659C12.5422 25.6959 11.5127 24.6664 10.2427 24.6664V26.1664C10.6843 26.1664 11.0422 26.5244 11.0422 26.9659H12.5422ZM10.2427 24.6664C8.97274 24.6664 7.94326 25.6959 7.94326 26.9659H9.44326C9.44326 26.5244 9.80117 26.1664 10.2427 26.1664V24.6664ZM7.94326 26.9659C7.94326 28.2359 8.97274 29.2654 10.2427 29.2654V27.7654C9.80117 27.7654 9.44326 27.4075 9.44326 26.9659H7.94326ZM20.8054 32.4354C22.0754 32.4354 23.1049 31.4059 23.1049 30.136H21.6049C21.6049 30.5775 21.2469 30.9354 20.8054 30.9354V32.4354ZM23.1049 30.136C23.1049 28.866 22.0754 27.8365 20.8054 27.8365V29.3365C21.2469 29.3365 21.6049 29.6944 21.6049 30.136H23.1049ZM20.8054 27.8365C19.5355 27.8365 18.5059 28.866 18.5059 30.136H20.0059C20.0059 29.6944 20.3639 29.3365 20.8054 29.3365V27.8365ZM18.5059 30.136C18.5059 31.4059 19.5355 32.4354 20.8054 32.4354V30.9354C20.3639 30.9354 20.0059 30.5775 20.0059 30.136H18.5059ZM30.7814 24.8858C32.0514 24.8858 33.0809 23.8563 33.0809 22.5863H31.5809C31.5809 23.0279 31.223 23.3858 30.7814 23.3858V24.8858ZM33.0809 22.5863C33.0809 21.3163 32.0514 20.2868 30.7814 20.2868V21.7868C31.223 21.7868 31.5809 22.1447 31.5809 22.5863H33.0809ZM30.7814 20.2868C29.5115 20.2868 28.482 21.3163 28.482 22.5863H29.982C29.982 22.1448 30.3399 21.7868 30.7814 21.7868V20.2868ZM28.482 22.5863C28.482 23.8563 29.5115 24.8858 30.7814 24.8858V23.3858C30.3399 23.3858 29.982 23.0278 29.982 22.5863H28.482ZM44.5372 30.886C45.8072 30.886 46.8366 29.8564 46.8366 28.5865H45.3366C45.3366 29.028 44.9787 29.386 44.5372 29.386V30.886ZM46.8366 28.5865C46.8366 27.3165 45.8072 26.287 44.5372 26.287V27.787C44.9787 27.787 45.3366 28.145 45.3366 28.5865H46.8366ZM44.5372 26.287C43.2673 26.287 42.2377 27.3165 42.2377 28.5865H43.7377C43.7377 28.145 44.0957 27.787 44.5372 27.787V26.287ZM42.2377 28.5865C42.2377 29.8564 43.2673 30.886 44.5372 30.886V29.386C44.0957 29.386 43.7377 29.028 43.7377 28.5865H42.2377ZM35.9595 29.7713H39.2561V28.2713H35.9595V29.7713ZM33.2174 32.1745H39.2571V30.6745H33.2174V32.1745ZM44.024 13.7787H47.5498V12.2787H44.024V13.7787ZM45.6126 11.3754H47.5494V9.87537H45.6126V11.3754ZM41.5178 16.1898H47.5496V14.6898H41.5178V16.1898ZM1.44831 4.36434V34.94H2.94831V4.36434H1.44831ZM2.19831 35.69H52.2821V34.19H2.19831V35.69ZM53.0321 34.94V4.36434H51.5321V34.94H53.0321ZM15.678 40.1941V44.4265H17.178V40.1941H15.678ZM16.428 45.1765H38.0523V43.6765H16.428V45.1765ZM38.8023 44.4265V40.1941H37.3023V44.4265H38.8023ZM38.0523 39.4441H16.428V40.9441H38.0523V39.4441ZM52.2821 34.7008H2.19831V36.2008H52.2821V34.7008ZM1.44831 35.4508V37.567H2.94831V35.4508H1.44831ZM53.0321 37.567V35.4508H51.5321V37.567H53.0321Z" fill="#5AC8FF"/>
</svg>
