<svg width="80" height="73" viewBox="0 0 80 73" fill="none" xmlns="http://www.w3.org/2000/svg">
<path d="M29.5696 0C25.7215 0 22.5678 1.96745 21.1212 5.20796H19.877H19.8481C16.5497 5.20796 13.396 6.30741 10.9946 8.33273C8.44846 10.4738 7.05967 13.425 7.05967 16.6076C7.05967 19.2116 8.41953 22.076 9.72152 23.8698C3.9349 25.8951 0 30.7559 0 36.0796C0 41.4033 3.9349 46.264 9.72152 48.2893C8.3906 50.0832 7.00181 52.9476 7.00181 55.4937C7.00181 61.8011 12.7595 66.9512 19.877 66.9801H21.1212C22.5389 70.1917 25.7215 72.1881 29.5696 72.1881C29.5696 72.1881 29.5696 72.1881 29.5986 72.1881C34.7197 72.1881 38.3363 68.6004 38.3363 63.4503V8.76673C38.3363 3.61664 34.7486 0 29.5696 0ZM29.5696 44.2676C28.6438 44.2676 27.8915 43.5154 27.8915 42.5895C27.8915 41.6637 28.6438 40.9114 29.5696 40.9114C30.4955 40.9114 31.2477 41.6637 31.2477 42.5895C31.2477 43.5154 30.4955 44.2676 29.5696 44.2676ZM36.4557 31.2477H30.5244V14.7559C32.0289 14.3508 33.1284 12.991 33.1284 11.3707C33.1284 9.40325 31.5371 7.84087 29.5986 7.84087C27.66 7.84087 26.0398 9.40326 26.0398 11.3418C26.0398 12.962 27.1392 14.3219 28.6438 14.7269V31.2188H24.3617C22.2785 31.2477 20.8318 32.6944 20.8318 34.7776V36.4557H14.7559C14.3508 34.9512 12.991 33.8517 11.3707 33.8517C9.40325 33.8517 7.84087 35.443 7.84087 37.3816C7.84087 39.349 9.43219 40.9114 11.3707 40.9114C12.991 40.9114 14.3508 39.8119 14.7559 38.3074H20.8318V53.5262C19.3273 53.9313 18.2278 55.2911 18.2278 56.9403C18.2278 58.9078 19.8192 60.4702 21.7577 60.4702C23.6962 60.4702 25.2875 58.8788 25.2875 56.9403C25.2875 55.3201 24.1881 53.9602 22.6835 53.5262V34.8065C22.6835 33.7649 23.3201 33.1284 24.3617 33.1284H36.4557V63.4503C36.4557 67.2405 34.0832 69.8445 30.5244 70.2495V46.0036C32.0289 45.5986 33.1284 44.2387 33.1284 42.5895C33.1284 40.6221 31.5371 39.0597 29.5986 39.0597C27.66 39.0597 26.0398 40.651 26.0398 42.5895C26.0398 44.2098 27.1392 45.5696 28.6438 46.0036V70.2495C25.7794 69.9602 23.5515 68.311 22.6546 65.736C22.5099 65.3599 22.1627 65.0995 21.7577 65.0995H19.877C14.5823 65.0995 8.85353 61.425 8.85353 55.4937C8.85353 52.9765 10.7052 49.736 12.0072 48.4629C12.2387 48.2315 12.3255 47.8843 12.2387 47.566C12.1519 47.2477 11.8915 46.9873 11.5732 46.9005C5.87342 45.425 1.88065 40.9982 1.88065 36.0796C1.88065 31.1899 5.84448 26.7631 11.5154 25.2875H18.4014C18.8065 26.792 20.1664 27.8915 21.7866 27.8915C23.7541 27.8915 25.3165 26.3002 25.3165 24.3617C25.3165 22.4231 23.7251 20.8318 21.7577 20.8318C20.1374 20.8318 18.7776 21.9313 18.3725 23.4358H11.7758C10.5316 22.0181 8.94033 19.038 8.94033 16.6076C8.94033 13.9747 10.0976 11.5154 12.2098 9.75045C14.2351 8.0434 17.0127 7.05967 19.8481 7.05967C19.8481 7.05967 19.8481 7.05967 19.877 7.05967H21.7577C22.1627 7.05967 22.5099 6.79928 22.6546 6.42315C23.6673 3.55877 26.2712 1.85172 29.5696 1.85172C33.6781 1.85172 36.4557 4.6293 36.4557 8.73779V31.2477ZM29.5696 13.0199C28.6438 13.0199 27.8915 12.2676 27.8915 11.3418C27.8915 10.4159 28.6438 9.66365 29.5696 9.66365C30.4955 9.66365 31.2477 10.4159 31.2477 11.3418C31.2477 12.2676 30.4955 13.0199 29.5696 13.0199ZM21.7577 55.2622C22.6835 55.2622 23.4358 56.0145 23.4358 56.9403C23.4358 57.8662 22.6835 58.6184 21.7577 58.6184C20.8318 58.6184 20.0796 57.8662 20.0796 56.9403C20.0796 56.0145 20.8608 55.2622 21.7577 55.2622ZM13.0199 37.3816C13.0199 38.3074 12.2676 39.0597 11.3418 39.0597C10.4159 39.0597 9.66365 38.3074 9.66365 37.3816C9.66365 36.4557 10.4159 35.7034 11.3418 35.7034C12.2676 35.7324 13.0199 36.4846 13.0199 37.3816ZM20.1085 24.3617C20.1085 23.4358 20.8608 22.6835 21.7866 22.6835C22.7125 22.6835 23.4647 23.4358 23.4647 24.3617C23.4647 25.2875 22.7125 26.0398 21.7866 26.0398C20.8608 26.0398 20.1085 25.2875 20.1085 24.3617ZM80 36.0796C80 30.7559 76.0651 25.8951 70.2785 23.8698C71.6094 22.076 72.9982 19.2116 72.9982 16.6655C72.9982 13.4539 71.5805 10.5027 69.0344 8.36166C66.6329 6.36528 63.3924 5.20796 60.123 5.20796H58.8788C57.4611 1.99638 54.2785 0 50.4304 0C50.4304 0 50.4304 0 50.4014 0C47.8843 0 45.6854 0.83906 44.094 2.43038C42.5027 4.0217 41.6637 6.22061 41.6637 8.76673V63.4503C41.6637 68.6004 45.2514 72.1881 50.4014 72.1881C50.4014 72.1881 50.4014 72.1881 50.4304 72.1881C54.2785 72.1881 57.4322 70.2206 58.8499 66.9801H60.094H60.123C63.4213 66.9801 66.575 65.8807 68.9765 63.8553C71.5226 61.7143 72.9114 58.7631 72.9403 55.5805C72.9403 52.9765 71.5805 50.1121 70.2785 48.3183C76.0651 46.2929 80 41.4322 80 36.0796ZM50.4014 27.9204C51.3273 27.9204 52.0796 28.6727 52.0796 29.5986C52.0796 30.5244 51.3273 31.2767 50.4014 31.2767C49.4756 31.2767 48.7233 30.5244 48.7233 29.5986C48.7523 28.6727 49.5045 27.9204 50.4014 27.9204ZM68.5136 46.8716H61.6275C61.2224 45.3671 59.8626 44.2676 58.2134 44.2676C56.2459 44.2676 54.6835 45.859 54.6835 47.7975C54.6835 49.736 56.2749 51.3273 58.2134 51.3273C59.8336 51.3273 61.1935 50.2278 61.6275 48.7233H68.2242C69.4684 50.141 71.0597 53.1212 71.0597 55.5515C71.0597 58.1844 69.9024 60.6438 67.7902 62.4087C65.7649 64.1157 62.9295 65.0416 60.123 65.0995H58.2423C57.8373 65.0995 57.4901 65.3599 57.3454 65.736C56.3327 68.6004 53.7288 70.3074 50.4304 70.3074C48.4051 70.3074 46.6691 69.642 45.425 68.4268C44.1808 67.1826 43.5443 65.4756 43.5443 63.4503V40.9403H49.4756V57.4322C47.9711 57.8373 46.8716 59.1971 46.8716 60.8463C46.8716 62.8137 48.4629 64.3761 50.4014 64.3761C52.34 64.3761 53.9313 62.7848 53.9313 60.8463C53.9313 59.226 52.8318 57.8662 51.3273 57.4322V40.9403H55.6094C57.6926 40.9403 59.1392 39.4937 59.1392 37.4105V35.7324H65.2152C65.6203 37.2369 66.9801 38.3363 68.6293 38.3363C70.5967 38.3363 72.1591 36.745 72.1591 34.8065C72.1591 32.868 70.5967 31.2477 68.6293 31.2477C67.009 31.2477 65.6492 32.3472 65.2152 33.8517H59.1392V18.6618C60.6438 18.2568 61.7432 16.8969 61.7432 15.2767C61.7432 13.3092 60.1519 11.7468 58.2134 11.7468C56.2749 11.7468 54.6835 13.3092 54.6835 15.2477C54.6835 16.868 55.783 18.2278 57.2875 18.6329V37.3816C57.2875 38.4231 56.6799 39.0597 55.6383 39.0597H43.5443V8.73779C43.5443 6.71248 44.2098 4.97649 45.425 3.73237C46.4665 2.69078 47.8553 2.11212 49.4756 1.93852V26.1555C47.9711 26.5606 46.8716 27.9204 46.8716 29.5407C46.8716 31.5081 48.4629 33.0705 50.4014 33.0705C52.34 33.0705 53.9313 31.4792 53.9313 29.5407C53.9313 27.9204 52.8318 26.5606 51.3273 26.1555V1.93852C54.1917 2.22785 56.4195 3.87703 57.3165 6.45208C57.4611 6.82821 57.8083 7.08861 58.2134 7.08861H60.094C62.9295 7.08861 65.736 8.07233 67.7902 9.80832C69.9313 11.6022 71.0886 14.0326 71.0886 16.6944C71.0886 19.2116 69.2369 22.4521 67.9638 23.7251C67.7324 23.9566 67.6456 24.3038 67.7324 24.651C67.8192 24.9693 68.0796 25.2297 68.3978 25.3165C74.1266 26.792 78.1194 31.2477 78.1194 36.1374C78.1194 40.9693 74.1555 45.396 68.5136 46.8716ZM59.8915 47.7975C59.8915 48.7233 59.1392 49.4756 58.2134 49.4756C57.2875 49.4756 56.5353 48.7233 56.5353 47.7975C56.5353 46.8716 57.2875 46.1193 58.2134 46.1193C59.1392 46.1193 59.8915 46.9005 59.8915 47.7975ZM50.4014 59.1682C51.3273 59.1682 52.0796 59.9204 52.0796 60.8463C52.0796 61.7722 51.3273 62.5244 50.4014 62.5244C49.4756 62.5244 48.7233 61.7722 48.7233 60.8463C48.7233 59.9204 49.5045 59.1682 50.4014 59.1682ZM58.2134 16.9259C57.2875 16.9259 56.5353 16.1736 56.5353 15.2477C56.5353 14.3219 57.2875 13.5696 58.2134 13.5696C59.1392 13.5696 59.8915 14.3219 59.8915 15.2477C59.8915 16.1736 59.1392 16.9259 58.2134 16.9259ZM66.9801 34.7776C66.9801 33.8517 67.7324 33.0995 68.6582 33.0995C69.5841 33.0995 70.3363 33.8517 70.3363 34.7776C70.3363 35.7034 69.5841 36.4557 68.6582 36.4557C67.7324 36.4557 66.9801 35.7034 66.9801 34.7776Z" fill="#5AC8FF"/>
</svg>
