<svg xmlns="http://www.w3.org/2000/svg" xmlns:xlink="http://www.w3.org/1999/xlink" width="54" zoomAndPan="magnify" viewBox="0 0 40.5 40.5" height="54" preserveAspectRatio="xMidYMid meet" version="1.0"><defs><clipPath id="39e9dd7770"><path d="M 0 1.78125 L 40 1.78125 L 40 38 L 0 38 Z M 0 1.78125 " clip-rule="nonzero"/></clipPath></defs><g clip-path="url(#39e9dd7770)"><path fill="#508167" d="M 14.796875 1.78125 C 12.875 1.78125 11.300781 2.765625 10.578125 4.382812 L 9.945312 4.382812 C 8.296875 4.382812 6.722656 4.929688 5.523438 5.941406 C 4.253906 7.011719 3.558594 8.484375 3.558594 10.074219 C 3.558594 11.371094 4.238281 12.800781 4.886719 13.699219 C 2 14.707031 0.0351562 17.136719 0.0351562 19.792969 C 0.0351562 22.449219 2 24.875 4.886719 25.886719 C 4.222656 26.78125 3.53125 28.214844 3.53125 29.484375 C 3.53125 32.632812 6.40625 35.203125 9.957031 35.21875 L 10.578125 35.21875 C 11.285156 36.820312 12.875 37.816406 14.796875 37.816406 C 14.796875 37.816406 14.796875 37.816406 14.8125 37.816406 C 17.367188 37.816406 19.171875 36.027344 19.171875 33.457031 L 19.171875 6.160156 C 19.171875 3.585938 17.382812 1.78125 14.796875 1.78125 Z M 14.796875 23.878906 C 14.335938 23.878906 13.957031 23.503906 13.957031 23.042969 C 13.957031 22.582031 14.335938 22.203125 14.796875 22.203125 C 15.257812 22.203125 15.632812 22.582031 15.632812 23.042969 C 15.632812 23.503906 15.257812 23.878906 14.796875 23.878906 Z M 18.234375 17.378906 L 15.273438 17.378906 L 15.273438 9.148438 C 16.023438 8.945312 16.574219 8.265625 16.574219 7.457031 C 16.574219 6.476562 15.777344 5.695312 14.8125 5.695312 C 13.84375 5.695312 13.035156 6.476562 13.035156 7.445312 C 13.035156 8.253906 13.582031 8.929688 14.335938 9.132812 L 14.335938 17.367188 L 12.195312 17.367188 C 11.15625 17.378906 10.433594 18.101562 10.433594 19.144531 L 10.433594 19.980469 L 7.402344 19.980469 C 7.199219 19.230469 6.519531 18.679688 5.710938 18.679688 C 4.730469 18.679688 3.949219 19.476562 3.949219 20.441406 C 3.949219 21.425781 4.742188 22.203125 5.710938 22.203125 C 6.519531 22.203125 7.199219 21.65625 7.402344 20.90625 L 10.433594 20.90625 L 10.433594 28.5 C 9.683594 28.703125 9.132812 29.382812 9.132812 30.207031 C 9.132812 31.1875 9.929688 31.96875 10.898438 31.96875 C 11.863281 31.96875 12.660156 31.171875 12.660156 30.207031 C 12.660156 29.398438 12.109375 28.71875 11.359375 28.5 L 11.359375 19.15625 C 11.359375 18.636719 11.675781 18.320312 12.195312 18.320312 L 18.234375 18.320312 L 18.234375 33.457031 C 18.234375 35.347656 17.050781 36.648438 15.273438 36.851562 L 15.273438 24.746094 C 16.023438 24.542969 16.574219 23.867188 16.574219 23.042969 C 16.574219 22.058594 15.777344 21.28125 14.8125 21.28125 C 13.84375 21.28125 13.035156 22.074219 13.035156 23.042969 C 13.035156 23.851562 13.582031 24.53125 14.335938 24.746094 L 14.335938 36.851562 C 12.902344 36.707031 11.792969 35.882812 11.34375 34.597656 C 11.273438 34.410156 11.097656 34.277344 10.898438 34.277344 L 9.957031 34.277344 C 7.316406 34.277344 4.457031 32.445312 4.457031 29.484375 C 4.457031 28.226562 5.378906 26.609375 6.03125 25.972656 C 6.144531 25.859375 6.1875 25.683594 6.144531 25.527344 C 6.101562 25.367188 5.972656 25.238281 5.8125 25.195312 C 2.96875 24.457031 0.972656 22.246094 0.972656 19.792969 C 0.972656 17.351562 2.953125 15.140625 5.785156 14.40625 L 9.222656 14.40625 C 9.421875 15.15625 10.101562 15.707031 10.910156 15.707031 C 11.894531 15.707031 12.671875 14.910156 12.671875 13.941406 C 12.671875 12.976562 11.878906 12.179688 10.898438 12.179688 C 10.085938 12.179688 9.410156 12.730469 9.207031 13.480469 L 5.914062 13.480469 C 5.292969 12.773438 4.5 11.285156 4.5 10.074219 C 4.5 8.757812 5.074219 7.53125 6.128906 6.648438 C 7.140625 5.796875 8.527344 5.304688 9.945312 5.304688 C 9.945312 5.304688 9.945312 5.304688 9.957031 5.304688 L 10.898438 5.304688 C 11.097656 5.304688 11.273438 5.175781 11.34375 4.988281 C 11.851562 3.558594 13.148438 2.707031 14.796875 2.707031 C 16.847656 2.707031 18.234375 4.09375 18.234375 6.144531 Z M 14.796875 8.28125 C 14.335938 8.28125 13.957031 7.90625 13.957031 7.445312 C 13.957031 6.980469 14.335938 6.605469 14.796875 6.605469 C 15.257812 6.605469 15.632812 6.980469 15.632812 7.445312 C 15.632812 7.90625 15.257812 8.28125 14.796875 8.28125 Z M 10.898438 29.367188 C 11.359375 29.367188 11.734375 29.742188 11.734375 30.207031 C 11.734375 30.667969 11.359375 31.042969 10.898438 31.042969 C 10.433594 31.042969 10.058594 30.667969 10.058594 30.207031 C 10.058594 29.742188 10.449219 29.367188 10.898438 29.367188 Z M 6.535156 20.441406 C 6.535156 20.90625 6.160156 21.28125 5.695312 21.28125 C 5.234375 21.28125 4.859375 20.90625 4.859375 20.441406 C 4.859375 19.980469 5.234375 19.605469 5.695312 19.605469 C 6.160156 19.621094 6.535156 19.996094 6.535156 20.441406 Z M 10.074219 13.941406 C 10.074219 13.480469 10.449219 13.105469 10.910156 13.105469 C 11.375 13.105469 11.75 13.480469 11.75 13.941406 C 11.75 14.40625 11.375 14.78125 10.910156 14.78125 C 10.449219 14.78125 10.074219 14.40625 10.074219 13.941406 Z M 39.96875 19.792969 C 39.96875 17.136719 38.007812 14.707031 35.117188 13.699219 C 35.78125 12.800781 36.476562 11.371094 36.476562 10.101562 C 36.476562 8.5 35.769531 7.023438 34.496094 5.957031 C 33.296875 4.960938 31.679688 4.382812 30.046875 4.382812 L 29.425781 4.382812 C 28.71875 2.777344 27.128906 1.78125 25.210938 1.78125 C 25.210938 1.78125 25.210938 1.78125 25.195312 1.78125 C 23.9375 1.78125 22.839844 2.199219 22.046875 2.996094 C 21.253906 3.789062 20.832031 4.886719 20.832031 6.160156 L 20.832031 33.457031 C 20.832031 36.027344 22.625 37.816406 25.195312 37.816406 C 25.195312 37.816406 25.195312 37.816406 25.210938 37.816406 C 27.128906 37.816406 28.703125 36.835938 29.414062 35.21875 L 30.046875 35.21875 C 31.695312 35.21875 33.269531 34.667969 34.46875 33.65625 C 35.738281 32.589844 36.433594 31.117188 36.445312 29.527344 C 36.445312 28.226562 35.769531 26.796875 35.117188 25.902344 C 38.007812 24.890625 39.96875 22.464844 39.96875 19.792969 Z M 25.195312 15.71875 C 25.65625 15.71875 26.03125 16.09375 26.03125 16.558594 C 26.03125 17.019531 25.65625 17.394531 25.195312 17.394531 C 24.734375 17.394531 24.359375 17.019531 24.359375 16.558594 C 24.371094 16.09375 24.746094 15.71875 25.195312 15.71875 Z M 34.238281 25.179688 L 30.800781 25.179688 C 30.597656 24.429688 29.917969 23.878906 29.09375 23.878906 C 28.113281 23.878906 27.332031 24.675781 27.332031 25.640625 C 27.332031 26.609375 28.128906 27.402344 29.09375 27.402344 C 29.902344 27.402344 30.582031 26.855469 30.800781 26.105469 L 34.09375 26.105469 C 34.714844 26.8125 35.507812 28.300781 35.507812 29.511719 C 35.507812 30.828125 34.929688 32.054688 33.875 32.9375 C 32.863281 33.789062 31.449219 34.25 30.046875 34.277344 L 29.109375 34.277344 C 28.90625 34.277344 28.734375 34.410156 28.660156 34.597656 C 28.15625 36.027344 26.855469 36.878906 25.210938 36.878906 C 24.199219 36.878906 23.332031 36.546875 22.710938 35.941406 C 22.089844 35.320312 21.773438 34.464844 21.773438 33.457031 L 21.773438 22.21875 L 24.734375 22.21875 L 24.734375 30.453125 C 23.980469 30.652344 23.433594 31.332031 23.433594 32.15625 C 23.433594 33.136719 24.226562 33.917969 25.195312 33.917969 C 26.164062 33.917969 26.957031 33.125 26.957031 32.15625 C 26.957031 31.347656 26.410156 30.667969 25.65625 30.453125 L 25.65625 22.21875 L 27.796875 22.21875 C 28.835938 22.21875 29.558594 21.496094 29.558594 20.457031 L 29.558594 19.621094 L 32.589844 19.621094 C 32.792969 20.371094 33.472656 20.917969 34.292969 20.917969 C 35.277344 20.917969 36.054688 20.125 36.054688 19.15625 C 36.054688 18.1875 35.277344 17.378906 34.292969 17.378906 C 33.484375 17.378906 32.808594 17.929688 32.589844 18.679688 L 29.558594 18.679688 L 29.558594 11.097656 C 30.308594 10.894531 30.855469 10.21875 30.855469 9.40625 C 30.855469 8.425781 30.0625 7.644531 29.09375 7.644531 C 28.128906 7.644531 27.332031 8.425781 27.332031 9.394531 C 27.332031 10.203125 27.882812 10.882812 28.632812 11.082031 L 28.632812 20.441406 C 28.632812 20.960938 28.328125 21.28125 27.808594 21.28125 L 21.773438 21.28125 L 21.773438 6.144531 C 21.773438 5.132812 22.105469 4.265625 22.710938 3.644531 C 23.230469 3.125 23.925781 2.835938 24.734375 2.75 L 24.734375 14.839844 C 23.980469 15.039062 23.433594 15.71875 23.433594 16.527344 C 23.433594 17.511719 24.226562 18.289062 25.195312 18.289062 C 26.164062 18.289062 26.957031 17.496094 26.957031 16.527344 C 26.957031 15.71875 26.410156 15.039062 25.65625 14.839844 L 25.65625 2.75 C 27.085938 2.894531 28.199219 3.71875 28.648438 5.003906 C 28.71875 5.191406 28.894531 5.320312 29.09375 5.320312 L 30.035156 5.320312 C 31.449219 5.320312 32.851562 5.8125 33.875 6.679688 C 34.945312 7.574219 35.523438 8.785156 35.523438 10.117188 C 35.523438 11.371094 34.597656 12.988281 33.960938 13.625 C 33.847656 13.742188 33.804688 13.914062 33.847656 14.085938 C 33.890625 14.246094 34.019531 14.375 34.179688 14.417969 C 37.039062 15.15625 39.03125 17.378906 39.03125 19.820312 C 39.03125 22.234375 37.054688 24.441406 34.238281 25.179688 Z M 29.933594 25.640625 C 29.933594 26.105469 29.558594 26.480469 29.09375 26.480469 C 28.632812 26.480469 28.257812 26.105469 28.257812 25.640625 C 28.257812 25.179688 28.632812 24.804688 29.09375 24.804688 C 29.558594 24.804688 29.933594 25.195312 29.933594 25.640625 Z M 25.195312 31.316406 C 25.65625 31.316406 26.03125 31.695312 26.03125 32.15625 C 26.03125 32.617188 25.65625 32.992188 25.195312 32.992188 C 24.734375 32.992188 24.359375 32.617188 24.359375 32.15625 C 24.359375 31.695312 24.746094 31.316406 25.195312 31.316406 Z M 29.09375 10.230469 C 28.632812 10.230469 28.257812 9.855469 28.257812 9.394531 C 28.257812 8.929688 28.632812 8.554688 29.09375 8.554688 C 29.558594 8.554688 29.933594 8.929688 29.933594 9.394531 C 29.933594 9.855469 29.558594 10.230469 29.09375 10.230469 Z M 33.472656 19.144531 C 33.472656 18.679688 33.847656 18.304688 34.308594 18.304688 C 34.769531 18.304688 35.148438 18.679688 35.148438 19.144531 C 35.148438 19.605469 34.769531 19.980469 34.308594 19.980469 C 33.847656 19.980469 33.472656 19.605469 33.472656 19.144531 Z M 33.472656 19.144531 " fill-opacity="1" fill-rule="nonzero"/></g></svg>