<svg width="54" height="56" viewBox="0 0 54 56" fill="none" xmlns="http://www.w3.org/2000/svg">
<path d="M8.64284 39.2799H45.9986V16.4938C45.9986 15.5796 45.2548 14.8358 44.3406 14.8358H10.3008C9.38669 14.8358 8.64284 15.5796 8.64284 16.4938V39.2799ZM46.1013 39.4853H8.54017C8.48596 39.4853 8.4375 39.4368 8.4375 39.3826V16.4938C8.4375 15.4653 9.27241 14.6304 10.3008 14.6304H44.3406C45.3691 14.6304 46.204 15.4653 46.204 16.4938V39.3826C46.204 39.4368 46.1556 39.4853 46.1013 39.4853Z" fill="#5AC8FF"/>
<path d="M19.2068 46.3226H35.4345V43.0066H19.2068V46.3226ZM35.5372 46.528H19.1042C19.05 46.528 19.0015 46.4796 19.0015 46.4253V42.904C19.0015 42.8498 19.05 42.8013 19.1042 42.8013H35.5372C35.5914 42.8013 35.6399 42.8498 35.6399 42.904V46.4253C35.6399 46.4796 35.5914 46.528 35.5372 46.528Z" fill="#5AC8FF"/>
<path d="M8.64284 39.4853V41.1433C8.64284 42.0574 9.38669 42.8013 10.3008 42.8013H44.3406C45.2548 42.8013 45.9986 42.0574 45.9986 41.1433V39.4853H8.64284ZM44.3406 43.0066H10.3008C9.27241 43.0066 8.4375 42.1718 8.4375 41.1433V39.3826C8.4375 39.3284 8.48596 39.2799 8.54017 39.2799H46.1013C46.1556 39.2799 46.204 39.3284 46.204 39.3826V41.1433C46.204 42.1718 45.3691 43.0066 44.3406 43.0066Z" fill="#5AC8FF"/>
<path d="M41.4063 46.528H13.2355C13.1812 46.528 13.1328 46.4796 13.1328 46.4253C13.1328 46.3711 13.1812 46.3226 13.2355 46.3226H41.4063C41.4606 46.3226 41.509 46.3711 41.509 46.4253C41.509 46.4796 41.4606 46.528 41.4063 46.528Z" fill="#5AC8FF"/>
<path d="M27.57 41.1434C27.57 41.2811 27.4583 41.3928 27.3205 41.3928C27.1828 41.3928 27.0712 41.2811 27.0712 41.1434C27.0712 41.0057 27.1828 40.894 27.3205 40.894C27.4583 40.894 27.57 41.0057 27.57 41.1434Z" fill="#5AC8FF"/>
<path d="M34.5389 1.38146L34.5416 1.3858L41.0023 11.5961C41.0022 11.596 41.0025 11.5963 41.0023 11.5961C41.0204 11.6256 41.0255 11.6692 41.0009 11.7144L40.9998 11.7161L40.993 11.7278L40.9687 11.7701C40.9481 11.8063 40.9187 11.8584 40.8818 11.9253C40.808 12.0592 40.7042 12.2526 40.5795 12.4987C40.3303 12.9906 39.9975 13.6935 39.6553 14.5509C38.9723 16.2626 38.2468 18.6031 38.082 21.1179C38.0793 21.1501 38.066 21.1736 38.0496 21.1889C38.033 21.2044 38.0095 21.2154 37.9785 21.2154H30.9299C30.8777 21.2154 30.8315 21.1757 30.8264 21.1175C30.6615 18.5999 29.9361 16.2596 29.2531 14.5486C28.9109 13.6916 28.5781 12.9893 28.3288 12.4977C28.2041 12.2519 28.1003 12.0586 28.0265 11.9249C27.9896 11.858 27.9603 11.8061 27.9396 11.7699L27.9153 11.7277L27.9085 11.7159C27.9077 11.7148 27.9073 11.714 27.907 11.7134L27.9055 11.7109C27.8849 11.6756 27.8861 11.6285 27.9057 11.5967C27.9056 11.5969 27.9059 11.5965 27.9057 11.5967L34.3663 1.38652C34.3674 1.38536 34.3688 1.38377 34.3709 1.38162L34.3847 1.36769C34.4044 1.34807 34.4303 1.3374 34.4571 1.3374C34.4979 1.3374 34.5245 1.35698 34.5363 1.37703L34.5389 1.38146ZM40.697 11.8341L40.7949 11.6589L34.4573 1.63634L28.1138 11.6583L28.211 11.8334C28.7375 12.7823 30.6234 16.4182 30.9986 20.7079L31.0256 21.0159H37.8824L37.9097 20.7083C38.2908 16.4121 40.1713 12.7759 40.697 11.8341Z" fill="#5AC8FF"/>
<path d="M33.0753 13.5222L33.0764 13.5234C33.8412 14.281 35.0752 14.2826 35.8356 13.5222C36.5954 12.7625 36.5954 11.5217 35.8356 10.7619C35.0759 10.0022 33.8351 10.0022 33.0753 10.7619C32.3155 11.5217 32.3155 12.7625 33.0753 13.5222ZM32.9305 10.6171C33.7729 9.77475 35.138 9.77475 35.9805 10.6171C36.8229 11.4596 36.8229 12.8246 35.9805 13.6671C35.1381 14.5094 33.7733 14.5095 32.9309 13.6674C32.0933 12.8244 32.0945 11.4532 32.9305 10.6171Z" fill="#5AC8FF"/>
<path d="M34.3847 1.36769C34.4061 1.34633 34.4269 1.3374 34.4571 1.3374C34.5114 1.3374 34.5598 1.38584 34.5598 1.44007V10.085C34.5598 10.1393 34.5114 10.1877 34.4571 10.1877C34.4029 10.1877 34.3545 10.1393 34.3545 10.085V1.44007C34.3545 1.40977 34.3634 1.38903 34.3847 1.36769Z" fill="#5AC8FF"/>
<path d="M40.0726 24.6634L40.0737 24.6653C40.0929 24.6993 40.0875 24.7355 40.0768 24.7523L40.0721 24.7598L40.0678 24.7674C40.0546 24.7908 40.0235 24.8131 39.9801 24.8131H28.9231C28.8866 24.8131 28.8531 24.7961 28.8299 24.758C28.8144 24.7326 28.8096 24.6971 28.8319 24.6552L30.8077 21.0975C30.8192 21.0853 30.8283 21.0747 30.8342 21.0678C30.8391 21.0621 30.8422 21.0584 30.8445 21.0556C30.8473 21.0524 30.8493 21.05 30.8526 21.0462C30.8563 21.0419 30.8578 21.0404 30.8579 21.0403C30.8775 21.0207 30.9033 21.0101 30.9303 21.0101H37.9788C38.0132 21.0101 38.0485 21.0306 38.0662 21.0612C38.066 21.061 38.0662 21.0613 38.0662 21.0612L40.0726 24.6634ZM37.9191 21.2213H30.99L29.1005 24.6196H39.8086L37.9191 21.2213Z" fill="#5AC8FF"/>
<path d="M38.3298 50.7985L38.3296 50.8024C38.3287 50.8194 38.3206 50.8424 38.2988 50.8642L34.531 54.632C34.5114 54.6516 34.4854 54.6623 34.4585 54.6623C34.4317 54.6623 34.4057 54.6516 34.3861 54.632L30.6183 50.8642C30.5965 50.8424 30.5884 50.8194 30.5875 50.8024L30.5873 50.7985L30.3645 47.4809C30.3634 47.4447 30.3753 47.4184 30.3916 47.4009L30.4094 47.3819C30.4253 47.3723 30.4433 47.3673 30.4618 47.3673H38.4494C38.4768 47.3673 38.5056 47.3796 38.5255 47.4009C38.5417 47.4184 38.5537 47.4448 38.5525 47.4809L38.3298 50.7985ZM38.341 47.5726H30.5761L30.7909 50.7471L34.4585 54.4211L38.1262 50.7471L38.341 47.5726Z" fill="#5AC8FF"/>
<path d="M39.8782 24.819H29.0382L30.5628 47.3675H38.3597L39.8782 24.819ZM28.8573 24.6439C28.8769 24.6244 28.9029 24.6137 28.9297 24.6137H39.9868C40.0143 24.6137 40.043 24.626 40.0629 24.6474C40.0791 24.6648 40.0911 24.6911 40.0899 24.7273L38.5528 47.4737C38.5527 47.4741 38.5528 47.4744 38.5527 47.4747C38.5477 47.5331 38.5015 47.5729 38.4491 47.5729H30.4615C30.4123 47.5729 30.3628 47.5302 30.3579 47.4747C30.3579 47.4743 30.3579 47.474 30.3578 47.4737L28.8207 24.7272C28.8199 24.7019 28.8255 24.6814 28.8346 24.6653C28.839 24.6616 28.8425 24.6582 28.8452 24.6558C28.8509 24.6504 28.8561 24.6452 28.8573 24.6439C28.8574 24.6439 28.8573 24.644 28.8573 24.6439Z" fill="#5AC8FF"/>
<path d="M33.552 36.9687C34.0481 36.4725 34.8615 36.4725 35.3576 36.9687C35.8538 37.4649 35.8538 38.2782 35.3576 38.7744C34.8615 39.2706 34.0481 39.2706 33.552 38.7744C33.0558 38.2782 33.0558 37.4649 33.552 36.9687ZM35.2129 38.6296C35.6322 38.2103 35.6322 37.5329 35.2129 37.1135C34.7935 36.6941 34.1161 36.6941 33.6967 37.1135C33.2774 37.5329 33.2774 38.2103 33.6967 38.6296C34.1161 39.049 34.7935 39.049 35.2129 38.6296Z" fill="#5AC8FF"/>
<path d="M34.3757 38.9845L34.3803 38.9802L34.3847 38.9758C34.406 38.9545 34.4268 38.9456 34.4571 38.9456C34.5114 38.9456 34.5598 38.994 34.5598 39.0482V47.4701C34.5598 47.5244 34.5114 47.5728 34.4571 47.5728C34.4029 47.5728 34.3545 47.5244 34.3545 47.4701V39.0482C34.3545 39.0106 34.3682 38.9915 34.3757 38.9845Z" fill="#5AC8FF"/>
<path d="M45.7633 38.5873V39.0873H46.2633V38.5873H45.7633ZM8.87717 38.5873H8.37717V39.0873H8.87717V38.5873ZM8.64284 39.2799H8.14284V39.7799H8.64284V39.2799ZM45.9986 39.2799V39.7799H46.4986V39.2799H45.9986ZM19.2068 46.3226H18.7068V46.8226H19.2068V46.3226ZM35.4345 46.3226V46.8226H35.9345V46.3226H35.4345ZM35.4345 43.0066H35.9345V42.5066H35.4345V43.0066ZM19.2068 43.0066V42.5066H18.7068V43.0066H19.2068ZM8.64284 39.4853V38.9853H8.14284V39.4853H8.64284ZM45.9986 39.4853H46.4986V38.9853H45.9986V39.4853ZM24.1942 14.7331C24.1942 14.4569 23.9704 14.2331 23.6942 14.2331C23.4181 14.2331 23.1942 14.4569 23.1942 14.7331H24.1942ZM23.1942 38.9424C23.1942 39.2186 23.4181 39.4424 23.6942 39.4424C23.9704 39.4424 24.1942 39.2186 24.1942 38.9424H23.1942ZM23.6932 20.1867C23.9694 20.1867 24.1932 19.9628 24.1932 19.6867C24.1932 19.4105 23.9694 19.1867 23.6932 19.1867V20.1867ZM8.53967 19.1867C8.26353 19.1867 8.03967 19.4105 8.03967 19.6867C8.03967 19.9628 8.26353 20.1867 8.53967 20.1867V19.1867ZM11.1283 25.7127C10.8521 25.7127 10.6283 25.9366 10.6283 26.2127C10.6283 26.4888 10.8521 26.7127 11.1283 26.7127V25.7127ZM19.1805 26.7127C19.4566 26.7127 19.6805 26.4888 19.6805 26.2127C19.6805 25.9366 19.4566 25.7127 19.1805 25.7127V26.7127ZM11.1283 23.9286C10.8521 23.9286 10.6283 24.1525 10.6283 24.4286C10.6283 24.7048 10.8521 24.9286 11.1283 24.9286V23.9286ZM20.4012 24.9286C20.6774 24.9286 20.9012 24.7048 20.9012 24.4286C20.9012 24.1525 20.6774 23.9286 20.4012 23.9286V24.9286ZM21.487 28.5029C21.7631 28.5029 21.987 28.279 21.987 28.0029C21.987 27.7267 21.7631 27.5029 21.487 27.5029V28.5029ZM11.1283 29.2871C10.8521 29.2871 10.6283 29.511 10.6283 29.7871C10.6283 30.0632 10.8521 30.2871 11.1283 30.2871V29.2871ZM19.1805 30.2871C19.4566 30.2871 19.6805 30.0632 19.6805 29.7871C19.6805 29.511 19.4566 29.2871 19.1805 29.2871V30.2871ZM20.4012 28.5029C20.6774 28.5029 20.9012 28.279 20.9012 28.0029C20.9012 27.7267 20.6774 27.5029 20.4012 27.5029V28.5029ZM11.1283 31.0712C10.8521 31.0712 10.6283 31.295 10.6283 31.5712C10.6283 31.8473 10.8521 32.0712 11.1283 32.0712V31.0712ZM21.487 32.0712C21.7631 32.0712 21.987 31.8473 21.987 31.5712C21.987 31.295 21.7631 31.0712 21.487 31.0712V32.0712ZM34.5389 1.38146L34.1091 1.63712L34.1143 1.64534L34.5389 1.38146ZM34.5416 1.3858L34.1169 1.6497L34.1191 1.65315L34.5416 1.3858ZM41.0009 11.7144L41.43 11.971L41.4351 11.9624L41.4399 11.9536L41.0009 11.7144ZM40.9998 11.7161L40.5707 11.4594L40.5674 11.465L40.9998 11.7161ZM40.993 11.7278L40.5606 11.4768L40.5594 11.4788L40.993 11.7278ZM40.9687 11.7701L40.5351 11.5212L40.5345 11.5222L40.9687 11.7701ZM40.8818 11.9253L40.4439 11.6839L40.4439 11.684L40.8818 11.9253ZM40.5795 12.4987L40.1335 12.2727L40.1335 12.2727L40.5795 12.4987ZM39.6553 14.5509L39.1909 14.3655L39.1909 14.3656L39.6553 14.5509ZM38.082 21.1179L38.5804 21.1597L38.581 21.1506L38.082 21.1179ZM38.0496 21.1889L37.7082 20.8236L37.7081 20.8237L38.0496 21.1889ZM30.8264 21.1175L30.3273 21.1501L30.3283 21.1613L30.8264 21.1175ZM29.2531 14.5486L29.7175 14.3633L29.7174 14.3632L29.2531 14.5486ZM28.3288 12.4977L27.8829 12.7239V12.7239L28.3288 12.4977ZM28.0265 11.9249L28.4643 11.6834L28.4643 11.6833L28.0265 11.9249ZM27.9396 11.7699L28.374 11.5223L28.3729 11.5203L27.9396 11.7699ZM27.9153 11.7277L28.3486 11.4781L28.3478 11.4767L27.9153 11.7277ZM27.9085 11.7159L28.3409 11.465L28.3349 11.4545L28.3283 11.4443L27.9085 11.7159ZM27.907 11.7134L28.3542 11.4898L28.3473 11.4761L28.3396 11.4628L27.907 11.7134ZM27.9055 11.7109L28.3382 11.4602L28.3372 11.4586L27.9055 11.7109ZM34.3663 1.38652L33.9999 1.04629L33.9685 1.08014L33.9438 1.11917L34.3663 1.38652ZM34.3709 1.38162L34.0153 1.03018L34.013 1.03254L34.3709 1.38162ZM34.3847 1.36769L34.0314 1.01394L34.031 1.01424L34.3847 1.36769ZM34.5363 1.37703L34.1055 1.63081L34.1066 1.63265L34.5363 1.37703ZM40.697 11.8341L40.2605 11.5903L40.2605 11.5904L40.697 11.8341ZM40.7949 11.6589L41.2314 11.9027L41.3765 11.643L41.2175 11.3917L40.7949 11.6589ZM34.4573 1.63634L34.8799 1.36912L34.4575 0.701135L34.0348 1.36893L34.4573 1.63634ZM28.1138 11.6583L27.6913 11.3909L27.5326 11.6416L27.6766 11.901L28.1138 11.6583ZM28.211 11.8334L28.6482 11.5908L28.6481 11.5907L28.211 11.8334ZM30.9986 20.7079L31.4967 20.6643L31.4967 20.6643L30.9986 20.7079ZM31.0256 21.0159L30.5275 21.0595L30.5674 21.5159H31.0256V21.0159ZM37.8824 21.0159V21.5159H38.3401L38.3805 21.0601L37.8824 21.0159ZM37.9097 20.7083L37.4116 20.6641L37.4116 20.6641L37.9097 20.7083ZM33.0753 13.5222L33.4393 13.1794L33.4342 13.174L33.4289 13.1686L33.0753 13.5222ZM33.0764 13.5234L32.7124 13.8661L32.7183 13.8725L32.7245 13.8786L33.0764 13.5234ZM35.8356 13.5222L35.4821 13.1686L35.482 13.1687L35.8356 13.5222ZM35.8356 10.7619L35.482 11.1155L35.482 11.1155L35.8356 10.7619ZM32.9305 10.6171L32.577 10.2636L32.9305 10.6171ZM35.9805 10.6171L36.334 10.2636L36.334 10.2636L35.9805 10.6171ZM35.9805 13.6671L36.334 14.0206L36.334 14.0206L35.9805 13.6671ZM32.9309 13.6674L32.5762 14.0198L32.5774 14.021L32.9309 13.6674ZM40.0726 24.6634L39.6356 24.9068L39.6426 24.9185L40.0726 24.6634ZM40.0737 24.6653L40.5092 24.4195L40.5037 24.4102L40.0737 24.6653ZM40.0768 24.7523L39.6551 24.4836L39.6539 24.4856L40.0768 24.7523ZM40.0721 24.7598L39.6492 24.4931L39.6424 24.5039L39.6361 24.515L40.0721 24.7598ZM40.0678 24.7674L40.5028 25.0139L40.5038 25.0122L40.0678 24.7674ZM28.8299 24.758L28.4028 25.0181L28.403 25.0184L28.8299 24.758ZM28.8319 24.6552L28.3947 24.4124L28.3904 24.4206L28.8319 24.6552ZM30.8077 21.0975L30.4433 20.7552L30.4007 20.8005L30.3706 20.8548L30.8077 21.0975ZM30.8342 21.0678L30.4568 20.7398L30.4541 20.743L30.8342 21.0678ZM30.8445 21.0556L30.4643 20.7309L30.4642 20.731L30.8445 21.0556ZM30.8526 21.0462L31.2318 21.3721L31.2318 21.3721L30.8526 21.0462ZM30.8579 21.0403L30.5043 20.6867L30.8579 21.0403ZM37.9191 21.2213L38.3561 20.9784L38.2131 20.7213H37.9191V21.2213ZM30.99 21.2213V20.7213H30.6959L30.553 20.9784L30.99 21.2213ZM29.1005 24.6196L28.6635 24.3766L28.2504 25.1196H29.1005V24.6196ZM39.8086 24.6196V25.1196H40.6587L40.2456 24.3766L39.8086 24.6196ZM38.3298 50.7985L37.8309 50.765L37.8305 50.7722L38.3298 50.7985ZM38.3296 50.8024L38.8288 50.8301L38.8289 50.8287L38.3296 50.8024ZM38.2988 50.8642L37.9453 50.5106L38.2988 50.8642ZM34.531 54.632L34.8845 54.9856L34.531 54.632ZM34.3861 54.632L34.0326 54.9856L34.3861 54.632ZM30.6183 50.8642L30.9718 50.5106L30.6183 50.8642ZM30.5875 50.8024L30.0882 50.8284L30.0883 50.8301L30.5875 50.8024ZM30.5873 50.7985L31.0867 50.7725L31.0862 50.765L30.5873 50.7985ZM30.3645 47.4809L29.8648 47.4967L29.8651 47.5055L29.8657 47.5144L30.3645 47.4809ZM30.3916 47.4009L30.757 47.7423L30.7573 47.742L30.3916 47.4009ZM30.4094 47.3819L30.1516 46.9535L30.0915 46.9896L30.0437 47.0409L30.4094 47.3819ZM38.5255 47.4009L38.8915 47.0603L38.891 47.0597L38.5255 47.4009ZM38.5525 47.4809L39.0514 47.5144L39.052 47.5056L39.0523 47.4968L38.5525 47.4809ZM38.341 47.5726L38.8399 47.6064L38.876 47.0726H38.341V47.5726ZM30.5761 47.5726V47.0726H30.0411L30.0772 47.6064L30.5761 47.5726ZM30.7909 50.7471L30.2921 50.7808L30.3047 50.9677L30.4371 51.1003L30.7909 50.7471ZM34.4585 54.4211L34.1047 54.7743L34.4585 55.1288L34.8124 54.7743L34.4585 54.4211ZM38.1262 50.7471L38.48 51.1003L38.6124 50.9677L38.625 50.7808L38.1262 50.7471ZM39.8782 24.819L40.3771 24.8526L40.4131 24.319H39.8782V24.819ZM29.0382 24.819V24.319H28.5032L28.5393 24.8528L29.0382 24.819ZM30.5628 47.3675L30.0639 47.4013L30.0954 47.8675H30.5628V47.3675ZM38.3597 47.3675V47.8675H38.8272L38.8586 47.4011L38.3597 47.3675ZM40.0629 24.6474L39.6968 24.988L39.6975 24.9887L40.0629 24.6474ZM40.0899 24.7273L40.5888 24.761L40.5894 24.7521L40.5897 24.7432L40.0899 24.7273ZM38.5528 47.4737L39.046 47.5559L39.05 47.5317L39.0517 47.5074L38.5528 47.4737ZM38.5527 47.4747L38.0624 47.3767L38.0569 47.4041L38.0545 47.4321L38.5527 47.4747ZM30.3579 47.4747H29.8579V47.4965L29.8598 47.5182L30.3579 47.4747ZM30.3578 47.4737L29.859 47.5074L29.8612 47.5398L29.8676 47.5717L30.3578 47.4737ZM28.8207 24.7272L28.321 24.7432L28.3213 24.7521L28.3219 24.7609L28.8207 24.7272ZM28.8346 24.6653L28.5083 24.2865L28.4425 24.3432L28.3997 24.4186L28.8346 24.6653ZM28.8452 24.6558L29.1848 25.0228L29.1878 25.02L28.8452 24.6558ZM33.552 36.9687L33.9055 37.3223L33.9055 37.3223L33.552 36.9687ZM35.3576 36.9687L35.0041 37.3223L35.0041 37.3223L35.3576 36.9687ZM33.552 38.7744L33.9055 38.4209L33.9055 38.4209L33.552 38.7744ZM34.3757 38.9845L34.036 38.6176L34.0338 38.6197L34.3757 38.9845ZM34.3803 38.9802L34.72 39.3471L34.7271 39.3406L34.7339 39.3338L34.3803 38.9802ZM45.7633 38.0873H8.87717V39.0873H45.7633V38.0873ZM9.37717 38.5873V16.6405H8.37717V38.5873H9.37717ZM9.37717 16.6405C9.37717 16.0482 9.85744 15.5706 10.447 15.5706V14.5706C9.30698 14.5706 8.37717 15.4941 8.37717 16.6405H9.37717ZM10.447 15.5706H44.2345V14.5706H10.447V15.5706ZM44.2345 15.5706C44.8006 15.5706 45.2633 16.0307 45.2633 16.5994H46.2633C46.2633 15.4764 45.351 14.5706 44.2345 14.5706V15.5706ZM45.2633 16.5994V38.5873H46.2633V16.5994H45.2633ZM46.4986 16.4938C46.4986 15.3035 45.5309 14.3358 44.3406 14.3358V15.3358C44.9786 15.3358 45.4986 15.8557 45.4986 16.4938H46.4986ZM44.3406 14.3358H10.3008V15.3358H44.3406V14.3358ZM10.3008 14.3358C9.11054 14.3358 8.14284 15.3035 8.14284 16.4938H9.14284C9.14284 15.8557 9.66283 15.3358 10.3008 15.3358V14.3358ZM46.1013 38.9853H8.54017V39.9853H46.1013V38.9853ZM8.54017 38.9853C8.66275 38.9853 8.75999 39.0386 8.82206 39.1007C8.88413 39.1628 8.9375 39.26 8.9375 39.3826H7.9375C7.9375 39.7129 8.20982 39.9853 8.54017 39.9853V38.9853ZM8.9375 39.3826V16.4938H7.9375V39.3826H8.9375ZM8.9375 16.4938C8.9375 15.7415 9.54855 15.1304 10.3008 15.1304V14.1304C8.99627 14.1304 7.9375 15.1892 7.9375 16.4938H8.9375ZM10.3008 15.1304H44.3406V14.1304H10.3008V15.1304ZM44.3406 15.1304C45.093 15.1304 45.704 15.7415 45.704 16.4938H46.704C46.704 15.1892 45.6453 14.1304 44.3406 14.1304V15.1304ZM45.704 16.4938V39.3826H46.704V16.4938H45.704ZM45.704 39.3826C45.704 39.2602 45.7572 39.163 45.8193 39.1008C45.8815 39.0386 45.9788 38.9853 46.1013 38.9853V39.9853C46.4319 39.9853 46.704 39.7127 46.704 39.3826H45.704ZM35.5372 46.028H19.1042V47.028H35.5372V46.028ZM19.1042 46.028C19.2266 46.028 19.3238 46.0812 19.386 46.1433C19.4482 46.2055 19.5015 46.3028 19.5015 46.4253H18.5015C18.5015 46.7559 18.774 47.028 19.1042 47.028V46.028ZM19.5015 46.4253V42.904H18.5015V46.4253H19.5015ZM19.5015 42.904C19.5015 43.0265 19.4481 43.1238 19.3861 43.1858C19.324 43.2479 19.2268 43.3013 19.1042 43.3013V42.3013C18.7738 42.3013 18.5015 42.5736 18.5015 42.904H19.5015ZM19.1042 43.3013H35.5372V42.3013H19.1042V43.3013ZM35.5372 43.3013C35.4146 43.3013 35.3174 43.2479 35.2553 43.1858C35.1932 43.1238 35.1399 43.0265 35.1399 42.904H36.1399C36.1399 42.5736 35.8675 42.3013 35.5372 42.3013V43.3013ZM35.1399 42.904V46.4253H36.1399V42.904H35.1399ZM35.1399 46.4253C35.1399 46.3028 35.1932 46.2055 35.2554 46.1433C35.3176 46.0812 35.4148 46.028 35.5372 46.028V47.028C35.8673 47.028 36.1399 46.7559 36.1399 46.4253H35.1399ZM8.14284 41.1433C8.14284 42.3336 9.11054 43.3013 10.3008 43.3013V42.3013C9.66283 42.3013 9.14284 41.7813 9.14284 41.1433H8.14284ZM10.3008 43.3013H44.3406V42.3013H10.3008V43.3013ZM44.3406 43.3013C45.5309 43.3013 46.4986 42.3336 46.4986 41.1433H45.4986C45.4986 41.7813 44.9786 42.3013 44.3406 42.3013V43.3013ZM44.3406 42.5066H10.3008V43.5066H44.3406V42.5066ZM10.3008 42.5066C9.54854 42.5066 8.9375 41.8956 8.9375 41.1433H7.9375C7.9375 42.4479 8.99628 43.5066 10.3008 43.5066V42.5066ZM8.9375 41.1433V39.3826H7.9375V41.1433H8.9375ZM8.9375 39.3826C8.9375 39.5052 8.88412 39.6025 8.82202 39.6645C8.75994 39.7266 8.6627 39.7799 8.54017 39.7799V38.7799C8.20992 38.7799 7.9375 39.0522 7.9375 39.3826H8.9375ZM8.54017 39.7799H46.1013V38.7799H8.54017V39.7799ZM46.1013 39.7799C45.9789 39.7799 45.8816 39.7267 45.8194 39.6645C45.7572 39.6023 45.704 39.505 45.704 39.3826H46.704C46.704 39.0524 46.4318 38.7799 46.1013 38.7799V39.7799ZM45.704 39.3826V41.1433H46.704V39.3826H45.704ZM45.704 41.1433C45.704 41.8956 45.093 42.5066 44.3406 42.5066V43.5066C45.6453 43.5066 46.704 42.4479 46.704 41.1433H45.704ZM41.4063 46.028H13.2355V47.028H41.4063V46.028ZM13.2355 46.028C13.3577 46.028 13.455 46.0811 13.5174 46.1434C13.5797 46.2057 13.6328 46.3031 13.6328 46.4253H12.6328C12.6328 46.7557 12.9051 47.028 13.2355 47.028V46.028ZM13.6328 46.4253C13.6328 46.5477 13.5796 46.6449 13.5175 46.7071C13.4553 46.7693 13.358 46.8226 13.2355 46.8226V45.8226C12.9049 45.8226 12.6328 46.0952 12.6328 46.4253H13.6328ZM13.2355 46.8226H41.4063V45.8226H13.2355V46.8226ZM41.4063 46.8226C41.2839 46.8226 41.1867 46.7694 41.1245 46.7073C41.0624 46.6452 41.009 46.5479 41.009 46.4253H42.009C42.009 46.0947 41.7365 45.8226 41.4063 45.8226V46.8226ZM41.009 46.4253C41.009 46.3028 41.0623 46.2055 41.1246 46.1433C41.1869 46.0811 41.2841 46.028 41.4063 46.028V47.028C41.7363 47.028 42.009 46.7561 42.009 46.4253H41.009ZM27.07 41.1434C27.07 41.005 27.1822 40.8928 27.3205 40.8928V41.8928C27.7345 41.8928 28.07 41.5573 28.07 41.1434H27.07ZM27.3205 40.8928C27.4591 40.8928 27.5712 41.0051 27.5712 41.1434H26.5712C26.5712 41.5572 26.9066 41.8928 27.3205 41.8928V40.8928ZM27.5712 41.1434C27.5712 41.2816 27.4592 41.394 27.3205 41.394V40.394C26.9065 40.394 26.5712 40.7297 26.5712 41.1434H27.5712ZM27.3205 41.394C27.1821 41.394 27.07 41.2817 27.07 41.1434H28.07C28.07 40.7296 27.7345 40.394 27.3205 40.394V41.394ZM23.1942 14.7331V38.9424H24.1942V14.7331H23.1942ZM23.6932 19.1867H8.53967V20.1867H23.6932V19.1867ZM11.4163 18.9364C12.3278 18.9364 13.0667 18.1975 13.0667 17.2861H12.0667C12.0667 17.6453 11.7755 17.9364 11.4163 17.9364V18.9364ZM13.0667 17.2861C13.0667 16.3746 12.3277 15.6358 11.4163 15.6358V16.6358C11.7755 16.6358 12.0667 16.927 12.0667 17.2861H13.0667ZM11.4163 15.6358C10.505 15.6358 9.76606 16.3746 9.76606 17.2861H10.7661C10.7661 16.9269 11.0572 16.6358 11.4163 16.6358V15.6358ZM9.76606 17.2861C9.76606 18.1975 10.5049 18.9364 11.4163 18.9364V17.9364C11.0573 17.9364 10.7661 17.6453 10.7661 17.2861H9.76606ZM15.4419 18.9364C16.3534 18.9364 17.0923 18.1975 17.0923 17.2861H16.0923C16.0923 17.6453 15.8011 17.9364 15.4419 17.9364V18.9364ZM17.0923 17.2861C17.0923 16.3746 16.3534 15.6358 15.4419 15.6358V16.6358C15.8011 16.6358 16.0923 16.927 16.0923 17.2861H17.0923ZM15.4419 15.6358C14.5305 15.6358 13.7917 16.3746 13.7917 17.2861H14.7917C14.7917 16.9269 15.0828 16.6358 15.4419 16.6358V15.6358ZM13.7917 17.2861C13.7917 18.1975 14.5305 18.9364 15.4419 18.9364V17.9364C15.0828 17.9364 14.7917 17.6453 14.7917 17.2861H13.7917ZM19.4741 18.9364C20.3856 18.9364 21.1245 18.1975 21.1245 17.2861H20.1245C20.1245 17.6453 19.8333 17.9364 19.4741 17.9364V18.9364ZM21.1245 17.2861C21.1245 16.3746 20.3856 15.6358 19.4741 15.6358V16.6358C19.8334 16.6358 20.1245 16.927 20.1245 17.2861H21.1245ZM19.4741 15.6358C18.5628 15.6358 17.8239 16.3746 17.8239 17.2861H18.8239C18.8239 16.9269 19.115 16.6358 19.4741 16.6358V15.6358ZM17.8239 17.2861C17.8239 18.1975 18.5627 18.9364 19.4741 18.9364V17.9364C19.1151 17.9364 18.8239 17.6453 18.8239 17.2861H17.8239ZM11.1283 26.7127H19.1805V25.7127H11.1283V26.7127ZM11.1283 24.9286H20.4012V23.9286H11.1283V24.9286ZM11.1283 28.5029H21.487V27.5029H11.1283V28.5029ZM11.1283 30.2871H19.1805V29.2871H11.1283V30.2871ZM11.1283 28.5029H20.4012V27.5029H11.1283V28.5029ZM11.1283 32.0712H21.487V31.0712H11.1283V32.0712ZM34.1143 1.64534L34.117 1.64969L34.9663 1.12191L34.9636 1.11757L34.1143 1.64534ZM34.1191 1.65315L40.5798 11.8635L41.4249 11.3288L34.9642 1.11845L34.1191 1.65315ZM40.5863 11.8735C40.5847 11.871 40.5822 11.8673 40.5793 11.8627C40.5768 11.8587 40.5716 11.8504 40.5656 11.8395C40.5625 11.834 40.5576 11.8249 40.5521 11.8135C40.5492 11.8076 40.5456 11.7997 40.5416 11.7903C40.5378 11.7812 40.5324 11.7678 40.527 11.7511C40.522 11.7359 40.5139 11.7085 40.5084 11.6733C40.5055 11.6552 40.5027 11.6304 40.5024 11.6008C40.5021 11.5718 40.5043 11.5306 40.5154 11.4826C40.5267 11.4343 40.5492 11.3709 40.5945 11.307C40.6173 11.2748 40.6451 11.2437 40.6782 11.2156C40.7112 11.1874 40.7473 11.1641 40.7851 11.1459C40.861 11.1092 40.9336 11.0977 40.9905 11.0963C41.0461 11.095 41.092 11.1032 41.1236 11.1111C41.1559 11.1192 41.1821 11.1292 41.2007 11.1372C41.2198 11.1455 41.2356 11.1537 41.2475 11.1604C41.2706 11.1734 41.2882 11.1857 41.2988 11.1935C41.3198 11.209 41.3351 11.2228 41.342 11.2293C41.3569 11.243 41.3677 11.2547 41.3717 11.2592C41.3815 11.2698 41.3888 11.2788 41.3928 11.2838C41.3972 11.2893 41.403 11.2969 41.4096 11.306C41.4127 11.3105 41.4181 11.3182 41.4244 11.328C41.4275 11.333 41.4321 11.3404 41.4373 11.3495C41.4419 11.3576 41.4503 11.373 41.4592 11.393C41.4638 11.4033 41.4701 11.4184 41.4764 11.4371C41.4822 11.4545 41.4913 11.4846 41.497 11.5232C41.4999 11.5432 41.5026 11.5696 41.5023 11.6008C41.502 11.6316 41.4988 11.673 41.4867 11.7202C41.4744 11.7681 41.452 11.8259 41.4113 11.8837C41.3696 11.943 41.3146 11.9937 41.2493 12.0308C41.1854 12.0671 41.1224 12.0844 41.0694 12.0916C41.0174 12.0986 40.9727 12.0963 40.9397 12.0921C40.9063 12.0879 40.8785 12.081 40.8579 12.0748C40.8369 12.0685 40.8193 12.0616 40.8057 12.0558C40.7793 12.0445 40.7589 12.0331 40.7462 12.0255C40.7328 12.0175 40.722 12.0102 40.7143 12.0048C40.6994 11.9943 40.6881 11.9851 40.6817 11.9798C40.6747 11.9739 40.6691 11.9689 40.6653 11.9654C40.6577 11.9585 40.652 11.9528 40.6488 11.9497L41.3559 11.2426C41.3527 11.2394 41.3469 11.2337 41.3394 11.2268C41.3355 11.2233 41.3299 11.2182 41.3229 11.2124C41.3166 11.2071 41.3052 11.1979 41.2903 11.1873C41.2826 11.182 41.2718 11.1746 41.2584 11.1667C41.2457 11.1591 41.2253 11.1476 41.1989 11.1363C41.1853 11.1305 41.1677 11.1237 41.1467 11.1174C41.1261 11.1112 41.0983 11.1042 41.0649 11.1C41.0319 11.0959 40.9872 11.0936 40.9352 11.1006C40.8822 11.1078 40.8192 11.1251 40.7553 11.1614C40.69 11.1985 40.635 11.2491 40.5933 11.3085C40.5527 11.3663 40.5302 11.4241 40.518 11.472C40.5058 11.5192 40.5026 11.5606 40.5023 11.5914C40.502 11.6226 40.5047 11.649 40.5076 11.669C40.5133 11.7076 40.5224 11.7377 40.5282 11.755C40.5345 11.7738 40.5408 11.7889 40.5454 11.7992C40.5543 11.8192 40.5627 11.8346 40.5674 11.8427C40.5725 11.8518 40.5771 11.8592 40.5803 11.8642C40.5865 11.874 40.5919 11.8817 40.5951 11.8862C40.6016 11.8954 40.6075 11.9029 40.6119 11.9085C40.6159 11.9135 40.6233 11.9225 40.633 11.9332C40.6371 11.9376 40.6478 11.9493 40.6627 11.9631C40.6697 11.9696 40.6849 11.9834 40.7059 11.9988C40.7166 12.0067 40.7342 12.019 40.7573 12.032C40.7692 12.0387 40.785 12.0469 40.804 12.0552C40.8227 12.0632 40.8488 12.0732 40.8811 12.0813C40.9128 12.0892 40.9586 12.0974 41.0143 12.096C41.0711 12.0947 41.1437 12.0831 41.2197 12.0465C41.2575 12.0283 41.2935 12.005 41.3266 11.9768C41.3597 11.9487 41.3874 11.9176 41.4103 11.8854C41.4556 11.8214 41.478 11.7581 41.4893 11.7097C41.5005 11.6617 41.5026 11.6205 41.5024 11.5916C41.5021 11.562 41.4992 11.5372 41.4964 11.519C41.4909 11.4839 41.4827 11.4565 41.4778 11.4412C41.4723 11.4246 41.467 11.4111 41.4632 11.4021C41.4592 11.3926 41.4555 11.3848 41.4527 11.3789C41.4472 11.3674 41.4423 11.3584 41.4392 11.3529C41.4331 11.342 41.4279 11.3336 41.4254 11.3296C41.4225 11.325 41.42 11.3212 41.4184 11.3188L40.5863 11.8735ZM40.5761 11.8575C40.4992 11.7321 40.5021 11.5847 40.5618 11.4752L41.4399 11.9536C41.5488 11.7536 41.5417 11.5191 41.4286 11.3347L40.5761 11.8575ZM40.5717 11.4578L40.5707 11.4594L41.429 11.9727L41.43 11.971L40.5717 11.4578ZM40.5674 11.465L40.5606 11.4768L41.4254 11.9788L41.4323 11.9671L40.5674 11.465ZM40.5594 11.4788L40.5351 11.5212L41.4023 12.0191L41.4266 11.9768L40.5594 11.4788ZM40.5345 11.5222C40.5127 11.5605 40.4821 11.6147 40.4439 11.6839L41.3196 12.1668C41.3553 12.102 41.3835 12.0521 41.4029 12.018L40.5345 11.5222ZM40.4439 11.684C40.3675 11.8225 40.261 12.0211 40.1335 12.2727L41.0255 12.7247C41.1474 12.4842 41.2485 12.2958 41.3197 12.1667L40.4439 11.684ZM40.1335 12.2727C39.8787 12.7756 39.5395 13.4921 39.1909 14.3655L40.1197 14.7362C40.4555 13.8948 40.7819 13.2056 41.0256 12.7246L40.1335 12.2727ZM39.1909 14.3656C38.4967 16.1054 37.7525 18.4997 37.5831 21.0853L38.581 21.1506C38.7411 18.7064 39.4479 16.4198 40.1197 14.7362L39.1909 14.3656ZM37.5838 21.0762C37.5914 20.9849 37.634 20.893 37.7082 20.8236L38.3909 21.5543C38.4981 21.4541 38.5672 21.3154 38.5803 21.1597L37.5838 21.0762ZM37.7081 20.8237C37.7835 20.7532 37.8818 20.7154 37.9785 20.7154V21.7154C38.1373 21.7154 38.2825 21.6556 38.391 21.5542L37.7081 20.8237ZM37.9785 20.7154H30.9299V21.7154H37.9785V20.7154ZM30.9299 20.7154C31.1384 20.7154 31.307 20.8752 31.3245 21.0736L30.3283 21.1613C30.356 21.4762 30.6171 21.7154 30.9299 21.7154V20.7154ZM31.3253 21.0848C31.1558 18.4966 30.4118 16.1025 29.7175 14.3633L28.7887 14.734C29.4605 16.4167 30.1672 18.7032 30.3274 21.1501L31.3253 21.0848ZM29.7174 14.3632C29.3688 13.4901 29.0296 12.7741 28.7747 12.2716L27.8829 12.7239C28.1266 13.2044 28.4529 13.893 28.7887 14.7341L29.7174 14.3632ZM28.7747 12.2716C28.6472 12.0202 28.5407 11.8218 28.4643 11.6834L27.5888 12.1665C27.66 12.2955 27.761 12.4836 27.8829 12.7239L28.7747 12.2716ZM28.4643 11.6833C28.426 11.6139 28.3955 11.56 28.374 11.5223L27.5052 12.0174C27.525 12.0522 27.5532 12.1021 27.5888 12.1665L28.4643 11.6833ZM28.3729 11.5203L28.3486 11.4781L27.482 11.9772L27.5063 12.0194L28.3729 11.5203ZM28.3478 11.4767L28.3409 11.465L27.476 11.9669L27.4829 11.9786L28.3478 11.4767ZM28.3283 11.4443C28.3306 11.4479 28.3339 11.4531 28.3378 11.4597C28.3413 11.4657 28.3474 11.4762 28.3542 11.4898L27.4598 11.937C27.4723 11.9621 27.4844 11.981 27.4887 11.9876L28.3283 11.4443ZM28.3396 11.4628L28.3382 11.4602L27.4729 11.9615L27.4744 11.9641L28.3396 11.4628ZM28.3372 11.4586C28.3773 11.5272 28.3911 11.5971 28.3905 11.6569C28.39 11.7156 28.3755 11.7874 28.3315 11.8588L27.48 11.3345C27.3625 11.5253 27.3612 11.7703 27.4738 11.9631L28.3372 11.4586ZM28.3217 11.874C28.3218 11.8739 28.3217 11.874 28.3218 11.874C28.3218 11.874 28.3218 11.874 28.3218 11.874C28.3218 11.874 28.3218 11.874 28.3218 11.874C28.3218 11.874 28.3218 11.874 28.3218 11.874C28.3218 11.874 28.3218 11.874 28.3218 11.874V11.874L28.3218 11.874C27.6284 12.0126 27.4897 11.3193 27.4897 11.3193C27.4897 11.3193 27.4897 11.3193 27.4897 11.3193C27.4897 11.3193 27.4897 11.3193 27.4897 11.3193C27.4897 11.3193 27.4897 11.3193 27.4897 11.3193C27.4897 11.3193 27.4897 11.3194 27.4897 11.3194C27.4897 11.3194 27.4897 11.3194 27.4897 11.3194C27.4897 11.3194 27.6283 12.0127 28.3217 11.8741C28.3217 11.8741 28.3217 11.8741 28.3217 11.8741C28.3217 11.8741 28.3217 11.8741 28.3217 11.8741C28.3217 11.8741 28.3217 11.8741 28.3217 11.8741C28.3217 11.8741 28.3217 11.8741 28.3217 11.8741C28.3217 11.874 28.3217 11.8741 28.3217 11.874C28.3218 11.8739 28.3217 11.8741 28.3217 11.874L27.4897 11.3193C27.4896 11.3194 27.4897 11.3193 27.4897 11.3194C27.4897 11.3194 27.4897 11.3194 27.4897 11.3194C27.4897 11.3194 27.4897 11.3194 27.4897 11.3194C27.4897 11.3194 27.4897 11.3194 27.4897 11.3194C27.4897 11.3194 27.4897 11.3194 27.4897 11.3194C27.4897 11.3194 27.4897 11.3194 27.4897 11.3194C28.183 11.1807 28.3217 11.8741 28.3217 11.8741C28.3217 11.8741 28.3217 11.8741 28.3217 11.8741C28.3217 11.8741 28.3217 11.8741 28.3217 11.8741C28.3217 11.8741 28.3217 11.8741 28.3217 11.8741C28.3217 11.8741 28.3217 11.8741 28.3217 11.8741C28.3217 11.8741 28.3217 11.874 28.3217 11.874C28.3218 11.874 28.3218 11.874 28.3218 11.874C28.3218 11.874 28.3218 11.874 28.3218 11.874C28.3218 11.874 28.1831 11.1806 27.4897 11.3193C27.4897 11.3193 27.4897 11.3193 27.4897 11.3193C27.4897 11.3193 27.4897 11.3193 27.4897 11.3193C27.4897 11.3193 27.4897 11.3192 27.4897 11.3193C27.4897 11.3193 27.4897 11.3193 27.4897 11.3193C27.4897 11.3193 27.4897 11.3193 27.4897 11.3193C27.4897 11.3194 27.4898 11.3192 27.4897 11.3193L28.3217 11.874ZM28.3282 11.864L34.7888 1.65387L33.9438 1.11917L27.4832 11.3293L28.3282 11.864ZM34.7327 1.72676C34.732 1.72742 34.7306 1.72899 34.7289 1.7307L34.013 1.03254C34.0071 1.03855 34.0027 1.04329 33.9999 1.04629L34.7327 1.72676ZM34.7266 1.73306L34.7404 1.71912L34.0291 1.01625L34.0153 1.03019L34.7266 1.73306ZM34.7381 1.72143C34.6649 1.79452 34.5642 1.8374 34.4571 1.8374V0.837402C34.2965 0.837402 34.1438 0.901616 34.0314 1.01394L34.7381 1.72143ZM34.4571 1.8374C34.3277 1.8374 34.187 1.76918 34.1055 1.63081L34.9671 1.12326C34.862 0.944777 34.6681 0.837402 34.4571 0.837402V1.8374ZM34.1066 1.63265L34.1092 1.63707L34.9687 1.12584L34.966 1.12142L34.1066 1.63265ZM41.1336 12.0779L41.2314 11.9027L40.3584 11.4151L40.2605 11.5903L41.1336 12.0779ZM27.6766 11.901L27.7738 12.0761L28.6481 11.5907L28.5509 11.4156L27.6766 11.901ZM27.7737 12.076C28.2891 13.0048 30.1345 16.5669 30.5005 20.7514L31.4967 20.6643C31.1123 16.2695 29.1858 12.5598 28.6482 11.5908L27.7737 12.076ZM30.5005 20.7514L30.5275 21.0595L31.5237 20.9724L31.4967 20.6643L30.5005 20.7514ZM38.3805 21.0601L38.4077 20.7524L37.4116 20.6641L37.3844 20.9718L38.3805 21.0601ZM38.4077 20.7525C38.7796 16.5605 40.6202 12.9976 41.1336 12.0779L40.2605 11.5904C39.7224 12.5542 37.802 16.2637 37.4116 20.6641L38.4077 20.7525ZM32.7113 13.865L32.7124 13.8661L33.4404 13.1806L33.4393 13.1794L32.7113 13.865ZM32.7245 13.8786C33.6832 14.8283 35.2325 14.8324 36.1892 13.8758L35.482 13.1687C34.9179 13.7328 33.9992 13.7337 33.4283 13.1682L32.7245 13.8786ZM36.1891 13.8758C37.1442 12.9208 37.1442 11.3634 36.1892 10.4084L35.482 11.1155C36.0466 11.68 36.0466 12.6042 35.4821 13.1686L36.1891 13.8758ZM36.1892 10.4084C35.2342 9.45332 33.6768 9.45335 32.7218 10.4084L33.4289 11.1155C33.9934 10.551 34.9176 10.551 35.482 11.1155L36.1892 10.4084ZM32.7218 10.4084C31.7667 11.3634 31.7667 12.9208 32.7218 13.8758L33.4289 13.1686C32.8644 12.6042 32.8643 11.68 33.4289 11.1155L32.7218 10.4084ZM33.2841 10.9707C33.9312 10.3236 34.9797 10.3235 35.6269 10.9707L36.334 10.2636C35.2963 9.22594 33.6146 9.22592 32.577 10.2636L33.2841 10.9707ZM35.6269 10.9707C36.274 11.6179 36.274 12.6663 35.6269 13.3135L36.334 14.0206C37.3717 12.9829 37.3717 11.3013 36.334 10.2636L35.6269 10.9707ZM35.6269 13.3135C34.9798 13.9606 33.9315 13.9607 33.2843 13.3138L32.5774 14.021C33.6151 15.0583 35.2964 15.0582 36.334 14.0206L35.6269 13.3135ZM33.2856 13.315C32.6413 12.6665 32.6438 11.611 33.2841 10.9707L32.577 10.2636C31.5452 11.2954 31.5454 12.9823 32.5762 14.0198L33.2856 13.315ZM34.7379 1.72156C34.7153 1.74418 34.6736 1.7793 34.6115 1.80542C34.5488 1.83179 34.4929 1.8374 34.4571 1.8374V0.837402C34.3911 0.837402 34.3097 0.847475 34.2238 0.883645C34.1383 0.919567 34.0755 0.969831 34.0315 1.01381L34.7379 1.72156ZM34.4571 1.8374C34.3348 1.8374 34.2375 1.78417 34.1752 1.7219C34.113 1.65966 34.0598 1.56239 34.0598 1.44007H35.0598C35.0598 1.10984 34.7877 0.837402 34.4571 0.837402V1.8374ZM34.0598 1.44007V10.085H35.0598V1.44007H34.0598ZM34.0598 10.085C34.0598 9.96276 34.1129 9.86545 34.1753 9.80313C34.2376 9.74081 34.3349 9.68766 34.4571 9.68766V10.6877C34.7875 10.6877 35.0598 10.4154 35.0598 10.085H34.0598ZM34.4571 9.68766C34.5795 9.68766 34.6768 9.74088 34.739 9.80305C34.8012 9.86525 34.8545 9.96255 34.8545 10.085H33.8545C33.8545 10.4156 34.127 10.6877 34.4571 10.6877V9.68766ZM34.8545 10.085V1.44007H33.8545V10.085H34.8545ZM34.8545 1.44007C34.8545 1.47559 34.8489 1.53147 34.8225 1.59429C34.7963 1.65658 34.7611 1.69841 34.7384 1.72113L34.031 1.01424C33.987 1.0583 33.9366 1.12118 33.9007 1.20675C33.8645 1.29285 33.8545 1.37426 33.8545 1.44007H34.8545ZM39.6426 24.9185L39.6436 24.9204L40.5037 24.4102L40.5026 24.4083L39.6426 24.9185ZM39.6382 24.911C39.6001 24.8435 39.5854 24.7717 39.5866 24.7062C39.5876 24.6494 39.6013 24.5682 39.6552 24.4836L40.4985 25.0209C40.612 24.8428 40.6158 24.6085 40.5091 24.4195L39.6382 24.911ZM39.6539 24.4856L39.6492 24.4931L40.4951 25.0264L40.4998 25.019L39.6539 24.4856ZM39.6361 24.515L39.6318 24.5227L40.5038 25.0122L40.5081 25.0045L39.6361 24.515ZM39.6328 24.521C39.7111 24.3828 39.8491 24.3131 39.9801 24.3131V25.3131C40.1979 25.3131 40.3981 25.1988 40.5028 25.0139L39.6328 24.521ZM39.9801 24.3131H28.9231V25.3131H39.9801V24.3131ZM28.9231 24.3131C28.9847 24.3131 29.0536 24.3282 29.119 24.3654C29.1844 24.4026 29.2291 24.4523 29.2567 24.4976L28.403 25.0184C28.5145 25.2011 28.7075 25.3131 28.9231 25.3131V24.3131ZM29.2569 24.4979C29.2918 24.5553 29.3151 24.6256 29.3166 24.7028C29.3182 24.7803 29.2975 24.8445 29.2734 24.8898L28.3904 24.4206C28.2886 24.612 28.2918 24.8359 28.4028 25.0181L29.2569 24.4979ZM29.269 24.898L31.2448 21.3403L30.3706 20.8548L28.3948 24.4124L29.269 24.898ZM31.1721 21.4399C31.1918 21.4189 31.207 21.4012 31.2144 21.3926L30.4541 20.743C30.4495 20.7483 30.4466 20.7516 30.4433 20.7552L31.1721 21.4399ZM31.2116 21.3958C31.2163 21.3904 31.22 21.386 31.2228 21.3827C31.2239 21.3814 31.2253 21.3797 31.2255 21.3795C31.226 21.3788 31.2256 21.3793 31.2248 21.3803L30.4642 20.731C30.4623 20.7333 30.4606 20.7353 30.4598 20.7363C30.4586 20.7377 30.4585 20.7378 30.4579 20.7385C30.4573 20.7392 30.4571 20.7395 30.4568 20.7398L31.2116 21.3958ZM31.2247 21.3804C31.2271 21.3776 31.2287 21.3757 31.2318 21.3721L30.4735 20.7202C30.4699 20.7244 30.4675 20.7271 30.4643 20.7309L31.2247 21.3804ZM31.2318 21.3721C31.2307 21.3734 31.2284 21.376 31.225 21.3797C31.2233 21.3816 31.2213 21.3838 31.2189 21.3863C31.2177 21.3875 31.2164 21.3888 31.2151 21.3902C31.2144 21.3909 31.2137 21.3916 31.213 21.3923C31.2127 21.3926 31.2123 21.393 31.212 21.3933C31.2119 21.3934 31.2117 21.3936 31.2116 21.3937C31.2115 21.3938 31.2114 21.3939 31.2114 21.3939L30.5043 20.6867C30.5044 20.6867 30.5043 20.6868 30.5042 20.6869C30.504 20.687 30.5039 20.6872 30.5037 20.6873C30.5034 20.6877 30.5031 20.688 30.5027 20.6884C30.502 20.6891 30.5013 20.6898 30.5005 20.6906C30.4991 20.6921 30.4977 20.6936 30.4963 20.695C30.4935 20.6979 30.4908 20.7008 30.4882 20.7036C30.4832 20.7091 30.4783 20.7147 30.4734 20.7203L31.2318 21.3721ZM31.2114 21.3939C31.1377 21.4676 31.0365 21.5101 30.9303 21.5101V20.5101C30.7702 20.5101 30.6173 20.5738 30.5043 20.6867L31.2114 21.3939ZM30.9303 21.5101H37.9788V20.5101H30.9303V21.5101ZM37.9788 21.5101C37.8987 21.5101 37.8301 21.4871 37.777 21.4562C37.7237 21.4251 37.6714 21.3775 37.6329 21.3108L38.4994 20.8115C38.3939 20.6285 38.1948 20.5101 37.9788 20.5101V21.5101ZM37.6189 21.2848C37.6175 21.2818 37.6143 21.2754 37.6106 21.2672C37.6087 21.263 37.6057 21.2562 37.6022 21.2475C37.6004 21.2431 37.5981 21.2372 37.5956 21.2301C37.5931 21.2233 37.5896 21.2131 37.586 21.2006C37.5827 21.1893 37.577 21.1681 37.5726 21.1409C37.5703 21.127 37.5677 21.1069 37.5666 21.0826C37.5656 21.0595 37.5656 21.0225 37.5732 20.9777C37.5771 20.9546 37.5836 20.9261 37.5948 20.8945C37.6059 20.8629 37.6227 20.8255 37.6484 20.7865C37.6743 20.7471 37.709 20.7065 37.7544 20.6703C37.8002 20.6337 37.8517 20.6059 37.9061 20.5875C38.0144 20.5509 38.11 20.5593 38.1704 20.5722C38.2014 20.5788 38.2277 20.5875 38.2484 20.5956C38.2692 20.6037 38.2868 20.6122 38.301 20.6198C38.3285 20.6344 38.3497 20.649 38.3636 20.6593C38.378 20.6699 38.3895 20.6796 38.3978 20.687C38.414 20.7014 38.4261 20.714 38.433 20.7214C38.4467 20.7362 38.4566 20.7487 38.4608 20.7542C38.4701 20.7662 38.4768 20.7759 38.4792 20.7793C38.4824 20.784 38.4849 20.7879 38.4865 20.7905C38.4898 20.7956 38.4926 20.8001 38.4949 20.8039C38.4967 20.8069 38.5007 20.8136 38.5054 20.8222C38.5067 20.8247 38.5086 20.8282 38.5108 20.8325C38.5128 20.8363 38.5163 20.8433 38.5204 20.8522C38.5225 20.8567 38.5254 20.8633 38.5287 20.8714C38.5317 20.8787 38.5369 20.8917 38.5422 20.9083C38.5449 20.9169 38.5485 20.9288 38.552 20.9433C38.5553 20.9569 38.56 20.9788 38.5631 21.006C38.5646 21.02 38.566 21.038 38.5661 21.0589C38.5662 21.0794 38.5651 21.1068 38.5601 21.1386C38.5551 21.17 38.5454 21.2122 38.5253 21.259C38.5047 21.3066 38.4718 21.3625 38.4197 21.4146C38.3994 21.4338 38.3552 21.4691 38.3313 21.485C38.3066 21.4994 38.2556 21.5238 38.2294 21.5337C38.1597 21.5577 38.0951 21.5629 38.0434 21.5606C37.9925 21.5583 37.9504 21.5486 37.92 21.5393C37.8892 21.5299 37.8641 21.5189 37.8457 21.5099C37.827 21.5007 37.8115 21.4916 37.7995 21.4841C37.7875 21.4765 37.7773 21.4694 37.7691 21.4633C37.7532 21.4516 37.7408 21.441 37.7325 21.4336C37.7164 21.4191 37.7046 21.4066 37.6985 21.4C37.6916 21.3926 37.6862 21.3863 37.6827 21.382C37.6757 21.3737 37.6705 21.3669 37.6678 21.3633C37.6647 21.3593 37.6623 21.3559 37.6606 21.3537C37.6551 21.346 37.651 21.3398 37.6501 21.3385L38.4822 20.7838C38.4813 20.7825 38.4771 20.7762 38.4716 20.7685C38.47 20.7663 38.4675 20.7629 38.4644 20.7589C38.4617 20.7553 38.4565 20.7485 38.4495 20.7402C38.446 20.7359 38.4406 20.7296 38.4337 20.7222C38.4276 20.7156 38.4158 20.7031 38.3997 20.6886C38.3914 20.6812 38.379 20.6706 38.3631 20.6588C38.3549 20.6528 38.3447 20.6457 38.3327 20.6381C38.3208 20.6306 38.3052 20.6215 38.2865 20.6123C38.2681 20.6032 38.243 20.5923 38.2122 20.5829C38.1818 20.5736 38.1397 20.5639 38.0888 20.5616C38.0371 20.5593 37.9725 20.5644 37.9028 20.5885C37.8766 20.5984 37.8256 20.6227 37.8009 20.6372C37.777 20.6531 37.7328 20.6884 37.7126 20.7075C37.6604 20.7597 37.6275 20.8156 37.6069 20.8632C37.5868 20.91 37.5771 20.9522 37.5721 20.9836C37.5672 21.0154 37.566 21.0428 37.5661 21.0633C37.5662 21.0842 37.5676 21.1022 37.5691 21.1162C37.5722 21.1434 37.5769 21.1652 37.5802 21.1789C37.5837 21.1934 37.5873 21.2053 37.59 21.2139C37.5953 21.2305 37.6005 21.2435 37.6035 21.2508C37.6068 21.2589 37.6097 21.2655 37.6118 21.27C37.6159 21.2789 37.6194 21.2858 37.6214 21.2897C37.6236 21.294 37.6255 21.2975 37.6269 21.3C37.6316 21.3086 37.6355 21.3153 37.6374 21.3184C37.6396 21.3222 37.6424 21.3267 37.6457 21.3318C37.6474 21.3344 37.6499 21.3383 37.6532 21.343C37.6555 21.3465 37.6622 21.3562 37.6715 21.3682C37.6758 21.3736 37.6856 21.3861 37.6994 21.401C37.7063 21.4084 37.7183 21.421 37.7345 21.4354C37.7428 21.4427 37.7544 21.4525 37.7688 21.4631C37.7826 21.4734 37.8038 21.488 37.8314 21.5026C37.8455 21.5101 37.8631 21.5187 37.884 21.5268C37.9047 21.5349 37.9309 21.5436 37.9619 21.5502C38.0223 21.5631 38.1179 21.5715 38.2262 21.5349C38.2807 21.5165 38.3321 21.4886 38.3779 21.4521C38.4233 21.4159 38.458 21.3753 38.484 21.3358C38.5096 21.2969 38.5264 21.2595 38.5376 21.2278C38.5487 21.1963 38.5552 21.1678 38.5591 21.1447C38.5667 21.0999 38.5667 21.0628 38.5657 21.0398C38.5647 21.0155 38.562 20.9954 38.5598 20.9814C38.5554 20.9542 38.5496 20.933 38.5463 20.9218C38.5427 20.9092 38.5392 20.899 38.5368 20.8923C38.5342 20.8852 38.5319 20.8792 38.5301 20.8748C38.5267 20.8662 38.5236 20.8593 38.5218 20.8552C38.518 20.8469 38.5149 20.8405 38.5134 20.8376L37.6189 21.2848ZM37.6293 21.3045L39.6358 24.9067L40.5094 24.4201L38.503 20.8179L37.6293 21.3045ZM37.8305 50.7722L37.8303 50.7761L38.8289 50.8287L38.8291 50.8248L37.8305 50.7722ZM37.8304 50.7747C37.8366 50.6621 37.8849 50.571 37.9453 50.5106L38.6524 51.2177C38.7562 51.1139 38.8207 50.9767 38.8288 50.8301L37.8304 50.7747ZM37.9453 51.2177L38.1839 51.4563L38.891 50.7492L38.6524 50.5106L37.9453 51.2177ZM37.9453 50.5106L34.1774 54.2785L34.8845 54.9856L38.6524 51.2177L37.9453 50.5106ZM34.1774 54.2785C34.251 54.2049 34.3519 54.1623 34.4585 54.1623V55.1623C34.6189 55.1623 34.7718 55.0983 34.8845 54.9856L34.1774 54.2785ZM34.4585 54.1623C34.5652 54.1623 34.6661 54.2049 34.7397 54.2785L34.0326 54.9856C34.1453 55.0983 34.2982 55.1623 34.4585 55.1623V54.1623ZM34.7397 54.2785L30.9718 50.5106L30.2647 51.2177L34.0326 54.9856L34.7397 54.2785ZM30.2647 50.5106L30.0261 50.7492L30.7332 51.4563L30.9718 51.2177L30.2647 50.5106ZM30.9718 50.5106C31.0322 50.571 31.0805 50.6621 31.0867 50.7747L30.0883 50.8301C30.0964 50.9767 30.1609 51.1139 30.2647 51.2177L30.9718 50.5106ZM31.0868 50.7765L31.0866 50.7725L30.088 50.8244L30.0882 50.8284L31.0868 50.7765ZM31.0862 50.765L30.8634 47.4474L29.8657 47.5144L30.0884 50.832L31.0862 50.765ZM30.8643 47.465C30.8671 47.5552 30.8348 47.6589 30.757 47.7423L30.0262 47.0596C29.9159 47.1778 29.8596 47.3341 29.8648 47.4967L30.8643 47.465ZM30.7573 47.742L30.775 47.7229L30.0437 47.0409L30.0259 47.0599L30.7573 47.742ZM30.6671 47.8103C30.6064 47.8469 30.5355 47.8673 30.4618 47.8673V46.8673C30.3511 46.8673 30.2442 46.8978 30.1516 46.9535L30.6671 47.8103ZM30.4618 47.8673H38.4494V46.8673H30.4618V47.8673ZM38.4494 47.8673C38.3354 47.8673 38.2327 47.82 38.16 47.7421L38.891 47.0597C38.7785 46.9393 38.6183 46.8673 38.4494 46.8673V47.8673ZM38.1594 47.7416C38.0824 47.6588 38.0499 47.5555 38.0528 47.4651L39.0523 47.4968C39.0575 47.334 39.0011 47.1781 38.8915 47.0603L38.1594 47.7416ZM38.0537 47.4474L37.8309 50.765L38.8287 50.832L39.0514 47.5144L38.0537 47.4474ZM30.7386 47.7584L30.7391 47.7579L30.0354 47.0474L30.0349 47.0479L30.7386 47.7584ZM29.2103 24.9981C29.1375 25.0706 29.0371 25.1137 28.9297 25.1137V24.1137C28.7687 24.1137 28.6163 24.1782 28.5044 24.2898L29.2103 24.9981ZM28.9297 25.1137H39.9868V24.1137H28.9297V25.1137ZM39.9868 25.1137C39.8732 25.1137 39.77 25.0667 39.6968 24.988L40.4289 24.3068C40.316 24.1854 40.1553 24.1137 39.9868 24.1137V25.1137ZM39.6975 24.9887C39.6197 24.9054 39.5873 24.8017 39.5902 24.7114L40.5897 24.7432C40.5948 24.5806 40.5386 24.4242 40.4282 24.3061L39.6975 24.9887ZM39.5911 24.6936L38.054 47.4399L39.0517 47.5074L40.5888 24.761L39.5911 24.6936ZM38.0596 47.3915C38.0577 47.4029 38.0565 47.4124 38.0558 47.4187C38.0555 47.4219 38.0552 47.4244 38.0551 47.4258C38.055 47.427 38.0549 47.4284 38.0549 47.4277C38.0549 47.4275 38.0551 47.4259 38.0553 47.4238C38.0555 47.4216 38.0559 47.4181 38.0564 47.4139C38.0574 47.4055 38.0592 47.3925 38.0624 47.3767L39.043 47.5728C39.0462 47.5568 39.048 47.5436 39.049 47.5351C39.0496 47.5307 39.0499 47.5272 39.0502 47.5249C39.0504 47.5227 39.0506 47.521 39.0506 47.5208C39.0507 47.52 39.0505 47.5213 39.0504 47.5223C39.0503 47.5237 39.0501 47.5261 39.0497 47.5292C39.049 47.5353 39.0479 47.5446 39.046 47.5559L38.0596 47.3915ZM38.0545 47.4321C38.0715 47.2333 38.2403 47.0729 38.4491 47.0729V48.0729C38.7626 48.0729 39.0238 47.8328 39.0509 47.5174L38.0545 47.4321ZM38.4491 47.0729H30.4615V48.0729H38.4491V47.0729ZM30.4615 47.0729C30.579 47.0729 30.6715 47.1213 30.7316 47.1767C30.794 47.234 30.8464 47.3214 30.856 47.4311L29.8598 47.5182C29.8871 47.8302 30.1511 48.0729 30.4615 48.0729V47.0729ZM30.8579 47.4747C30.8579 47.4769 30.858 47.4642 30.8573 47.4497C30.8565 47.4335 30.8545 47.4073 30.8481 47.3756L29.8676 47.5717C29.8613 47.5404 29.8593 47.5145 29.8585 47.4986C29.8578 47.4844 29.8579 47.4721 29.8579 47.4747H30.8579ZM30.8567 47.4399L29.3196 24.6935L28.3219 24.7609L29.859 47.5074L30.8567 47.4399ZM29.3205 24.7112C29.3224 24.771 29.309 24.8425 29.2695 24.912L28.3997 24.4186C28.3421 24.5203 28.3175 24.6328 28.321 24.7432L29.3205 24.7112ZM29.161 25.0441C29.1737 25.0331 29.1852 25.0224 29.1848 25.0228L28.5057 24.2887C28.5051 24.2893 28.5044 24.2899 28.5041 24.2902C28.5036 24.2906 28.5035 24.2908 28.5032 24.291C28.5029 24.2913 28.503 24.2912 28.5033 24.2909C28.504 24.2903 28.5058 24.2886 28.5083 24.2865L29.161 25.0441ZM29.1878 25.02C29.1946 25.0135 29.2005 25.0078 29.2045 25.0039C29.2079 25.0005 29.2125 24.9959 29.2109 24.9975L28.5038 24.2904C28.5009 24.2932 28.5023 24.2919 28.5014 24.2927C28.5011 24.2931 28.5015 24.2926 28.5027 24.2915L29.1878 25.02ZM29.2109 24.9975C29.2109 24.9975 29.2109 24.9975 29.2109 24.9975C29.2109 24.9975 29.2109 24.9975 29.2109 24.9975H29.2109C29.2109 24.9975 28.5038 24.2904 28.5038 24.2904C28.5038 24.2904 28.5038 24.2904 28.5038 24.2904C28.5038 24.2904 28.5037 24.2904 28.5037 24.2904C28.5037 24.2904 28.5037 24.2904 28.5037 24.2904V24.2904L29.2109 24.9975C29.2109 24.9975 29.2109 24.9975 29.2109 24.9975C29.2109 24.9975 29.2109 24.9975 29.2109 24.9975C29.2109 24.9975 29.2109 24.9975 29.2109 24.9975L28.5038 24.2904C28.5037 24.2904 28.5038 24.2904 28.5037 24.2904C28.5037 24.2904 28.5037 24.2904 28.5037 24.2904C28.5037 24.2904 28.5037 24.2904 28.5037 24.2904C28.5037 24.2904 29.2109 24.9975 29.2109 24.9975C29.2109 24.9975 29.2108 24.9975 29.2109 24.9975C29.2109 24.9975 29.2109 24.9975 29.2109 24.9975C29.2109 24.9975 29.2109 24.9975 29.2109 24.9975C29.2109 24.9975 29.2109 24.9975 29.2109 24.9975L28.5038 24.2904C28.5038 24.2904 28.5038 24.2904 28.5038 24.2904C28.5038 24.2904 28.5038 24.2904 28.5038 24.2904C28.5038 24.2904 28.5038 24.2904 28.5038 24.2904L29.2109 24.9975ZM34.7947 37.8743C34.7947 38.0601 34.6441 38.2107 34.4584 38.2107V39.2107C35.1965 39.2107 35.7947 38.6124 35.7947 37.8743H34.7947ZM34.4584 38.2107C34.2727 38.2107 34.1221 38.0601 34.1221 37.8743H33.1221C33.1221 38.6124 33.7204 39.2107 34.4584 39.2107V38.2107ZM34.1221 37.8743C34.1221 37.6887 34.2727 37.5381 34.4584 37.5381V36.5381C33.7204 36.5381 33.1221 37.1363 33.1221 37.8743H34.1221ZM34.4584 37.5381C34.6441 37.5381 34.7947 37.6886 34.7947 37.8743H35.7947C35.7947 37.1364 35.1964 36.5381 34.4584 36.5381V37.5381ZM33.9055 37.3223C34.2064 37.0214 34.7032 37.0214 35.0041 37.3223L35.7112 36.6152C35.0198 35.9237 33.8898 35.9237 33.1984 36.6152L33.9055 37.3223ZM35.0041 37.3223C35.305 37.6232 35.305 38.1199 35.0041 38.4209L35.7112 39.128C36.4026 38.4365 36.4027 37.3066 35.7112 36.6152L35.0041 37.3223ZM35.0041 38.4209C34.7032 38.7218 34.2064 38.7218 33.9055 38.4209L33.1984 39.128C33.8898 39.8195 35.0198 39.8194 35.7112 39.128L35.0041 38.4209ZM33.9055 38.4209C33.6046 38.1199 33.6046 37.6232 33.9055 37.3223L33.1984 36.6152C32.5069 37.3066 32.507 38.4365 33.1984 39.128L33.9055 38.4209ZM35.5664 38.9832C36.1811 38.3686 36.1811 37.3746 35.5664 36.76L34.8593 37.4671C35.0834 37.6912 35.0834 38.052 34.8593 38.2761L35.5664 38.9832ZM35.5664 36.76C34.9518 36.1453 33.9578 36.1453 33.3432 36.76L34.0503 37.4671C34.2744 37.243 34.6352 37.243 34.8593 37.4671L35.5664 36.76ZM33.3432 36.76C32.7286 37.3746 32.7286 38.3686 33.3432 38.9832L34.0503 38.2761C33.8262 38.052 33.8262 37.6912 34.0503 37.4671L33.3432 36.76ZM33.3432 38.9832C33.9578 39.5978 34.9518 39.5978 35.5664 38.9832L34.8593 38.2761C34.6352 38.5002 34.2744 38.5002 34.0503 38.2761L33.3432 38.9832ZM34.7154 39.3513L34.72 39.3471L34.0406 38.6133L34.036 38.6176L34.7154 39.3513ZM34.7339 39.3338L34.7383 39.3294L34.0312 38.6223L34.0268 38.6267L34.7339 39.3338ZM34.7383 39.3294C34.7156 39.3521 34.6737 39.3874 34.6113 39.4136C34.5484 39.4401 34.4925 39.4456 34.4571 39.4456V38.4456C34.3914 38.4456 34.31 38.4555 34.2238 38.4918C34.1381 38.5278 34.0752 38.5782 34.0312 38.6223L34.7383 39.3294ZM34.4571 39.4456C34.3349 39.4456 34.2376 39.3924 34.1753 39.3301C34.1129 39.2678 34.0598 39.1705 34.0598 39.0482H35.0598C35.0598 38.7178 34.7875 38.4456 34.4571 38.4456V39.4456ZM34.0598 39.0482V47.4701H35.0598V39.0482H34.0598ZM34.0598 47.4701C34.0598 47.3479 34.1129 47.2505 34.1753 47.1882C34.2376 47.1259 34.3349 47.0728 34.4571 47.0728V48.0728C34.7875 48.0728 35.0598 47.8005 35.0598 47.4701H34.0598ZM34.4571 47.0728C34.5795 47.0728 34.6768 47.126 34.739 47.1881C34.8012 47.2503 34.8545 47.3476 34.8545 47.4701H33.8545C33.8545 47.8007 34.127 48.0728 34.4571 48.0728V47.0728ZM34.8545 47.4701V39.0482H33.8545V47.4701H34.8545ZM34.8545 39.0482C34.8545 39.1419 34.8159 39.2572 34.7177 39.3492L34.0338 38.6197C33.9205 38.7259 33.8545 38.8793 33.8545 39.0482H34.8545ZM8.14284 16.4938V39.2799H9.14284V16.4938H8.14284ZM8.64284 39.7799H45.9986V38.7799H8.64284V39.7799ZM46.4986 39.2799V16.4938H45.4986V39.2799H46.4986ZM18.7068 43.0066V46.3226H19.7068V43.0066H18.7068ZM19.2068 46.8226H35.4345V45.8226H19.2068V46.8226ZM35.9345 46.3226V43.0066H34.9345V46.3226H35.9345ZM35.4345 42.5066H19.2068V43.5066H35.4345V42.5066ZM45.9986 38.9853H8.64284V39.9853H45.9986V38.9853ZM8.14284 39.4853V41.1433H9.14284V39.4853H8.14284ZM46.4986 41.1433V39.4853H45.4986V41.1433H46.4986ZM41.2175 11.3917L34.8799 1.36912L34.0347 1.90357L40.3723 11.9261L41.2175 11.3917ZM34.0348 1.36893L27.6913 11.3909L28.5362 11.9257L34.8798 1.90376L34.0348 1.36893ZM31.0256 21.5159H37.8824V20.5159H31.0256V21.5159ZM40.2456 24.3766L38.3561 20.9784L37.4821 21.4643L39.3716 24.8625L40.2456 24.3766ZM37.9191 20.7213H30.99V21.7213H37.9191V20.7213ZM30.553 20.9784L28.6635 24.3766L29.5375 24.8625L31.427 21.4643L30.553 20.9784ZM29.1005 25.1196H39.8086V24.1196H29.1005V25.1196ZM38.625 50.7808L38.8399 47.6064L37.8421 47.5388L37.6273 50.7133L38.625 50.7808ZM38.341 47.0726H30.5761V48.0726H38.341V47.0726ZM30.0772 47.6064L30.2921 50.7808L31.2898 50.7133L31.0749 47.5388L30.0772 47.6064ZM30.4371 51.1003L34.1047 54.7743L34.8124 54.0678L31.1448 50.3938L30.4371 51.1003ZM34.8124 54.7743L38.48 51.1003L37.7723 50.3938L34.1047 54.0678L34.8124 54.7743ZM38.8586 47.4011L40.3771 24.8526L39.3794 24.7854L37.8608 47.3339L38.8586 47.4011ZM39.8782 24.319H29.0382V25.319H39.8782V24.319ZM28.5393 24.8528L30.0639 47.4013L31.0616 47.3338L29.537 24.7853L28.5393 24.8528ZM30.5628 47.8675H38.3597V46.8675H30.5628V47.8675Z" fill="#5AC8FF"/>
</svg>
