<svg xmlns="http://www.w3.org/2000/svg" xmlns:xlink="http://www.w3.org/1999/xlink" width="54" zoomAndPan="magnify" viewBox="0 0 40.5 40.5" height="54" preserveAspectRatio="xMidYMid meet" version="1.0"><path fill="#508167" d="M 1.652344 28.832031 L 1.097656 28.832031 L 1.097656 29.386719 L 1.652344 29.386719 Z M 38.707031 28.832031 L 38.707031 29.386719 L 39.261719 29.386719 L 39.261719 28.832031 Z M 12.242188 32.78125 L 12.242188 32.226562 L 11.6875 32.226562 L 11.6875 32.78125 Z M 28.121094 32.78125 L 28.675781 32.78125 L 28.675781 32.226562 L 28.121094 32.226562 Z M 28.121094 35.789062 L 28.121094 36.34375 L 28.675781 36.34375 L 28.675781 35.789062 Z M 12.242188 35.789062 L 11.6875 35.789062 L 11.6875 36.34375 L 12.242188 36.34375 Z M 12.179688 35.851562 L 11.625 35.851562 L 11.625 36.40625 L 12.179688 36.40625 Z M 28.179688 35.851562 L 28.179688 36.40625 L 28.734375 36.40625 L 28.734375 35.851562 Z M 28.179688 32.71875 L 28.734375 32.71875 L 28.734375 32.164062 L 28.179688 32.164062 Z M 12.179688 32.71875 L 12.179688 32.164062 L 11.625 32.164062 L 11.625 32.71875 Z M 1.652344 29.210938 L 1.652344 28.65625 L 1.097656 28.65625 L 1.097656 29.210938 Z M 38.707031 29.210938 L 39.261719 29.210938 L 39.261719 28.65625 L 38.707031 28.65625 Z M 6.269531 14.65625 L 6.269531 14.101562 L 5.714844 14.101562 L 5.714844 14.65625 Z M 24.558594 14.65625 L 25.113281 14.65625 L 25.113281 14.101562 L 24.558594 14.101562 Z M 24.558594 14.929688 L 24.558594 15.484375 L 25.113281 15.484375 L 25.113281 14.929688 Z M 6.269531 14.929688 L 5.714844 14.929688 L 5.714844 15.484375 L 6.269531 15.484375 Z M 6.457031 14.398438 L 5.902344 14.398438 L 5.902344 14.953125 L 6.457031 14.953125 Z M 9.59375 14.398438 L 9.59375 14.953125 L 10.148438 14.953125 L 10.148438 14.398438 Z M 21.234375 14.398438 L 20.679688 14.398438 L 20.679688 14.953125 L 21.234375 14.953125 Z M 24.367188 14.398438 L 24.367188 14.953125 L 24.925781 14.953125 L 24.925781 14.398438 Z M 11.382812 14.398438 L 10.828125 14.398438 L 10.828125 14.953125 L 11.382812 14.953125 Z M 14.519531 14.398438 L 14.519531 14.953125 L 15.074219 14.953125 L 15.074219 14.398438 Z M 16.308594 14.398438 L 15.753906 14.398438 L 15.753906 14.953125 L 16.308594 14.953125 Z M 19.445312 14.398438 L 19.445312 14.953125 L 20 14.953125 L 20 14.398438 Z M 15.414062 25.277344 L 15.253906 25.808594 L 15.523438 25.890625 L 15.75 25.722656 Z M 22.800781 19.691406 L 23.019531 19.183594 L 22.722656 19.054688 L 22.464844 19.25 Z M 26.632812 23.898438 C 26.324219 23.898438 26.078125 24.148438 26.078125 24.453125 C 26.078125 24.761719 26.324219 25.007812 26.632812 25.007812 Z M 29.070312 25.007812 C 29.378906 25.007812 29.625 24.761719 29.625 24.453125 C 29.625 24.148438 29.378906 23.898438 29.070312 23.898438 Z M 24.601562 25.675781 C 24.296875 25.675781 24.046875 25.925781 24.046875 26.230469 C 24.046875 26.539062 24.296875 26.785156 24.601562 26.785156 Z M 29.070312 26.785156 C 29.378906 26.785156 29.625 26.539062 29.625 26.230469 C 29.625 25.925781 29.378906 25.675781 29.070312 25.675781 Z M 32.597656 12.066406 C 32.292969 12.066406 32.042969 12.316406 32.042969 12.621094 C 32.042969 12.929688 32.292969 13.175781 32.597656 13.175781 Z M 35.207031 13.175781 C 35.511719 13.175781 35.761719 12.929688 35.761719 12.621094 C 35.761719 12.316406 35.511719 12.066406 35.207031 12.066406 Z M 33.773438 10.289062 C 33.46875 10.289062 33.21875 10.535156 33.21875 10.84375 C 33.21875 11.148438 33.46875 11.398438 33.773438 11.398438 Z M 35.207031 11.398438 C 35.511719 11.398438 35.761719 11.148438 35.761719 10.84375 C 35.761719 10.535156 35.511719 10.289062 35.207031 10.289062 Z M 30.742188 13.851562 C 30.4375 13.851562 30.1875 14.097656 30.1875 14.40625 C 30.1875 14.710938 30.4375 14.960938 30.742188 14.960938 Z M 35.207031 14.960938 C 35.511719 14.960938 35.761719 14.710938 35.761719 14.40625 C 35.761719 14.097656 35.511719 13.851562 35.207031 13.851562 Z M 39.261719 6.210938 C 39.261719 5.042969 38.3125 4.089844 37.140625 4.089844 L 37.140625 5.199219 C 37.699219 5.199219 38.152344 5.65625 38.152344 6.210938 Z M 37.140625 4.089844 L 3.21875 4.089844 L 3.21875 5.199219 L 37.140625 5.199219 Z M 3.21875 4.089844 C 2.050781 4.089844 1.097656 5.042969 1.097656 6.210938 L 2.207031 6.210938 C 2.207031 5.65625 2.664062 5.199219 3.21875 5.199219 Z M 38.898438 28.65625 L 1.464844 28.65625 L 1.464844 29.765625 L 38.898438 29.765625 Z M 1.464844 28.65625 C 1.667969 28.65625 1.832031 28.816406 1.832031 29.023438 L 0.722656 29.023438 C 0.722656 29.429688 1.054688 29.765625 1.464844 29.765625 Z M 1.832031 29.023438 L 1.832031 6.210938 L 0.722656 6.210938 L 0.722656 29.023438 Z M 1.832031 6.210938 C 1.832031 5.445312 2.453125 4.824219 3.21875 4.824219 L 3.21875 3.710938 C 1.839844 3.710938 0.722656 4.832031 0.722656 6.210938 Z M 3.21875 4.824219 L 37.140625 4.824219 L 37.140625 3.710938 L 3.21875 3.710938 Z M 37.140625 4.824219 C 37.910156 4.824219 38.53125 5.445312 38.53125 6.210938 L 39.640625 6.210938 C 39.640625 4.832031 38.523438 3.710938 37.140625 3.710938 Z M 38.53125 6.210938 L 38.53125 29.023438 L 39.640625 29.023438 L 39.640625 6.210938 Z M 38.53125 29.023438 C 38.53125 28.816406 38.691406 28.65625 38.898438 28.65625 L 38.898438 29.765625 C 39.304688 29.765625 39.640625 29.429688 39.640625 29.023438 Z M 12.242188 33.335938 L 28.121094 33.335938 L 28.121094 32.226562 L 12.242188 32.226562 Z M 27.5625 32.78125 L 27.5625 35.789062 L 28.675781 35.789062 L 28.675781 32.78125 Z M 28.121094 35.234375 L 12.242188 35.234375 L 12.242188 36.34375 L 28.121094 36.34375 Z M 12.796875 35.789062 L 12.796875 32.78125 L 11.6875 32.78125 L 11.6875 35.789062 Z M 28.367188 35.675781 L 11.992188 35.675781 L 11.992188 36.785156 L 28.367188 36.785156 Z M 11.992188 35.675781 C 12.195312 35.675781 12.359375 35.835938 12.359375 36.039062 L 11.25 36.039062 C 11.25 36.449219 11.582031 36.785156 11.992188 36.785156 Z M 12.359375 36.039062 L 12.359375 32.53125 L 11.25 32.53125 L 11.25 36.039062 Z M 12.359375 32.53125 C 12.359375 32.734375 12.195312 32.898438 11.992188 32.898438 L 11.992188 31.785156 C 11.582031 31.785156 11.25 32.121094 11.25 32.53125 Z M 11.992188 32.898438 L 28.367188 32.898438 L 28.367188 31.785156 L 11.992188 31.785156 Z M 28.367188 32.898438 C 28.164062 32.898438 28.003906 32.734375 28.003906 32.53125 L 29.113281 32.53125 C 29.113281 32.121094 28.777344 31.785156 28.367188 31.785156 Z M 28.003906 32.53125 L 28.003906 36.039062 L 29.113281 36.039062 L 29.113281 32.53125 Z M 28.003906 36.039062 C 28.003906 35.835938 28.164062 35.675781 28.367188 35.675781 L 28.367188 36.785156 C 28.777344 36.785156 29.113281 36.449219 29.113281 36.039062 Z M 1.097656 30.777344 C 1.097656 31.945312 2.050781 32.898438 3.21875 32.898438 L 3.21875 31.785156 C 2.664062 31.785156 2.207031 31.332031 2.207031 30.777344 Z M 3.21875 32.898438 L 37.140625 32.898438 L 37.140625 31.785156 L 3.21875 31.785156 Z M 37.140625 32.898438 C 38.3125 32.898438 39.261719 31.945312 39.261719 30.777344 L 38.152344 30.777344 C 38.152344 31.332031 37.699219 31.785156 37.140625 31.785156 Z M 37.140625 32.164062 L 3.21875 32.164062 L 3.21875 33.273438 L 37.140625 33.273438 Z M 3.21875 32.164062 C 2.453125 32.164062 1.832031 31.542969 1.832031 30.777344 L 0.722656 30.777344 C 0.722656 32.15625 1.839844 33.273438 3.21875 33.273438 Z M 1.832031 30.777344 L 1.832031 29.023438 L 0.722656 29.023438 L 0.722656 30.777344 Z M 1.832031 29.023438 C 1.832031 29.226562 1.664062 29.386719 1.464844 29.386719 L 1.464844 28.277344 C 1.058594 28.277344 0.722656 28.605469 0.722656 29.023438 Z M 1.464844 29.386719 L 38.898438 29.386719 L 38.898438 28.277344 L 1.464844 28.277344 Z M 38.898438 29.386719 C 38.691406 29.386719 38.53125 29.226562 38.53125 29.023438 L 39.640625 29.023438 C 39.640625 28.613281 39.304688 28.277344 38.898438 28.277344 Z M 38.53125 29.023438 L 38.53125 30.777344 L 39.640625 30.777344 L 39.640625 29.023438 Z M 38.53125 30.777344 C 38.53125 31.542969 37.910156 32.164062 37.140625 32.164062 L 37.140625 33.273438 C 38.523438 33.273438 39.640625 32.15625 39.640625 30.777344 Z M 34.21875 35.675781 L 6.144531 35.675781 L 6.144531 36.785156 L 34.21875 36.785156 Z M 6.144531 35.675781 C 6.347656 35.675781 6.507812 35.835938 6.507812 36.039062 L 5.398438 36.039062 C 5.398438 36.449219 5.734375 36.785156 6.144531 36.785156 Z M 6.507812 36.039062 C 6.507812 36.246094 6.347656 36.40625 6.144531 36.40625 L 6.144531 35.296875 C 5.734375 35.296875 5.398438 35.632812 5.398438 36.039062 Z M 6.144531 36.40625 L 34.21875 36.40625 L 34.21875 35.296875 L 6.144531 35.296875 Z M 34.21875 36.40625 C 34.011719 36.40625 33.851562 36.246094 33.851562 36.039062 L 34.960938 36.039062 C 34.960938 35.632812 34.625 35.296875 34.21875 35.296875 Z M 33.851562 36.039062 C 33.851562 35.835938 34.011719 35.675781 34.21875 35.675781 L 34.21875 36.785156 C 34.625 36.785156 34.960938 36.449219 34.960938 36.039062 Z M 19.960938 30.777344 C 19.960938 30.65625 20.058594 30.554688 20.179688 30.554688 L 20.179688 31.667969 C 20.671875 31.667969 21.070312 31.269531 21.070312 30.777344 Z M 20.179688 30.554688 C 20.300781 30.554688 20.402344 30.65625 20.402344 30.777344 L 19.289062 30.777344 C 19.289062 31.269531 19.6875 31.667969 20.179688 31.667969 Z M 20.402344 30.777344 C 20.402344 30.898438 20.300781 30.996094 20.179688 30.996094 L 20.179688 29.886719 C 19.6875 29.886719 19.289062 30.285156 19.289062 30.777344 Z M 20.179688 30.996094 C 20.058594 30.996094 19.960938 30.898438 19.960938 30.777344 L 21.070312 30.777344 C 21.070312 30.285156 20.671875 29.886719 20.179688 29.886719 Z M 6.269531 15.210938 L 24.558594 15.210938 L 24.558594 14.101562 L 6.269531 14.101562 Z M 24.003906 14.65625 L 24.003906 14.929688 L 25.113281 14.929688 L 25.113281 14.65625 Z M 24.558594 14.371094 L 6.269531 14.371094 L 6.269531 15.484375 L 24.558594 15.484375 Z M 6.824219 14.929688 L 6.824219 14.65625 L 5.714844 14.65625 L 5.714844 14.929688 Z M 8.714844 9.609375 L 7.335938 9.609375 L 7.335938 10.71875 L 8.714844 10.71875 Z M 7.335938 9.609375 C 6.542969 9.609375 5.902344 10.25 5.902344 11.042969 L 7.015625 11.042969 C 7.015625 10.863281 7.15625 10.71875 7.335938 10.71875 Z M 5.902344 11.042969 L 5.902344 14.398438 L 7.015625 14.398438 L 7.015625 11.042969 Z M 6.457031 14.953125 L 9.59375 14.953125 L 9.59375 13.84375 L 6.457031 13.84375 Z M 10.148438 14.398438 L 10.148438 11.042969 L 9.039062 11.042969 L 9.039062 14.398438 Z M 10.148438 11.042969 C 10.148438 10.25 9.507812 9.609375 8.714844 9.609375 L 8.714844 10.71875 C 8.894531 10.71875 9.039062 10.863281 9.039062 11.042969 Z M 23.492188 9.609375 L 22.109375 9.609375 L 22.109375 10.71875 L 23.492188 10.71875 Z M 22.109375 9.609375 C 21.320312 9.609375 20.679688 10.25 20.679688 11.042969 L 21.789062 11.042969 C 21.789062 10.863281 21.933594 10.71875 22.109375 10.71875 Z M 20.679688 11.042969 L 20.679688 14.398438 L 21.789062 14.398438 L 21.789062 11.042969 Z M 21.234375 14.953125 L 24.367188 14.953125 L 24.367188 13.84375 L 21.234375 13.84375 Z M 24.925781 14.398438 L 24.925781 11.042969 L 23.8125 11.042969 L 23.8125 14.398438 Z M 24.925781 11.042969 C 24.925781 10.25 24.285156 9.609375 23.492188 9.609375 L 23.492188 10.71875 C 23.671875 10.71875 23.8125 10.863281 23.8125 11.042969 Z M 13.640625 7.9375 L 12.261719 7.9375 L 12.261719 9.046875 L 13.640625 9.046875 Z M 12.261719 7.9375 C 11.46875 7.9375 10.828125 8.578125 10.828125 9.371094 L 11.941406 9.371094 C 11.941406 9.191406 12.082031 9.046875 12.261719 9.046875 Z M 10.828125 9.371094 L 10.828125 14.398438 L 11.941406 14.398438 L 11.941406 9.371094 Z M 11.382812 14.953125 L 14.519531 14.953125 L 14.519531 13.84375 L 11.382812 13.84375 Z M 15.074219 14.398438 L 15.074219 9.371094 L 13.964844 9.371094 L 13.964844 14.398438 Z M 15.074219 9.371094 C 15.074219 8.585938 14.4375 7.9375 13.640625 7.9375 L 13.640625 9.046875 C 13.820312 9.046875 13.964844 9.195312 13.964844 9.371094 Z M 18.566406 5.890625 L 17.1875 5.890625 L 17.1875 7 L 18.566406 7 Z M 17.1875 5.890625 C 16.394531 5.890625 15.753906 6.53125 15.753906 7.324219 L 16.863281 7.324219 C 16.863281 7.144531 17.007812 7 17.1875 7 Z M 15.753906 7.324219 L 15.753906 14.398438 L 16.863281 14.398438 L 16.863281 7.324219 Z M 16.308594 14.953125 L 19.445312 14.953125 L 19.445312 13.84375 L 16.308594 13.84375 Z M 20 14.398438 L 20 7.324219 L 18.890625 7.324219 L 18.890625 14.398438 Z M 20 7.324219 C 20 6.539062 19.359375 5.890625 18.566406 5.890625 L 18.566406 7 C 18.742188 7 18.890625 7.148438 18.890625 7.324219 Z M 7.445312 23.464844 L 15.253906 25.808594 L 15.574219 24.746094 L 7.765625 22.402344 Z M 15.75 25.722656 L 23.136719 20.136719 L 22.464844 19.25 L 15.078125 24.835938 Z M 22.582031 20.203125 L 32.757812 24.589844 L 33.199219 23.570312 L 23.019531 19.183594 Z M 7.605469 24.632812 C 8.542969 24.632812 9.304688 23.871094 9.304688 22.933594 L 8.195312 22.933594 C 8.195312 23.257812 7.933594 23.523438 7.605469 23.523438 Z M 9.304688 22.933594 C 9.304688 21.992188 8.542969 21.230469 7.605469 21.230469 L 7.605469 22.339844 C 7.933594 22.339844 8.195312 22.605469 8.195312 22.933594 Z M 7.605469 21.230469 C 6.664062 21.230469 5.902344 21.992188 5.902344 22.933594 L 7.015625 22.933594 C 7.015625 22.605469 7.277344 22.339844 7.605469 22.339844 Z M 5.902344 22.933594 C 5.902344 23.871094 6.664062 24.632812 7.605469 24.632812 L 7.605469 23.523438 C 7.277344 23.523438 7.015625 23.257812 7.015625 22.933594 Z M 15.421875 26.980469 C 16.359375 26.980469 17.121094 26.21875 17.121094 25.277344 L 16.011719 25.277344 C 16.011719 25.605469 15.746094 25.871094 15.421875 25.871094 Z M 17.121094 25.277344 C 17.121094 24.339844 16.359375 23.578125 15.421875 23.578125 L 15.421875 24.6875 C 15.746094 24.6875 16.011719 24.953125 16.011719 25.277344 Z M 15.421875 23.578125 C 14.480469 23.578125 13.71875 24.339844 13.71875 25.277344 L 14.828125 25.277344 C 14.828125 24.953125 15.09375 24.6875 15.421875 24.6875 Z M 13.71875 25.277344 C 13.71875 26.21875 14.480469 26.980469 15.421875 26.980469 L 15.421875 25.871094 C 15.09375 25.871094 14.828125 25.605469 14.828125 25.277344 Z M 22.800781 21.394531 C 23.742188 21.394531 24.503906 20.632812 24.503906 19.691406 L 23.390625 19.691406 C 23.390625 20.019531 23.128906 20.285156 22.800781 20.285156 Z M 24.503906 19.691406 C 24.503906 18.753906 23.742188 17.992188 22.800781 17.992188 L 22.800781 19.101562 C 23.128906 19.101562 23.390625 19.367188 23.390625 19.691406 Z M 22.800781 17.992188 C 21.859375 17.992188 21.097656 18.753906 21.097656 19.691406 L 22.210938 19.691406 C 22.210938 19.367188 22.472656 19.101562 22.800781 19.101562 Z M 21.097656 19.691406 C 21.097656 20.632812 21.859375 21.394531 22.800781 21.394531 L 22.800781 20.285156 C 22.472656 20.285156 22.210938 20.019531 22.210938 19.691406 Z M 32.976562 25.832031 C 33.917969 25.832031 34.679688 25.070312 34.679688 24.132812 L 33.570312 24.132812 C 33.570312 24.457031 33.304688 24.722656 32.976562 24.722656 Z M 34.679688 24.132812 C 34.679688 23.191406 33.917969 22.429688 32.976562 22.429688 L 32.976562 23.539062 C 33.304688 23.539062 33.570312 23.804688 33.570312 24.132812 Z M 32.976562 22.429688 C 32.039062 22.429688 31.277344 23.191406 31.277344 24.132812 L 32.386719 24.132812 C 32.386719 23.804688 32.652344 23.539062 32.976562 23.539062 Z M 31.277344 24.132812 C 31.277344 25.070312 32.039062 25.832031 32.976562 25.832031 L 32.976562 24.722656 C 32.652344 24.722656 32.386719 24.457031 32.386719 24.132812 Z M 26.632812 25.007812 L 29.070312 25.007812 L 29.070312 23.898438 L 26.632812 23.898438 Z M 24.601562 26.785156 L 29.070312 26.785156 L 29.070312 25.675781 L 24.601562 25.675781 Z M 32.597656 13.175781 L 35.207031 13.175781 L 35.207031 12.066406 L 32.597656 12.066406 Z M 33.773438 11.398438 L 35.207031 11.398438 L 35.207031 10.289062 L 33.773438 10.289062 Z M 30.742188 14.960938 L 35.207031 14.960938 L 35.207031 13.851562 L 30.742188 13.851562 Z M 1.097656 6.210938 L 1.097656 28.832031 L 2.207031 28.832031 L 2.207031 6.210938 Z M 1.652344 29.386719 L 38.707031 29.386719 L 38.707031 28.277344 L 1.652344 28.277344 Z M 39.261719 28.832031 L 39.261719 6.210938 L 38.152344 6.210938 L 38.152344 28.832031 Z M 11.625 32.71875 L 11.625 35.851562 L 12.734375 35.851562 L 12.734375 32.71875 Z M 12.179688 36.40625 L 28.179688 36.40625 L 28.179688 35.296875 L 12.179688 35.296875 Z M 28.734375 35.851562 L 28.734375 32.71875 L 27.625 32.71875 L 27.625 35.851562 Z M 28.179688 32.164062 L 12.179688 32.164062 L 12.179688 33.273438 L 28.179688 33.273438 Z M 38.707031 28.65625 L 1.652344 28.65625 L 1.652344 29.765625 L 38.707031 29.765625 Z M 1.097656 29.210938 L 1.097656 30.777344 L 2.207031 30.777344 L 2.207031 29.210938 Z M 39.261719 30.777344 L 39.261719 29.210938 L 38.152344 29.210938 L 38.152344 30.777344 Z M 39.261719 30.777344 " fill-opacity="1" fill-rule="nonzero"/></svg>