<svg xmlns="http://www.w3.org/2000/svg" xmlns:xlink="http://www.w3.org/1999/xlink" width="54" zoomAndPan="magnify" viewBox="0 0 40.5 40.5" height="54" preserveAspectRatio="xMidYMid meet" version="1.0"><path fill="#508167" d="M 34.472656 26.316406 C 35.019531 26.9375 34.988281 27.847656 34.390625 28.636719 C 33.523438 29.773438 29.03125 32.355469 28.519531 32.644531 C 28.4375 32.695312 28.34375 32.71875 28.25 32.71875 C 28.0625 32.71875 27.875 32.617188 27.773438 32.441406 C 27.625 32.179688 27.71875 31.84375 27.980469 31.695312 C 30.75 30.113281 33.082031 28.546875 33.519531 27.972656 C 33.796875 27.609375 33.84375 27.257812 33.652344 27.039062 C 33.453125 26.8125 32.964844 26.722656 32.367188 27.066406 C 30.566406 28.105469 25.671875 30.457031 23.058594 31.191406 C 22.34375 31.488281 21.425781 31.605469 20.46875 31.605469 C 18.503906 31.605469 16.382812 31.109375 15.53125 30.667969 C 15.261719 30.527344 15.160156 30.199219 15.296875 29.929688 C 15.4375 29.660156 15.769531 29.558594 16.035156 29.695312 C 16.679688 30.03125 18.328125 30.421875 19.964844 30.496094 C 21.113281 30.542969 22.042969 30.433594 22.636719 30.1875 C 22.664062 30.171875 22.691406 30.160156 22.71875 30.152344 C 22.984375 30.03125 23.171875 29.882812 23.277344 29.707031 C 23.457031 29.402344 23.457031 29.035156 23.273438 28.726562 C 23.09375 28.421875 22.773438 28.246094 22.417969 28.257812 C 22.410156 28.257812 22.402344 28.257812 22.394531 28.257812 C 18.980469 28.257812 16.710938 27.316406 14.886719 26.5625 C 13.273438 25.890625 12.109375 25.40625 10.746094 25.738281 C 9.289062 26.089844 7.597656 27.433594 5.441406 29.949219 L 10.136719 34.644531 C 12.007812 33.796875 14.074219 33.835938 15.875 33.945312 C 16.34375 33.972656 16.828125 34.011719 17.34375 34.054688 C 18.523438 34.148438 19.746094 34.246094 20.898438 34.222656 C 22.925781 34.175781 24.21875 33.691406 26.042969 32.75 C 26.308594 32.613281 26.640625 32.71875 26.777344 32.984375 C 26.917969 33.253906 26.8125 33.585938 26.542969 33.722656 C 24.617188 34.71875 23.148438 35.265625 20.921875 35.316406 C 19.714844 35.34375 18.464844 35.242188 17.253906 35.144531 C 16.746094 35.101562 16.265625 35.066406 15.808594 35.039062 C 13.792969 34.917969 12.222656 34.964844 10.804688 35.546875 C 11.011719 36.136719 10.882812 36.820312 10.410156 37.292969 L 8.171875 39.53125 C 8.070312 39.636719 7.929688 39.691406 7.785156 39.691406 C 7.640625 39.691406 7.5 39.636719 7.398438 39.53125 L 3.480469 35.617188 C 3.265625 35.402344 3.265625 35.054688 3.480469 34.84375 C 3.695312 34.628906 4.039062 34.628906 4.253906 34.84375 L 7.785156 38.371094 L 9.636719 36.519531 C 9.867188 36.292969 9.867188 35.921875 9.636719 35.695312 L 4.3125 30.367188 C 4.085938 30.140625 3.714844 30.140625 3.488281 30.367188 L 1.632812 32.222656 L 2.742188 33.328125 C 2.953125 33.542969 2.953125 33.890625 2.742188 34.101562 C 2.527344 34.316406 2.179688 34.316406 1.96875 34.101562 L 0.472656 32.609375 C 0.257812 32.394531 0.257812 32.046875 0.472656 31.835938 L 2.714844 29.59375 C 3.222656 29.085938 3.976562 28.972656 4.59375 29.257812 C 6.945312 26.507812 8.769531 25.089844 10.488281 24.675781 C 12.199219 24.261719 13.640625 24.859375 15.308594 25.550781 C 17.128906 26.304688 19.195312 27.164062 22.386719 27.164062 C 23.140625 27.140625 23.828125 27.515625 24.214844 28.167969 C 24.472656 28.601562 24.558594 29.085938 24.480469 29.554688 C 27.054688 28.570312 30.449219 26.914062 31.820312 26.121094 C 32.957031 25.464844 33.972656 25.746094 34.472656 26.316406 Z M 12.671875 7.792969 L 12.671875 0.859375 C 12.671875 0.714844 12.730469 0.574219 12.832031 0.472656 C 12.933594 0.371094 13.074219 0.3125 13.21875 0.3125 L 25.132812 0.3125 C 25.660156 0.3125 26.140625 0.523438 26.527344 0.921875 L 31.265625 5.65625 C 31.664062 6.042969 31.871094 6.527344 31.871094 7.054688 L 31.871094 15.363281 C 31.871094 15.664062 31.628906 15.910156 31.324219 15.910156 C 31.023438 15.910156 30.777344 15.664062 30.777344 15.363281 L 30.777344 7.054688 C 30.777344 6.820312 30.6875 6.621094 30.5 6.441406 C 30.5 6.4375 30.496094 6.4375 30.492188 6.433594 L 30.460938 6.402344 C 30.265625 6.210938 30.007812 6.109375 29.738281 6.109375 L 26.625 6.109375 C 26.320312 6.109375 26.078125 5.863281 26.078125 5.5625 L 26.078125 2.445312 C 26.078125 2.175781 25.972656 1.921875 25.785156 1.726562 L 25.75 1.691406 C 25.75 1.691406 25.746094 1.6875 25.746094 1.683594 C 25.5625 1.496094 25.363281 1.40625 25.132812 1.40625 L 13.765625 1.40625 L 13.765625 7.792969 C 13.765625 8.09375 13.519531 8.339844 13.21875 8.339844 C 12.917969 8.339844 12.671875 8.09375 12.671875 7.792969 Z M 29.074219 5.015625 L 27.171875 3.109375 L 27.171875 5.015625 Z M 13.21875 24.527344 L 27.21875 24.527344 C 27.519531 24.527344 27.765625 24.28125 27.765625 23.980469 C 27.765625 23.675781 27.519531 23.433594 27.21875 23.433594 L 13.765625 23.433594 L 13.765625 9.929688 C 13.765625 9.628906 13.519531 9.382812 13.21875 9.382812 C 12.917969 9.382812 12.671875 9.628906 12.671875 9.929688 L 12.671875 23.980469 C 12.671875 24.28125 12.917969 24.527344 13.21875 24.527344 Z M 20.257812 5.988281 C 19.957031 5.988281 19.710938 6.234375 19.710938 6.535156 C 19.710938 6.835938 19.957031 7.082031 20.257812 7.082031 L 22.414062 7.082031 C 22.714844 7.082031 22.960938 6.835938 22.960938 6.535156 L 22.960938 3.839844 C 22.960938 3.539062 22.714844 3.292969 22.414062 3.292969 L 15.964844 3.292969 C 15.664062 3.292969 15.417969 3.539062 15.417969 3.839844 L 15.417969 6.535156 C 15.417969 6.835938 15.664062 7.082031 15.964844 7.082031 L 18.121094 7.082031 C 18.421875 7.082031 18.667969 6.835938 18.667969 6.535156 C 18.667969 6.234375 18.421875 5.988281 18.121094 5.988281 L 16.511719 5.988281 L 16.511719 4.386719 L 21.867188 4.386719 L 21.867188 5.988281 Z M 39.402344 12.550781 L 35.527344 19.257812 C 35.378906 19.519531 35.042969 19.609375 34.78125 19.460938 C 34.519531 19.308594 34.429688 18.972656 34.582031 18.710938 L 36.378906 15.597656 L 34.488281 14.503906 L 30.492188 21.429688 L 32.382812 22.523438 L 33.511719 20.566406 C 33.664062 20.304688 33.996094 20.214844 34.257812 20.363281 C 34.519531 20.515625 34.609375 20.851562 34.460938 21.113281 L 33.054688 23.542969 C 33.050781 23.546875 33.046875 23.550781 33.046875 23.558594 C 33.039062 23.570312 33.03125 23.582031 33.023438 23.59375 C 33.015625 23.601562 33.007812 23.609375 33.003906 23.617188 C 32.996094 23.625 32.988281 23.636719 32.976562 23.644531 C 32.96875 23.652344 32.964844 23.660156 32.957031 23.667969 C 32.953125 23.671875 32.949219 23.675781 32.945312 23.675781 L 29.40625 26.851562 C 29.273438 26.972656 29.101562 27.035156 28.929688 27.035156 C 28.808594 27.035156 28.683594 27.003906 28.570312 26.9375 C 28.304688 26.78125 28.167969 26.476562 28.230469 26.171875 L 29.210938 21.519531 C 29.210938 21.519531 29.210938 21.519531 29.210938 21.515625 C 29.214844 21.496094 29.21875 21.476562 29.226562 21.457031 C 29.234375 21.4375 29.238281 21.417969 29.25 21.402344 C 29.25 21.394531 29.253906 21.390625 29.257812 21.382812 C 29.261719 21.375 29.265625 21.367188 29.269531 21.359375 L 35.617188 10.367188 C 35.90625 9.863281 36.378906 9.5 36.945312 9.347656 C 37.507812 9.199219 38.097656 9.273438 38.601562 9.566406 C 39.105469 9.855469 39.464844 10.328125 39.617188 10.894531 C 39.769531 11.457031 39.691406 12.046875 39.402344 12.550781 Z M 31.65625 23.367188 L 30.125 22.480469 L 29.539062 25.261719 Z M 36.925781 14.648438 L 37.519531 13.625 L 35.628906 12.53125 L 35.035156 13.558594 Z M 38.5625 11.175781 C 38.484375 10.894531 38.304688 10.65625 38.054688 10.511719 C 37.804688 10.367188 37.511719 10.332031 37.226562 10.40625 C 36.945312 10.480469 36.710938 10.660156 36.566406 10.914062 L 36.175781 11.585938 L 38.066406 12.675781 L 38.453125 12.003906 C 38.597656 11.753906 38.636719 11.460938 38.5625 11.175781 Z M 28.578125 11.261719 L 15.964844 11.261719 C 15.664062 11.261719 15.417969 11.507812 15.417969 11.808594 C 15.417969 12.113281 15.664062 12.355469 15.964844 12.355469 L 28.578125 12.355469 C 28.878906 12.355469 29.125 12.113281 29.125 11.808594 C 29.125 11.507812 28.878906 11.261719 28.578125 11.261719 Z M 28.578125 8.539062 L 15.964844 8.539062 C 15.664062 8.539062 15.417969 8.78125 15.417969 9.085938 C 15.417969 9.386719 15.664062 9.632812 15.964844 9.632812 L 28.578125 9.632812 C 28.878906 9.632812 29.125 9.386719 29.125 9.085938 C 29.125 8.78125 28.878906 8.539062 28.578125 8.539062 Z M 15.964844 19.9375 C 15.664062 19.9375 15.417969 20.179688 15.417969 20.484375 C 15.417969 20.785156 15.664062 21.03125 15.964844 21.03125 L 18.367188 21.03125 C 18.671875 21.03125 18.914062 20.785156 18.914062 20.484375 C 18.914062 20.179688 18.671875 19.9375 18.367188 19.9375 Z M 28.578125 13.988281 L 15.964844 13.988281 C 15.664062 13.988281 15.417969 14.230469 15.417969 14.535156 C 15.417969 14.835938 15.664062 15.082031 15.964844 15.082031 L 28.578125 15.082031 C 28.878906 15.082031 29.125 14.835938 29.125 14.535156 C 29.125 14.230469 28.878906 13.988281 28.578125 13.988281 Z M 29.125 17.257812 C 29.125 16.957031 28.878906 16.710938 28.578125 16.710938 L 15.964844 16.710938 C 15.664062 16.710938 15.417969 16.957031 15.417969 17.257812 C 15.417969 17.5625 15.664062 17.804688 15.964844 17.804688 L 28.578125 17.804688 C 28.878906 17.804688 29.125 17.5625 29.125 17.257812 Z M 29.125 17.257812 " fill-opacity="1" fill-rule="nonzero"/></svg>