<svg width="80" height="80" viewBox="0 0 80 80" fill="none" xmlns="http://www.w3.org/2000/svg">
<path d="M75.3659 7.31707H72.561V3.41463C72.561 1.58537 71.0976 0 69.1463 0H45.9756C44.1463 0 42.6829 1.46341 42.6829 3.41463V7.31707H4.63415C2.07317 7.31707 0 9.39024 0 11.9512V15.6098V25.3659V35.122V44.878V54.6341V64.3902V68.0488C0 70.6098 2.07317 72.6829 4.63415 72.6829H21.9512V78.0488H10.7317C10.122 78.0488 9.7561 78.4146 9.7561 79.0244C9.7561 79.5122 10.122 80 10.7317 80H22.9268H57.0732H69.2683C69.7561 80 70.2439 79.6342 70.2439 79.0244C70.2439 78.5366 69.8781 78.0488 69.2683 78.0488H57.9268V72.561H75.3659C77.9268 72.561 80 70.4878 80 67.9268V64.2683V11.8293C79.8781 9.39024 77.8049 7.31707 75.3659 7.31707ZM44.5122 16.4634V15.4878V14.6341V9.14634V8.29268V7.31707V3.41463C44.5122 2.56098 45.2439 1.82927 46.0976 1.82927H69.2683C70.1219 1.82927 70.8537 2.56098 70.8537 3.41463V7.31707V8.29268V9.26829V40.122C70.8537 40.9756 70.1219 41.7073 69.2683 41.7073H54.2683H53.2927H52.439H45.9756C45.122 41.7073 44.3902 40.9756 44.3902 40.122V16.4634H44.5122ZM46.0976 43.2927H52.439V56.0976H17.6829V16.4634H42.6829V40C42.6829 41.8293 44.1463 43.2927 46.0976 43.2927ZM1.82927 16.4634H8.29268C9.14634 16.4634 9.87805 17.1951 9.87805 18.0488V24.3902H1.82927V16.4634ZM1.82927 26.2195H9.7561V34.1463H1.82927V26.2195ZM1.82927 35.9756H9.7561V43.9024H1.82927V35.9756ZM1.82927 45.7317H9.7561V52.1951C9.7561 52.9268 9.02439 53.6585 8.29268 53.6585H1.82927V45.7317ZM56.0976 78.0488H23.7805V72.561H56.0976V78.0488ZM78.0488 68.0488C78.0488 69.5122 76.8293 70.8537 75.2439 70.8537H56.9512H22.8049H4.5122C3.04878 70.8537 1.70732 69.6341 1.70732 68.0488V65.2439H78.0488V68.0488ZM78.0488 63.4146H1.82927V55.4878H8.29268C10.122 55.4878 11.7073 54.0244 11.7073 52.0732V44.7561V35V25.2439V17.9268C11.7073 16.0976 10.2439 14.5122 8.29268 14.5122H1.82927V11.9512C1.82927 10.4878 3.04878 9.14634 4.63415 9.14634H42.6829V14.6341H16.8293C16.3415 14.6341 15.8537 15 15.8537 15.6098V57.0732C15.8537 57.561 16.2195 58.0488 16.8293 58.0488H53.4146C53.9024 58.0488 54.3902 57.6829 54.3902 57.0732V43.2927H69.3903C71.2195 43.2927 72.8049 41.8293 72.8049 39.8781V9.14634H75.6098C77.0732 9.14634 78.4146 10.3659 78.4146 11.9512V63.4146H78.0488Z" fill="#5AC8FF"/>
<path d="M39.9998 69.2683C40.6733 69.2683 41.2193 68.7223 41.2193 68.0488C41.2193 67.3752 40.6733 66.8293 39.9998 66.8293C39.3263 66.8293 38.7803 67.3752 38.7803 68.0488C38.7803 68.7223 39.3263 69.2683 39.9998 69.2683Z" fill="#5AC8FF"/>
<path d="M46.9512 8.90244C46.9512 9.02439 46.9512 9.02439 46.9512 9.14634C47.0731 11.2195 48.7804 12.8049 50.8536 12.8049C52.6829 12.8049 54.2682 11.4634 54.6341 9.7561H67.317C67.6829 9.7561 68.0487 9.5122 68.1707 9.14634C68.2926 9.02439 68.2926 8.90244 68.2926 8.90244C68.2926 8.65854 68.1707 8.41464 68.0487 8.29269C67.9268 8.04878 67.6829 7.92683 67.317 7.92683H54.7561C54.7561 7.68293 54.6341 7.56098 54.5121 7.31708C53.9024 5.85366 52.5609 4.87805 50.8536 4.87805C49.1463 4.87805 47.8048 5.85366 47.1951 7.31708C47.0731 7.56098 46.9512 7.92683 46.9512 8.29269C46.9512 8.41464 46.9512 8.65854 46.9512 8.90244C46.9512 8.78049 46.9512 8.78049 46.9512 8.90244C46.9512 8.78049 46.9512 8.78049 46.9512 8.90244ZM48.9024 8.29269C48.9024 8.17073 49.0243 8.04878 49.0243 7.92683C49.1463 7.68293 49.2682 7.43903 49.3902 7.31708C49.7561 6.95122 50.3658 6.70732 50.9756 6.70732C51.0975 6.70732 51.2195 6.70732 51.4634 6.70732C51.8292 6.82927 52.1951 7.07317 52.439 7.31708C52.5609 7.43903 52.8048 7.68293 52.8048 7.92683C52.8048 8.04878 52.9268 8.17073 52.9268 8.29269C52.9268 8.53659 53.0487 8.65854 53.0487 8.90244C53.0487 9.02439 53.0487 9.14634 53.0487 9.2683C53.0487 9.5122 52.9268 9.63415 52.8048 9.87805C52.439 10.6098 51.7073 11.0976 50.8536 11.0976C50 11.0976 49.2682 10.6098 48.9024 9.87805C48.7804 9.7561 48.7804 9.5122 48.7804 9.39025C48.7804 9.39025 48.7804 9.39025 48.7804 9.2683C48.7804 9.14634 48.7804 9.02439 48.7804 8.90244C48.7804 8.65854 48.7804 8.41464 48.9024 8.29269Z" fill="#5AC8FF"/>
<path d="M47.9276 18.2927H52.4398H53.4154H54.3911H58.1715C58.6593 20 60.1228 21.3415 61.952 21.3415C63.7813 21.3415 65.3667 20 65.7325 18.2927H67.4398C67.9276 18.2927 68.4154 17.9268 68.4154 17.3171C68.4154 16.7073 68.0496 16.3415 67.4398 16.3415H65.8545C65.4886 14.6341 63.9032 13.2927 61.952 13.2927C60.0008 13.2927 58.5374 14.6341 58.0496 16.3415H54.2691H53.2935H52.4398H47.8057C47.3179 16.3415 46.8301 16.7073 46.8301 17.3171C46.8301 17.9268 47.3179 18.2927 47.9276 18.2927ZM60.0008 16.4634C60.3667 15.7317 61.0984 15.2439 61.952 15.2439C62.074 15.2439 62.1959 15.2439 62.4398 15.2439C63.0496 15.3658 63.6593 15.8537 63.9032 16.4634C64.0252 16.7073 64.1471 17.0732 64.1471 17.3171C64.1471 17.6829 64.0252 17.9268 63.9032 18.2927C63.5374 19.0244 62.8057 19.5122 61.952 19.5122C61.0984 19.5122 60.3667 19.0244 60.0008 18.2927C59.8789 18.1707 59.8789 17.9268 59.8789 17.8049C59.8789 17.6829 59.8789 17.561 59.8789 17.3171C59.7569 17.0732 59.8789 16.7073 60.0008 16.4634Z" fill="#5AC8FF"/>
<path d="M47.9259 26.8293H50.8528C51.0967 27.8049 51.7064 28.6585 52.5601 29.2683C52.804 29.3902 53.1698 29.6342 53.5357 29.6342C53.7796 29.7561 54.1454 29.7561 54.5113 29.7561C54.6332 29.7561 54.7552 29.7561 54.8771 29.7561C56.7064 29.7561 58.2918 28.4146 58.6576 26.7073H67.682C68.1698 26.7073 68.6576 26.3415 68.6576 25.7317C68.6576 25.2439 68.2918 24.7561 67.682 24.7561H58.7796C58.4137 23.0488 56.8284 21.7073 54.8771 21.7073C54.7552 21.7073 54.6332 21.7073 54.5113 21.7073C54.1454 21.7073 53.9015 21.8293 53.5357 21.8293C53.1698 21.9512 52.9259 22.0732 52.5601 22.1951C51.7064 22.8049 51.0967 23.6585 50.8528 24.6342H48.0479C47.5601 24.6342 47.0723 25 47.0723 25.6098C47.0723 26.2195 47.3162 26.8293 47.9259 26.8293ZM52.682 25C52.804 24.6342 53.0479 24.3902 53.4137 24.1463C53.6576 23.9024 54.0235 23.7805 54.3893 23.7805C54.5113 23.7805 54.6332 23.7805 54.7552 23.7805C54.8771 23.7805 54.9991 23.7805 55.243 23.7805C55.8528 23.9024 56.4625 24.3902 56.7064 25C56.8284 25.2439 56.9503 25.6098 56.9503 25.8537C56.9503 26.2195 56.8284 26.4634 56.7064 26.8293C56.3406 27.561 55.6089 28.0488 54.7552 28.0488C54.6332 28.0488 54.5113 28.0488 54.3893 28.0488C54.0235 28.0488 53.7796 27.9268 53.4137 27.6829C53.1698 27.439 52.9259 27.1951 52.682 26.8293C52.5601 26.7073 52.5601 26.4634 52.5601 26.3415C52.5601 26.2195 52.5601 26.0976 52.5601 25.8537C52.4381 25.6098 52.5601 25.2439 52.682 25Z" fill="#5AC8FF"/>
<path d="M47.9276 35.3659H52.4398H53.4154H54.3911H60.6106C60.9764 37.0732 62.5618 38.4146 64.3911 38.4146C66.5862 38.4146 68.2935 36.7073 68.2935 34.5122C68.2935 32.3171 66.4642 30.4878 64.2691 30.4878C62.4398 30.4878 60.8545 31.8293 60.3667 33.5366H54.1472H53.1715H52.4398H47.8057C47.3179 33.5366 46.8301 33.9024 46.8301 34.5122C46.8301 35.122 47.3179 35.3659 47.9276 35.3659ZM62.1959 34.0244C62.1959 34.0244 62.1959 33.9024 62.1959 34.0244C62.1959 33.7805 62.3179 33.6585 62.3179 33.5366C62.6837 32.8049 63.4154 32.3171 64.2691 32.3171C65.1228 32.3171 65.8545 32.8049 66.2203 33.5366C66.3423 33.7805 66.4642 34.1463 66.4642 34.3902C66.4642 34.7561 66.3423 35 66.2203 35.3659C65.9764 35.9756 65.4886 36.3415 64.7569 36.4634C64.635 36.4634 64.513 36.4634 64.2691 36.4634C63.4154 36.4634 62.6837 35.9756 62.3179 35.2439C62.1959 35 62.074 34.6342 62.074 34.2683C62.1959 34.2683 62.1959 34.1463 62.1959 34.0244Z" fill="#5AC8FF"/>
<path d="M71.9508 51.8293L59.7556 47.561C59.3898 47.439 59.0239 47.561 58.78 47.8049C58.5361 48.0488 58.5361 48.4146 58.5361 48.7805L62.6825 60.9756C62.8044 61.3415 63.1703 61.5854 63.5361 61.5854C63.902 61.5854 64.2678 61.3415 64.3898 61.0975L66.7069 55.8536L71.9508 53.5366C72.3166 53.4146 72.5605 53.0488 72.4386 52.6829C72.5605 52.1951 72.3166 51.9512 71.9508 51.8293ZM65.7313 54.2683C65.4874 54.3902 65.3654 54.5122 65.2435 54.7561L63.6581 58.1707L60.9752 50L69.1459 52.8049L65.7313 54.2683Z" fill="#5AC8FF"/>
<path d="M40.2443 32.3171H38.4151C37.9273 32.3171 37.4395 32.6829 37.4395 33.2927C37.4395 33.9024 37.8053 34.2683 38.4151 34.2683H39.3907V35.2439C39.3907 35.7317 39.7565 36.2195 40.3663 36.2195C40.8541 36.2195 41.3419 35.8537 41.3419 35.2439V33.4146C41.2199 32.6829 40.7321 32.3171 40.2443 32.3171Z" fill="#5AC8FF"/>
<path d="M22.5607 32.3171H20.7315C20.2437 32.3171 19.7559 32.6829 19.7559 33.2927V35.122C19.7559 35.6098 20.1217 36.0976 20.7315 36.0976C21.2193 36.0976 21.7071 35.7317 21.7071 35.122V34.1463H22.6827C23.1705 34.1463 23.6583 33.7805 23.6583 33.1707C23.6583 32.561 23.0485 32.3171 22.5607 32.3171Z" fill="#5AC8FF"/>
<path d="M20.7315 46.0976C21.2193 46.0976 21.7071 45.7317 21.7071 45.122V40.8537C21.7071 40.3659 21.3412 39.8781 20.7315 39.8781C20.1217 39.8781 19.7559 40.2439 19.7559 40.8537V45.122C19.8778 45.6098 20.2437 46.0976 20.7315 46.0976Z" fill="#5AC8FF"/>
<path d="M22.5606 51.8293H21.585V50.8537C21.585 50.3659 21.2192 49.8781 20.6094 49.8781C19.9996 49.8781 19.6338 50.2439 19.6338 50.8537V52.6829C19.6338 53.1707 19.9996 53.6585 20.6094 53.6585H22.4387C22.9265 53.6585 23.4143 53.2927 23.4143 52.6829C23.4143 52.0732 23.0484 51.8293 22.5606 51.8293Z" fill="#5AC8FF"/>
<path d="M32.6834 51.8293H28.4151C27.9273 51.8293 27.4395 52.1951 27.4395 52.8049C27.4395 53.4146 27.8053 53.7805 28.4151 53.7805H32.6834C33.1712 53.7805 33.659 53.4146 33.659 52.8049C33.659 52.1951 33.1712 51.8293 32.6834 51.8293Z" fill="#5AC8FF"/>
<path d="M40.2432 50C39.7554 50 39.2676 50.3659 39.2676 50.9756V51.9512H38.292C37.8042 51.9512 37.3164 52.3171 37.3164 52.9268C37.3164 53.5366 37.6823 53.9024 38.292 53.9024H40.2432C40.731 53.9024 41.2188 53.5366 41.2188 52.9268V51.0976C41.2188 50.3659 40.731 50 40.2432 50Z" fill="#5AC8FF"/>
<path d="M40.2442 39.8781C39.7564 39.8781 39.2686 40.2439 39.2686 40.8537V45.122C39.2686 45.6098 39.6344 46.0976 40.2442 46.0976C40.732 46.0976 41.2198 45.7317 41.2198 45.122V40.8537C41.2198 40.3659 40.732 39.8781 40.2442 39.8781Z" fill="#5AC8FF"/>
<path d="M40.2432 26.2195C39.7554 26.2195 39.2676 26.5854 39.2676 27.1951V28.0488H38.292C37.8042 28.0488 37.3164 28.4146 37.3164 29.0244C37.3164 29.5122 37.6823 30 38.292 30H40.2432C40.731 30 41.2188 29.6341 41.2188 29.0244V27.1951C41.2188 26.5854 40.731 26.2195 40.2432 26.2195Z" fill="#5AC8FF"/>
<path d="M40.2443 18.2927H38.4151C37.9273 18.2927 37.4395 18.6585 37.4395 19.2683C37.4395 19.7561 37.8053 20.2439 38.4151 20.2439H39.3907V21.2195C39.3907 21.7073 39.7565 22.1951 40.3663 22.1951C40.976 22.1951 41.3419 21.8293 41.3419 21.2195V19.3902C41.2199 18.6585 40.7321 18.2927 40.2443 18.2927Z" fill="#5AC8FF"/>
<path d="M28.2931 20.1219H32.5614C33.0492 20.1219 33.537 19.7561 33.537 19.1463C33.537 18.5366 33.1712 18.2927 32.6834 18.2927H28.4151C27.9273 18.2927 27.4395 18.6585 27.4395 19.2683C27.4395 19.7561 27.8053 20.1219 28.2931 20.1219Z" fill="#5AC8FF"/>
<path d="M22.5607 18.2927H20.7315C20.2437 18.2927 19.7559 18.6585 19.7559 19.2683V21.0976C19.7559 21.5854 20.1217 22.0732 20.7315 22.0732C21.3412 22.0732 21.7071 21.7073 21.7071 21.0976V20.1219H22.6827C23.1705 20.1219 23.6583 19.7561 23.6583 19.1463C23.6583 18.5366 23.0485 18.2927 22.5607 18.2927Z" fill="#5AC8FF"/>
<path d="M22.5606 28.0488H21.585V27.0732C21.585 26.5854 21.2192 26.0975 20.6094 26.0975C19.9996 26.0975 19.6338 26.4634 19.6338 27.0732V28.9024C19.6338 29.3902 19.9996 29.878 20.6094 29.878H22.4387C22.9265 29.878 23.4143 29.5122 23.4143 28.9024C23.4143 28.2927 23.0484 28.0488 22.5606 28.0488Z" fill="#5AC8FF"/>
<path d="M28.2931 29.8781H32.5614C33.0492 29.8781 33.537 29.5122 33.537 28.9024C33.537 28.2927 33.1712 28.0488 32.6834 28.0488H28.4151C27.9273 28.0488 27.4395 28.4146 27.4395 29.0244C27.4395 29.5122 27.8053 29.8781 28.2931 29.8781Z" fill="#5AC8FF"/>
</svg>
