<svg fill="none" height="60" viewBox="0 0 60 60" width="60" xmlns="http://www.w3.org/2000/svg"><g fill="#5ac8ff"><path d="m27.2012 31.0848 3.8822-3.8826c.0762-.0761.1367-.1665.178-.266.0412-.0995.0624-.2062.0624-.3139s-.0212-.2143-.0624-.3138c-.0413-.0995-.1018-.1899-.178-.266l-2.0681-2.0681c.4251-.7791.7659-1.6012 1.0167-2.4525h2.9231c.2176 0 .4262-.0865.5801-.2403.1538-.1538.2402-.3625.2402-.5801v-5.49c0-.2175-.0864-.4262-.2402-.58-.1539-.1538-.3625-.2403-.5801-.2403h-2.9165c-.251-.8525-.593-1.6755-1.02-2.4548l2.0648-2.06533c.0762-.07614.1367-.16656.178-.2661.0412-.09953.0625-.20622.0625-.31397s-.0213-.21445-.0625-.31398c-.0413-.09954-.1018-.18996-.178-.2661l-3.8822-3.88266c-.0761-.07622-.1665-.13669-.266-.17795s-.2061-.0625-.3138-.0625-.2144.02124-.3139.0625-.1899.10173-.266.17795l-2.0653 2.06578c-.7793-.42705-1.6023-.76902-2.4548-1.02v-2.9175c0-.10774-.0211-.21444-.0624-.31399-.0412-.09955-.1016-.19001-.1778-.26619-.0761-.07619-.1666-.13661-.2662-.17781-.0995-.04121-.2062-.06238-.3139-.06232h-5.4905c-.1078-.00006-.2145.02111-.314.06232-.0996.0412-.19.10162-.2662.17781-.0762.07618-.1366.16664-.1778.26619s-.0624.20625-.0623.31399v2.92266c-.8512.25107-1.6731.59206-2.4521 1.01719l-2.06761-2.06813c-.07615-.07624-.16657-.13672-.26611-.17798-.09953-.04127-.20622-.06251-.31397-.06251s-.21444.02124-.31398.06251c-.09953.04126-.18996.10174-.2661.17798l-3.88266 3.88266c-.07623.07614-.13671.16656-.17798.2661-.04126.09953-.0625.20623-.0625.31398s.02124.21444.0625.31397c.04127.09954.10175.18996.17798.2661l2.06719 2.06763c-.4251.7791-.76608 1.6013-1.01719 2.4525h-2.92172c-.10774 0-.21444.0211-.31399.0623-.09955.0413-.19001.1017-.26619.1779-.07619.0761-.13661.1666-.17781.2662-.0412.0995-.06238.2062-.06232.3139v5.49c-.00006.1078.02112.2145.06232.314.0412.0996.10162.19.17781.2662.07618.0762.16664.1366.26619.1778s.20625.0624.31399.0624h2.91704c.2511.8525.59322 1.6755 1.02046 2.4548l-2.06578 2.0658c-.07622.0761-.13669.1665-.17795.266s-.06249.2061-.06249.3138.02123.2144.06249.3139.10173.1899.17795.266l3.88172 3.8826c.15396.1537.36258.2399.58008.2399s.42612-.0862.58008-.2399l2.06535-2.0658c.7795.4271 1.6027.7692 2.4553 1.0205v2.9175c0 .2176.0864.4262.2402.5801.1539.1538.3625.2402.5801.2402h5.4905c.2175 0 .4262-.0864.58-.2402.1538-.1539.2403-.3625.2403-.5801v-2.9231c.8511-.2511 1.6731-.5921 2.452-1.0172l2.0681 2.0681c.1538.1537.3624.2401.5799.2401.2174 0 .426-.0864.5798-.2401zm-2.513-3.6736c-.1302-.1305-.3007-.2132-.4839-.2349-.1831-.0216-.3682.0192-.5253.1159-.98.6026-2.0496 1.0456-3.1687 1.3125-.1791.043-.3386.1449-.4527.2894-.1142.1446-.1765.3233-.1769.5074v2.7329h-3.8498v-2.7254c-.0003-.1843-.0626-.3632-.177-.5078-.1144-.1445-.2741-.2464-.4535-.289-1.1189-.2676-2.1879-.7125-3.1664-1.3177-.1572-.097-.3426-.138-.526-.1166-.1835.0214-.3544.1041-.4851.2347l-1.93263 1.9313-2.72156-2.7225 1.93125-1.9317c.13049-.1307.21313-.3014.23456-.4848s-.01959-.3687-.11643-.5259c-.60517-.979-1.0497-2.0486-1.31672-3.1682-.04267-.1794-.1445-.3391-.28907-.4535s-.32346-.1767-.50781-.177h-2.72812v-3.8489h2.73234c.1842-.0003.36295-.0626.50749-.1767.14454-.1142.24647-.2737.28939-.4528.2666-1.1189.70965-2.1883 1.3125-3.1679.09644-.1573.13714-.3424.11555-.5257-.0216-.1832-.10424-.3539-.23462-.4844l-1.93031-1.93314 2.72156-2.72156 1.93313 1.93312c.1304.13042.301.21309.4842.23469s.3683-.01913.5255-.11562c.9799-.60257 2.0493-1.04559 3.1683-1.3125.1791-.043.3385-.14495.4527-.28947.1141-.14452.1764-.32323.1768-.50741v-2.73515h3.8498v2.72765c.0003.18435.0627.36324.177.50781.1144.14457.2742.2464.4535.28907 1.1196.26693 2.1892.7113 3.1683 1.31625.1571.09726.3424.13852.5259.11707s.3543-.10434.4847-.2352l1.9313-1.93125 2.722 2.7225-1.9313 1.93174c-.1304.1307-.213.3016-.2344.485-.0215.1835.0195.3688.1163.5261.6052.9788 1.0495 2.0483 1.3163 3.1678.0426.1793.1445.3391.289.4535.1446.1143.3235.1767.5078.177h2.7277v3.8493h-2.7328c-.1843.0004-.363.0628-.5075.177-.1446.1143-.2465.2739-.2894.453-.2668 1.119-.7099 2.1884-1.3125 3.1683-.0966.1571-.1374.3422-.1158.5253.0216.1832.1044.3537.2349.4839l1.9317 1.9336-2.722 2.7216z"/><path d="m17.9556 10.8555c-1.4045 0-2.7774.4164-3.9452 1.1967-1.1677.7803-2.0779 1.8893-2.6154 3.1869-.5374 1.2975-.6781 2.7253-.4041 4.1028s.9504 2.6428 1.9435 3.6359 2.2584 1.6694 3.6358 1.9434c1.3775.274 2.8053.1334 4.1029-.4041 1.2975-.5374 2.4066-1.4476 3.1868-2.6154.7803-1.1677 1.1968-2.5407 1.1968-3.9451-.0021-1.8827-.751-3.6877-2.0822-5.0189-1.3313-1.3313-3.1362-2.0801-5.0189-2.0822zm0 12.5625c-1.08 0-2.1356-.3203-3.0336-.9202-.8979-.6-1.5978-1.4527-2.0111-2.4505-.4134-.9977-.5215-2.0955-.3109-3.1547s.7306-2.0322 1.4941-2.7959c.7636-.7637 1.7365-1.2838 2.7956-1.4946 1.0592-.2108 2.1571-.1028 3.1549.3103.9978.4132 1.8506 1.1129 2.4507 2.0107.6002.8979.9206 1.9535.9208 3.0335-.0018 1.4476-.5776 2.8355-1.6013 3.8592-1.0237 1.0236-2.4115 1.5995-3.8592 1.6012z"/><path d="m57.043 38.4786h-2.9175c-.251-.8525-.5929-1.6755-1.02-2.4548l2.0653-2.0658c.0762-.0761.1367-.1665.1779-.266.0413-.0995.0625-.2061.0625-.3139 0-.1077-.0212-.2143-.0625-.3138-.0412-.0995-.1017-.1899-.1779-.266l-3.8822-3.8817c-.0761-.0763-.1666-.1367-.2661-.178s-.2062-.0625-.314-.0625c-.1077 0-.2144.0212-.314.0625-.0995.0413-.1899.1017-.2661.178l-2.0653 2.0648c-.7792-.427-1.6021-.7691-2.4543-1.0204v-2.9175c0-.2176-.0865-.4263-.2403-.5801-.1539-.1538-.3625-.2403-.5801-.2403h-5.4904c-.2176 0-.4262.0865-.5801.2403-.1538.1538-.2402.3625-.2402.5801v2.9231c-.8514.251-1.6735.592-2.4525 1.0172l-2.0677-2.0672c-.0761-.0762-.1665-.1367-.266-.178-.0995-.0412-.2061-.0625-.3138-.0625-.1078 0-.2144.0213-.3139.0625-.0995.0413-.1899.1018-.266.178l-3.8826 3.8817c-.1538.1538-.2401.3624-.2401.5798 0 .2175.0863.4261.2401.5799l2.0685 2.0681c-.4252.779-.7661 1.6011-1.0167 2.4525h-2.924c-.2176 0-.4262.0864-.5801.2403-.1538.1538-.2402.3625-.2402.58v5.49c0 .2176.0864.4262.2402.5801.1539.1538.3625.2402.5801.2402h2.9175c.2509.8525.5929 1.6755 1.02 2.4549l-2.0653 2.0653c-.1538.1539-.2401.3625-.2401.5801 0 .2175.0863.4261.2401.58l3.8826 3.8827c.0761.0762.1665.1367.266.178.0995.0412.2061.0625.3139.0625.1077 0 .2143-.0213.3138-.0625.0995-.0413.1899-.1018.266-.178l2.0653-2.0625c.7793.4271 1.6023.7691 2.4549 1.02v2.9175c-.0001.1077.0211.2144.0623.314.0412.0995.1016.19.1778.2662s.1666.1366.2662.1778c.0995.0412.2062.0624.314.0623h5.49c.1077.0001.2144-.0211.314-.0623.0995-.0412.19-.1016.2662-.1778.0761-.0762.1366-.1667.1778-.2662.0412-.0996.0623-.2063.0623-.314v-2.9227c.8513-.2511 1.6735-.5922 2.4525-1.0176l2.0676 2.0676c.0762.0763.1666.1368.2661.178.0996.0413.2063.0625.314.0625.1078 0 .2145-.0212.314-.0625.0995-.0412.19-.1017.2661-.178l3.8822-3.8817c.0762-.0761.1367-.1665.178-.2661.0412-.0995.0625-.2062.0625-.3139 0-.1078-.0213-.2145-.0625-.314-.0413-.0996-.1018-.19-.178-.2661l-2.0677-2.0681c.4252-.779.7661-1.601 1.0172-2.4521h2.9227c.1077.0001.2144-.0211.314-.0623.0995-.0412.19-.1016.2662-.1778.0761-.0762.1366-.1666.1778-.2662s.0623-.2063.0623-.314v-5.4933c0-.1077-.0211-.2144-.0623-.314-.0412-.0995-.1017-.19-.1778-.2662-.0762-.0761-.1667-.1366-.2662-.1778-.0996-.0412-.2063-.0624-.314-.0623zm-.8203 5.4905h-2.7324c-.1842.0003-.3629.0625-.5075.1767-.1445.1142-.2464.2737-.2894.4528-.2669 1.119-.7099 2.1884-1.3125 3.1683-.0964.1572-.1371.3423-.1155.5255.0216.1831.1043.3537.2346.4842l1.9336 1.9336-2.722 2.7215-1.9332-1.9331c-.1305-.1302-.3011-.2127-.4842-.2343s-.3682.019-.5255.1152c-.9801.6025-2.0496 1.0456-3.1687 1.3125-.1791.043-.3386.1449-.4528.2894-.1142.1446-.1764.3233-.1767.5075v2.7324h-3.8522v-2.7277c-.0003-.1843-.0626-.3632-.177-.5078s-.2741-.2464-.4535-.2891c-1.1195-.2669-2.1892-.7113-3.1683-1.3162-.1571-.0972-.3424-.1384-.5259-.117-.1834.0215-.3542.1043-.4847.2351l-1.9312 1.9313-2.7221-2.7202 1.9313-1.9317c.1306-.1306.2134-.3015.2348-.485.0215-.1835-.0197-.3689-.1167-.5261-.6048-.979-1.049-2.0484-1.3158-3.1678-.0426-.1794-.1445-.3391-.289-.4535-.1446-.1144-.3235-.1767-.5079-.177h-2.729v-3.8494h2.7323c.1843-.0004.363-.0627.5076-.177.1445-.1142.2464-.2738.2893-.453.2668-1.1189.7099-2.1884 1.3125-3.1682.0966-.1571.1374-.3422.1158-.5253-.0216-.1832-.1043-.3537-.2349-.484l-1.9303-1.9336 2.7221-2.7215 1.9331 1.9331c.1302.1307.3007.2135.4839.2351.1832.0217.3683-.0192.5253-.116.9801-.6026 2.0496-1.0456 3.1688-1.3125.179-.043.3385-.145.4527-.2895.1141-.1445.1764-.3232.1768-.5074v-2.7328h3.8498v2.7276c.0003.1844.0626.3633.177.5078.1144.1446.2741.2465.4535.2891 1.1194.2672 2.1888.7118 3.1678 1.3167.1572.0972.3426.1385.5261.117.1836-.0214.3545-.1043.485-.2351l1.9312-1.9331 2.7221 2.722-1.9317 1.9317c-.1306.1306-.2133.3014-.2347.4848-.0215.1834.0196.3687.1165.5259.6049.9789 1.0492 2.0484 1.3158 3.1678.0426.1794.1444.3393.289.4537.1445.1145.3235.1769.5079.1772h2.7277z"/><path d="m42.0435 34.9429c-1.4045 0-2.7774.4164-3.9452 1.1967-1.1677.7803-2.0779 1.8893-2.6154 3.1869-.5374 1.2976-.6781 2.7253-.4041 4.1028s.9503 2.6428 1.9434 3.6359c.9932.9931 2.2584 1.6694 3.6359 1.9434s2.8053.1334 4.1029-.4041c1.2975-.5374 2.4065-1.4476 3.1868-2.6154.7803-1.1677 1.1968-2.5407 1.1968-3.9451-.0021-1.8827-.751-3.6877-2.0822-5.0189-1.3313-1.3313-3.1362-2.0801-5.0189-2.0822zm0 12.5625c-1.08 0-2.1357-.3203-3.0337-.9203s-1.5978-1.4528-2.0111-2.4506c-.4133-.9977-.5215-2.0957-.3108-3.1549s.7308-2.0322 1.4944-2.7958c.7637-.7637 1.7367-1.2838 2.7959-1.4944 1.0592-.2107 2.1571-.1026 3.1549.3107s1.8506 1.1132 2.4506 2.0111c.6.898.9203 1.9537.9203 3.0337-.0019 1.4476-.5778 2.8353-1.6015 3.8588-1.0237 1.0234-2.4115 1.5991-3.859 1.6007z"/><path d="m35.9577 9.77703c4.7661 1.40307 8.8822 4.44707 11.6198 8.59317-.6565.5943-1.0717 1.4092-1.1664 2.2898-.0947.8805.1376 1.7651.6527 2.4855.5151.7203 1.2771 1.2262 2.141 1.4213.8638.195 1.7692.0657 2.5439-.3634s1.3646-1.1281 1.6574-1.9639c.2929-.8358.2682-1.75-.0693-2.5688-.3374-.8188-.9641-1.485-1.7608-1.8717s-1.7078-.4671-2.5599-.2257c-2.9492-4.5228-7.4151-7.84524-12.5948-9.36986-.104-.03277-.2135-.04447-.3221-.03443-.1085.01005-.214.04164-.3102.09292s-.1813.12124-.2502.20577c-.0688.08453-.1201.18194-.1509.28654-.0308.10459-.0404.21428-.0283.32264s.0456.21322.0987.30845.1247.17892.2105.24618c.0858.06725.1837.11672.2889.14552zm15.9792 11.25797c0 .3868-.1147.7649-.3296 1.0865-.2148.3216-.5203.5722-.8776.7203-.3574.148-.7506.1867-1.1299.1112-.3794-.0754-.7278-.2617-1.0013-.5352s-.4598-.6219-.5353-1.0013c-.0754-.3793-.0367-.7725.1113-1.1299.148-.3573.3987-.6628.7203-.8776.3216-.2149.6997-.3296 1.0865-.3296.5185.0005 1.0156.2067 1.3823.5733.3666.3667.5728.8638.5733 1.3823z"/><path d="m24.0417 50.2236c-4.7653-1.4036-8.8805-4.4475-11.6175-8.5931.6566-.5943 1.0717-1.4093 1.1664-2.2898s-.1376-1.7652-.6527-2.4855c-.5151-.7204-1.2771-1.2263-2.1409-1.4213-.86388-.1951-1.76929-.0658-2.54398.3634-.77469.4291-1.36458 1.128-1.65741 1.9638-.29284.8358-.26818 1.7501.06928 2.5689.33746.8187.96417 1.4849 1.76087 1.8716.79669.3868 1.70774.4671 2.55984.2258 2.9485 4.5224 7.4136 7.8448 12.5925 9.3698.0753.0223.1535.0335.232.0333.1971-.0005.3873-.0718.5361-.201.1488-.1291.2461-.3075.2741-.5026.0281-.195-.015-.3936-.1214-.5594-.1063-.1659-.2688-.288-.4577-.3439zm-15.97922-11.258c.00018-.3867.11504-.7647.33003-1.0862.215-.3215.5205-.572.87786-.7199.35736-.1478.75053-.1864 1.12983-.1109.3793.0756.7277.2619 1.0011.5355.2734.2735.4595.622.5349 1.0013s.0366.7725-.1114 1.1298c-.1481.3573-.3987.6626-.7203.8775-.3216.2148-.6997.3295-1.0864.3295-.51867-.0005-1.01595-.2068-1.38262-.5737-.36667-.3668-.57275-.8642-.573-1.3829z"/></g></svg>