<svg fill="none" height="54" viewBox="0 0 54 54" width="54" xmlns="http://www.w3.org/2000/svg"><g fill="#5ac8ff"><path d="m51.5953 37.8844c-.4478-.7739-1.184-1.3389-2.0473-1.5714-.8634-.2324-1.7837-.1134-2.5596.3311l-8.2265 4.7503c-.4493-.6732-1.1264-1.1615-1.9069-1.3753l-12.5887-3.3666c-.9688-.2614-1.9885-.2701-2.9616-.0253l-4.4297 1.1053v-1.4513c0-.2237-.0889-.4383-.2471-.5966-.1583-.1582-.3729-.2471-.5967-.2471h-6.74995c-.22378 0-.43839.0889-.59662.2471-.15824.1583-.24713.3729-.24713.5966v.8438h-5.90625c-.22378 0-.43839.0889-.59662.2471-.15824.1583-.24713.3729-.24713.5967v11.8124c0 .2238.08889.4384.24713.5967.15823.1582.37284.2471.59662.2471h5.90625v.8438c0 .2237.08889.4383.24713.5966.15823.1582.37284.2471.59662.2471h6.74995c.2238 0 .4384-.0889.5967-.2471.1582-.1583.2471-.3729.2471-.5966v-1.1644l1.0884.54c.8206.4084 1.7244.6221 2.641.6244h12.6309c1.0373.0022 2.0565-.2715 2.9531-.7932l14.175-8.1843c.7722-.4496 1.3351-1.1864 1.5659-2.0495s.1107-1.7825-.334-2.5574zm-43.1578 11.0531h-5.0625v-10.125h5.0625zm6.75 1.6875h-5.0625v-13.5h5.0625zm34.3322-9.5934-14.175 8.1843c-.6411.371-1.3687.566-2.1094.5653h-12.6309c-.6564.0014-1.3039-.1518-1.89-.4471l-1.8394-.9197v-8.9438l4.8347-1.2065c.6957-.1759 1.425-.1701 2.1178.0168l12.5887 3.375c.3239.0841.6153.263.8369.5138.2215.2508.3631.562.4066.8938s-.013.669-.1624.9684-.3848.5474-.676.7122c-.1902.1121-.401.1849-.6199.2139s-.4414.0136-.6542-.0452l-10.0659-2.7c-.2171-.0582-.4484-.0277-.643.0846-.1947.1124-.3367.2974-.3949.5145-.0581.217-.0277.4483.0846.643.1124.1946.2974.3366.5145.3948l10.0659 2.6916c.2862.077.5812.1167.8775.1181.5904.0008 1.1702-.1565 1.6791-.4557.3856-.2202.7237-.5149.9946-.8668.2708-.352.4691-.7543.5832-1.1835.0936-.3719.125-.7568.0928-1.139l8.4966-4.9022c.3877-.2152.8438-.2713 1.2721-.1563.4282.1149.795.3918 1.0229.7722.2241.3862.286.8455.1721 1.2772-.1139.4318-.3942.8008-.7796 1.0263z"/><path d="m12.6562 49.7812c.2238 0 .4384-.0888.5967-.2471.1582-.1582.2471-.3728.2471-.5966v-.8437c0-.2238-.0889-.4384-.2471-.5967-.1583-.1582-.3729-.2471-.5967-.2471-.2237 0-.4383.0889-.5966.2471-.1582.1583-.2471.3729-.2471.5967v.8437c0 .2238.0889.4384.2471.5966.1583.1583.3729.2471.5966.2471z"/><path d="m38.8125 14.3438h-3.1641l-.1518-.3544 2.2443-2.236c.1581-.1593.2468-.3746.2468-.599 0-.2245-.0887-.4398-.2468-.5991l-3.5775-3.57749c-.1593-.15808-.3746-.24678-.599-.24678-.2245 0-.4398.0887-.5991.24678l-2.2359 2.24438-.3544-.15188v-3.16406c0-.22378-.0889-.43839-.2471-.59662-.1583-.15823-.3729-.24713-.5967-.24713h-5.0624c-.2238 0-.4384.0889-.5967.24713-.1582.15823-.2471.37284-.2471.59662v3.16406l-.3544.15188-2.2359-2.24438c-.1593-.15808-.3746-.24678-.5991-.24678-.2244 0-.4397.0887-.599.24678l-3.5775 3.57749c-.1581.1593-.2468.3746-.2468.5991 0 .2244.0887.4397.2468.599l2.2443 2.236-.1518.3544h-3.1641c-.2238 0-.4384.0888-.5966.2471-.1583.1582-.2471.3728-.2471.5966v5.0625c0 .2238.0888.4384.2471.5966.1582.1583.3728.2472.5966.2472h3.1641l.1518.3543-2.2443 2.236c-.1555.1609-.2431.3753-.2447.599.0032.2234.0906.4373.2447.5991l3.5775 3.5775c.1609.1554.3753.243.599.2447.2234-.0033.4373-.0907.5991-.2447l2.2359-2.2444.3544.1519v3.164c0 .2238.0889.4384.2471.5967.1583.1582.3729.2471.5967.2471h5.0624c.2238 0 .4384-.0889.5967-.2471.1582-.1583.2471-.3729.2471-.5967v-3.164l.3544-.1519 2.2359 2.2444c.1632.1505.3771.2341.5991.2341s.4359-.0836.599-.2341l3.5775-3.5775c.1541-.1618.2415-.3757.2447-.5991-.0016-.2237-.0892-.4381-.2447-.599l-2.2443-2.236.1518-.3543h3.1641c.2238 0 .4384-.0889.5966-.2472.1583-.1582.2471-.3728.2471-.5966v-5.0625c0-.2238-.0888-.4384-.2471-.5966-.1582-.1583-.3728-.2471-.5966-.2471zm-.8437 5.0624h-2.9194c-.178.0002-.3513.0566-.4952.1611-.144.1046-.2512.252-.3064.4211-.1305.4239-.3029.8338-.5147 1.2235-.086.1608-.1185.3449-.0927.5255s.1085.3482.2362.4785l2.0756 2.0672-2.3878 2.3878-2.0672-2.0756c-.1303-.1276-.298-.2103-.4786-.2361-.1805-.0258-.3646.0066-.5255.0927-.3897.2118-.7995.3842-1.2234.5147-.1692.0551-.3166.1623-.4211.3063-.1046.144-.161.3173-.1611.4952v2.9194h-3.375v-2.9194c-.0001-.1779-.0565-.3512-.1611-.4952-.1045-.144-.2519-.2512-.4211-.3063-.4239-.1305-.8337-.3029-1.2234-.5147-.1609-.0861-.345-.1185-.5255-.0927-.1806.0258-.3483.1085-.4786.2361l-2.0672 2.0756-2.3878-2.3878 2.0756-2.0672c.1277-.1303.2104-.2979.2362-.4785s-.0067-.3647-.0927-.5255c-.2118-.3897-.3842-.7996-.5147-1.2235-.0552-.1691-.1624-.3165-.3064-.4211-.1439-.1045-.3172-.1609-.4952-.1611h-2.9194v-3.375h2.9194c.178-.0001.3513-.0565.4952-.161.144-.1046.2512-.252.3064-.4211.1305-.4239.3029-.8338.5147-1.2235.086-.1608.1185-.3449.0927-.5255s-.1085-.3482-.2362-.4785l-2.0756-2.0672 2.3878-2.38784 2.0672 2.07564c.1303.1276.298.2103.4786.2361.1805.0258.3646-.0066.5255-.0927.3897-.2118.7995-.3842 1.2234-.5147.1692-.0551.3166-.1623.4211-.3063.1046-.144.161-.3173.1611-.49523v-2.91937h3.375v2.91937c.0001.17793.0565.35123.1611.49523.1045.144.2519.2512.4211.3063.4239.1305.8337.3029 1.2234.5147.1609.0861.345.1185.5255.0927.1806-.0258.3483-.1085.4786-.2361l2.0672-2.07564 2.3878 2.38784-2.0756 2.0672c-.1277.1303-.2104.2979-.2362.4785s.0067.3647.0927.5255c.2118.3897.3842.7996.5147 1.2235.0552.1691.1624.3165.3064.4211.1439.1045.3172.1609.4952.161h2.9194z"/><path d="m32.0625 17.7188c0-1.0013-.2969-1.9801-.8532-2.8126s-1.3469-1.4814-2.272-1.8646c-.925-.3832-1.9429-.4834-2.9249-.2881-.9821.1954-1.8841.6775-2.5921 1.3855s-1.1902 1.6101-1.3855 2.5921c-.1954.982-.0951 1.9999.2881 2.925.3831.925 1.032 1.7157 1.8645 2.272.8326.5562 1.8113.8532 2.8126.8532 1.3422-.0014 2.6291-.5352 3.5782-1.4843.9492-.9491 1.483-2.236 1.4843-3.5782zm-8.4375 0c0-.6676.1979-1.3201.5688-1.8751.3708-.555.8979-.9876 1.5146-1.243.6167-.2555 1.2953-.3223 1.95-.1921s1.2561.4517 1.7281.9237.7934 1.0733.9237 1.728c.1302.6547.0633 1.3333-.1921 1.95-.2555.6167-.688 1.1438-1.243 1.5147-.5551.3708-1.2076.5688-1.8751.5688-.8951 0-1.7535-.3556-2.3865-.9886-.6329-.6329-.9885-1.4913-.9885-2.3864z"/><path d="m46.4062 19.4062h-1.6874c0-4.6993-1.8668-9.2061-5.1898-12.529-3.3229-3.32291-7.8297-5.1897-12.529-5.1897s-9.2061 1.86679-12.529 5.1897c-3.323 3.3229-5.18975 7.8297-5.18975 12.529h-1.6875c-1.34266 0-2.63033.5334-3.57973 1.4828s-1.48277 2.2371-1.48277 3.5798c0 1.3426.53337 2.6303 1.48277 3.5797s2.23707 1.4827 3.57973 1.4827h4.21875c.2238 0 .4384-.0888.5966-.2471.1583-.1582.2471-.3728.2471-.5966v-8.4375c0-.2238-.0888-.4384-.2471-.5966-.1582-.1583-.3728-.2472-.5966-.2472h-.8437c0-4.2517 1.689-8.3293 4.6954-11.33576 3.0064-3.00644 7.084-4.69544 11.3358-4.69544s8.3294 1.689 11.3358 4.69544c3.0064 3.00646 4.6954 7.08406 4.6954 11.33576h-.8437c-.2238 0-.4384.0889-.5966.2472-.1583.1582-.2471.3728-.2471.5966v8.4375c0 .2238.0888.4384.2471.5966.1582.1583.3728.2471.5966.2471h.8437v2.5313c0 .2238-.0888.4384-.2471.5966-.1582.1583-.3728.2471-.5966.2471h-6.0581c-.1752-.4916-.4975-.9174-.9233-1.2194-.4257-.3019-.9342-.4654-1.4561-.468h-1.6875c-.6713 0-1.3152.2666-1.7899.7413s-.7414 1.1186-.7414 1.7899.2667 1.3152.7414 1.7899 1.1186.7413 1.7899.7413h1.6875c.5219-.0026 1.0304-.1661 1.4561-.468.4258-.302.7481-.7278.9233-1.2194h6.0581c.6707-.0021 1.3134-.2694 1.7877-.7436.4742-.4743.7415-1.117.7436-1.7877v-2.5313h1.6874c1.3427 0 2.6304-.5333 3.5798-1.4827s1.4828-2.2371 1.4828-3.5797c0-1.3427-.5334-2.6304-1.4828-3.5798s-2.2371-1.4828-3.5798-1.4828zm-38.81245 8.4376c-.89511 0-1.75355-.3556-2.38649-.9886-.63293-.6329-.98851-1.4913-.98851-2.3864 0-.8952.35558-1.7536.98851-2.3865.63294-.633 1.49138-.9885 2.38649-.9885zm3.37505 0h-1.68755v-6.75h1.68755zm22.7812 6.75h-1.6875c-.2238 0-.4384-.0889-.5966-.2472-.1583-.1582-.2471-.3728-.2471-.5966s.0888-.4384.2471-.5966c.1582-.1583.3728-.2472.5966-.2472h1.6875c.2238 0 .4384.0889.5966.2472.1583.1582.2472.3728.2472.5966s-.0889.4384-.2472.5966c-.1582.1583-.3728.2472-.5966.2472zm10.9688-6.75h-1.6876v-6.75h1.6876zm1.6874 0v-6.75c.8952 0 1.7536.3555 2.3865.9885.633.6329.9885 1.4913.9885 2.3865 0 .8951-.3555 1.7535-.9885 2.3864-.6329.633-1.4913.9886-2.3865.9886z"/></g></svg>