<svg xmlns="http://www.w3.org/2000/svg" xmlns:xlink="http://www.w3.org/1999/xlink" width="54" zoomAndPan="magnify" viewBox="0 0 40.5 40.5" height="54" preserveAspectRatio="xMidYMid meet" version="1.0"><path fill="#508167" d="M 38.222656 28.066406 C 37.894531 27.492188 37.347656 27.074219 36.707031 26.902344 C 36.066406 26.730469 35.386719 26.820312 34.8125 27.148438 L 28.71875 30.667969 C 28.382812 30.167969 27.882812 29.808594 27.304688 29.648438 L 17.976562 27.152344 C 17.261719 26.960938 16.503906 26.953125 15.785156 27.136719 L 12.5 27.953125 L 12.5 26.878906 C 12.5 26.714844 12.4375 26.554688 12.320312 26.4375 C 12.203125 26.320312 12.042969 26.253906 11.875 26.253906 L 6.875 26.253906 C 6.710938 26.253906 6.550781 26.320312 6.433594 26.4375 C 6.316406 26.554688 6.25 26.714844 6.25 26.878906 L 6.25 27.503906 L 1.875 27.503906 C 1.710938 27.503906 1.550781 27.570312 1.433594 27.6875 C 1.316406 27.804688 1.25 27.964844 1.25 28.128906 L 1.25 36.878906 C 1.25 37.046875 1.316406 37.207031 1.433594 37.324219 C 1.550781 37.441406 1.710938 37.503906 1.875 37.503906 L 6.25 37.503906 L 6.25 38.128906 C 6.25 38.296875 6.316406 38.457031 6.433594 38.574219 C 6.550781 38.691406 6.710938 38.757812 6.875 38.757812 L 11.875 38.757812 C 12.042969 38.757812 12.203125 38.691406 12.320312 38.574219 C 12.4375 38.457031 12.5 38.296875 12.5 38.128906 L 12.5 37.269531 L 13.308594 37.667969 C 13.917969 37.972656 14.585938 38.128906 15.265625 38.128906 L 24.621094 38.128906 C 25.390625 38.132812 26.144531 37.929688 26.808594 37.542969 L 37.3125 31.480469 C 37.882812 31.148438 38.300781 30.601562 38.472656 29.960938 C 38.644531 29.320312 38.554688 28.640625 38.222656 28.066406 Z M 6.25 36.253906 L 2.5 36.253906 L 2.5 28.753906 L 6.25 28.753906 Z M 11.25 37.503906 L 7.5 37.503906 L 7.5 27.503906 L 11.25 27.503906 Z M 36.6875 30.398438 L 26.183594 36.460938 C 25.710938 36.738281 25.171875 36.882812 24.621094 36.878906 L 15.265625 36.878906 C 14.777344 36.882812 14.300781 36.769531 13.863281 36.550781 L 12.5 35.867188 L 12.5 29.242188 L 16.082031 28.347656 C 16.597656 28.21875 17.140625 28.222656 17.652344 28.359375 L 26.980469 30.859375 C 27.21875 30.921875 27.433594 31.054688 27.597656 31.242188 C 27.761719 31.425781 27.867188 31.65625 27.898438 31.902344 C 27.933594 32.148438 27.890625 32.398438 27.78125 32.621094 C 27.667969 32.84375 27.496094 33.027344 27.277344 33.148438 C 27.136719 33.230469 26.980469 33.285156 26.820312 33.308594 C 26.65625 33.328125 26.492188 33.316406 26.335938 33.273438 L 18.878906 31.273438 C 18.71875 31.230469 18.546875 31.253906 18.402344 31.335938 C 18.257812 31.417969 18.152344 31.554688 18.109375 31.71875 C 18.066406 31.878906 18.089844 32.050781 18.171875 32.195312 C 18.253906 32.335938 18.390625 32.441406 18.554688 32.484375 L 26.011719 34.480469 C 26.222656 34.539062 26.441406 34.566406 26.660156 34.566406 C 27.097656 34.570312 27.527344 34.453125 27.902344 34.230469 C 28.191406 34.066406 28.441406 33.847656 28.640625 33.589844 C 28.839844 33.328125 28.988281 33.027344 29.074219 32.710938 C 29.140625 32.4375 29.164062 32.152344 29.140625 31.867188 L 35.4375 28.234375 C 35.722656 28.074219 36.0625 28.035156 36.378906 28.121094 C 36.695312 28.203125 36.96875 28.410156 37.136719 28.691406 C 37.304688 28.976562 37.347656 29.316406 37.265625 29.636719 C 37.179688 29.957031 36.972656 30.230469 36.6875 30.398438 Z M 36.6875 30.398438 " fill-opacity="1" fill-rule="nonzero"/><path fill="#508167" d="M 9.375 36.878906 C 9.542969 36.878906 9.703125 36.816406 9.820312 36.699219 C 9.9375 36.582031 10 36.421875 10 36.253906 L 10 35.628906 C 10 35.464844 9.9375 35.304688 9.820312 35.1875 C 9.703125 35.070312 9.542969 35.003906 9.375 35.003906 C 9.210938 35.003906 9.050781 35.070312 8.933594 35.1875 C 8.816406 35.304688 8.75 35.464844 8.75 35.628906 L 8.75 36.253906 C 8.75 36.421875 8.816406 36.582031 8.933594 36.699219 C 9.050781 36.816406 9.210938 36.878906 9.375 36.878906 Z M 9.375 36.878906 " fill-opacity="1" fill-rule="nonzero"/><path fill="#508167" d="M 28.753906 10.625 L 26.410156 10.625 L 26.296875 10.363281 L 27.960938 8.707031 C 28.078125 8.589844 28.144531 8.429688 28.144531 8.265625 C 28.144531 8.097656 28.078125 7.9375 27.960938 7.820312 L 25.308594 5.167969 C 25.191406 5.050781 25.03125 4.988281 24.867188 4.988281 C 24.699219 4.988281 24.539062 5.050781 24.421875 5.167969 L 22.765625 6.832031 L 22.503906 6.71875 L 22.503906 4.375 C 22.503906 4.210938 22.4375 4.050781 22.320312 3.933594 C 22.203125 3.816406 22.042969 3.75 21.878906 3.75 L 18.128906 3.75 C 17.960938 3.75 17.804688 3.816406 17.6875 3.933594 C 17.570312 4.050781 17.503906 4.210938 17.503906 4.375 L 17.503906 6.71875 L 17.238281 6.832031 L 15.582031 5.167969 C 15.464844 5.050781 15.304688 4.988281 15.140625 4.988281 C 14.972656 4.988281 14.8125 5.050781 14.695312 5.167969 L 12.046875 7.820312 C 11.929688 7.9375 11.863281 8.097656 11.863281 8.265625 C 11.863281 8.429688 11.929688 8.589844 12.046875 8.707031 L 13.707031 10.363281 L 13.597656 10.625 L 11.25 10.625 C 11.085938 10.625 10.925781 10.691406 10.808594 10.808594 C 10.691406 10.925781 10.625 11.085938 10.625 11.25 L 10.625 15.003906 C 10.625 15.167969 10.691406 15.328125 10.808594 15.445312 C 10.925781 15.5625 11.085938 15.628906 11.25 15.628906 L 13.597656 15.628906 L 13.707031 15.890625 L 12.046875 17.546875 C 11.929688 17.664062 11.867188 17.824219 11.863281 17.988281 C 11.867188 18.15625 11.929688 18.3125 12.046875 18.433594 L 14.695312 21.085938 C 14.816406 21.199219 14.972656 21.265625 15.140625 21.265625 C 15.304688 21.261719 15.464844 21.199219 15.582031 21.085938 L 17.238281 19.421875 L 17.503906 19.535156 L 17.503906 21.878906 C 17.503906 22.042969 17.570312 22.203125 17.6875 22.320312 C 17.804688 22.4375 17.960938 22.503906 18.128906 22.503906 L 21.878906 22.503906 C 22.042969 22.503906 22.203125 22.4375 22.320312 22.320312 C 22.4375 22.203125 22.503906 22.042969 22.503906 21.878906 L 22.503906 19.535156 L 22.765625 19.421875 L 24.421875 21.085938 C 24.542969 21.195312 24.703125 21.257812 24.867188 21.257812 C 25.03125 21.257812 25.1875 21.195312 25.308594 21.085938 L 27.960938 18.433594 C 28.074219 18.3125 28.140625 18.15625 28.140625 17.988281 C 28.140625 17.824219 28.074219 17.664062 27.960938 17.546875 L 26.296875 15.890625 L 26.410156 15.628906 L 28.753906 15.628906 C 28.921875 15.628906 29.078125 15.5625 29.195312 15.445312 C 29.3125 15.328125 29.378906 15.167969 29.378906 15.003906 L 29.378906 11.25 C 29.378906 11.085938 29.3125 10.925781 29.195312 10.808594 C 29.078125 10.691406 28.921875 10.625 28.753906 10.625 Z M 28.128906 14.378906 L 25.964844 14.378906 C 25.835938 14.378906 25.707031 14.417969 25.597656 14.496094 C 25.492188 14.574219 25.414062 14.683594 25.371094 14.808594 C 25.277344 15.121094 25.148438 15.425781 24.992188 15.714844 C 24.925781 15.835938 24.902344 15.96875 24.921875 16.105469 C 24.941406 16.238281 25.003906 16.363281 25.097656 16.457031 L 26.636719 17.988281 L 24.867188 19.757812 L 23.335938 18.222656 C 23.238281 18.128906 23.113281 18.066406 22.980469 18.046875 C 22.847656 18.027344 22.710938 18.050781 22.589844 18.117188 C 22.300781 18.273438 22 18.398438 21.683594 18.496094 C 21.558594 18.539062 21.449219 18.617188 21.371094 18.722656 C 21.296875 18.832031 21.253906 18.957031 21.253906 19.089844 L 21.253906 21.253906 L 18.753906 21.253906 L 18.753906 19.089844 C 18.753906 18.957031 18.710938 18.832031 18.632812 18.722656 C 18.554688 18.617188 18.445312 18.539062 18.320312 18.496094 C 18.007812 18.398438 17.703125 18.273438 17.414062 18.117188 C 17.296875 18.050781 17.160156 18.027344 17.027344 18.046875 C 16.890625 18.066406 16.769531 18.128906 16.671875 18.222656 L 15.140625 19.757812 L 13.371094 17.988281 L 14.910156 16.457031 C 15.003906 16.363281 15.0625 16.238281 15.082031 16.105469 C 15.101562 15.96875 15.078125 15.835938 15.015625 15.714844 C 14.859375 15.425781 14.730469 15.121094 14.632812 14.808594 C 14.59375 14.683594 14.511719 14.574219 14.40625 14.496094 C 14.300781 14.417969 14.171875 14.378906 14.039062 14.378906 L 11.875 14.378906 L 11.875 11.875 L 14.039062 11.875 C 14.171875 11.875 14.300781 11.835938 14.40625 11.757812 C 14.511719 11.679688 14.59375 11.570312 14.632812 11.445312 C 14.730469 11.132812 14.859375 10.828125 15.015625 10.539062 C 15.078125 10.421875 15.101562 10.285156 15.082031 10.148438 C 15.0625 10.015625 15.003906 9.890625 14.910156 9.796875 L 13.371094 8.265625 L 15.140625 6.496094 L 16.671875 8.03125 C 16.769531 8.128906 16.890625 8.1875 17.027344 8.207031 C 17.160156 8.226562 17.296875 8.203125 17.414062 8.140625 C 17.703125 7.980469 18.007812 7.855469 18.320312 7.757812 C 18.445312 7.714844 18.554688 7.636719 18.632812 7.53125 C 18.710938 7.421875 18.753906 7.296875 18.753906 7.164062 L 18.753906 5 L 21.253906 5 L 21.253906 7.164062 C 21.253906 7.296875 21.296875 7.421875 21.371094 7.53125 C 21.449219 7.636719 21.558594 7.714844 21.683594 7.757812 C 22 7.855469 22.300781 7.980469 22.589844 8.140625 C 22.710938 8.203125 22.847656 8.226562 22.980469 8.207031 C 23.113281 8.1875 23.238281 8.128906 23.335938 8.03125 L 24.867188 6.496094 L 26.636719 8.265625 L 25.097656 9.796875 C 25.003906 9.890625 24.941406 10.015625 24.921875 10.148438 C 24.902344 10.285156 24.925781 10.421875 24.992188 10.539062 C 25.148438 10.828125 25.277344 11.132812 25.371094 11.445312 C 25.414062 11.570312 25.492188 11.679688 25.597656 11.757812 C 25.707031 11.835938 25.835938 11.875 25.964844 11.875 L 28.128906 11.875 Z M 28.128906 14.378906 " fill-opacity="1" fill-rule="nonzero"/><path fill="#508167" d="M 23.753906 13.128906 C 23.753906 12.386719 23.535156 11.660156 23.121094 11.042969 C 22.710938 10.425781 22.125 9.945312 21.4375 9.660156 C 20.753906 9.378906 20 9.304688 19.269531 9.449219 C 18.542969 9.59375 17.875 9.949219 17.351562 10.476562 C 16.828125 11 16.46875 11.667969 16.324219 12.394531 C 16.179688 13.121094 16.253906 13.875 16.539062 14.5625 C 16.820312 15.246094 17.300781 15.832031 17.917969 16.246094 C 18.535156 16.65625 19.261719 16.878906 20.003906 16.878906 C 20.996094 16.875 21.949219 16.480469 22.652344 15.777344 C 23.355469 15.074219 23.753906 14.121094 23.753906 13.128906 Z M 17.503906 13.128906 C 17.503906 12.632812 17.648438 12.148438 17.925781 11.738281 C 18.199219 11.328125 18.589844 11.007812 19.046875 10.816406 C 19.503906 10.628906 20.003906 10.578125 20.492188 10.675781 C 20.976562 10.769531 21.421875 11.007812 21.769531 11.359375 C 22.121094 11.707031 22.359375 12.152344 22.457031 12.640625 C 22.550781 13.125 22.503906 13.628906 22.3125 14.082031 C 22.125 14.539062 21.804688 14.929688 21.390625 15.207031 C 20.980469 15.480469 20.496094 15.628906 20.003906 15.628906 C 19.339844 15.628906 18.703125 15.363281 18.234375 14.894531 C 17.765625 14.425781 17.503906 13.789062 17.503906 13.128906 Z M 17.503906 13.128906 " fill-opacity="1" fill-rule="nonzero"/><path fill="#508167" d="M 34.378906 14.378906 L 33.128906 14.378906 C 33.128906 10.894531 31.746094 7.558594 29.285156 5.09375 C 26.824219 2.632812 23.484375 1.25 20.003906 1.25 C 16.523438 1.25 13.183594 2.632812 10.722656 5.09375 C 8.257812 7.558594 6.875 10.894531 6.875 14.378906 L 5.625 14.378906 C 4.632812 14.378906 3.675781 14.773438 2.972656 15.476562 C 2.269531 16.179688 1.875 17.132812 1.875 18.128906 C 1.875 19.121094 2.269531 20.078125 2.972656 20.78125 C 3.675781 21.484375 4.632812 21.878906 5.625 21.878906 L 8.75 21.878906 C 8.917969 21.878906 9.074219 21.8125 9.191406 21.695312 C 9.3125 21.578125 9.375 21.417969 9.375 21.253906 L 9.375 15.003906 C 9.375 14.835938 9.3125 14.675781 9.191406 14.558594 C 9.074219 14.441406 8.917969 14.378906 8.75 14.378906 L 8.125 14.378906 C 8.125 11.226562 9.378906 8.207031 11.605469 5.980469 C 13.832031 3.75 16.851562 2.5 20.003906 2.5 C 23.152344 2.5 26.175781 3.75 28.402344 5.980469 C 30.628906 8.207031 31.878906 11.226562 31.878906 14.378906 L 31.253906 14.378906 C 31.089844 14.378906 30.929688 14.441406 30.8125 14.558594 C 30.695312 14.675781 30.628906 14.835938 30.628906 15.003906 L 30.628906 21.253906 C 30.628906 21.417969 30.695312 21.578125 30.8125 21.695312 C 30.929688 21.8125 31.089844 21.878906 31.253906 21.878906 L 31.878906 21.878906 L 31.878906 23.753906 C 31.878906 23.917969 31.8125 24.078125 31.695312 24.195312 C 31.578125 24.3125 31.421875 24.378906 31.253906 24.378906 L 26.765625 24.378906 C 26.636719 24.015625 26.398438 23.699219 26.082031 23.476562 C 25.765625 23.25 25.390625 23.128906 25.003906 23.128906 L 23.753906 23.128906 C 23.257812 23.128906 22.777344 23.324219 22.425781 23.679688 C 22.074219 24.03125 21.878906 24.507812 21.878906 25.003906 C 21.878906 25.5 22.074219 25.976562 22.425781 26.328125 C 22.777344 26.679688 23.257812 26.878906 23.753906 26.878906 L 25.003906 26.878906 C 25.390625 26.878906 25.765625 26.757812 26.082031 26.53125 C 26.398438 26.308594 26.636719 25.992188 26.765625 25.628906 L 31.253906 25.628906 C 31.75 25.628906 32.226562 25.429688 32.578125 25.078125 C 32.929688 24.726562 33.128906 24.25 33.128906 23.753906 L 33.128906 21.878906 L 34.378906 21.878906 C 35.375 21.878906 36.328125 21.484375 37.03125 20.78125 C 37.734375 20.078125 38.128906 19.121094 38.128906 18.128906 C 38.128906 17.132812 37.734375 16.179688 37.03125 15.476562 C 36.328125 14.773438 35.375 14.378906 34.378906 14.378906 Z M 5.625 20.628906 C 4.960938 20.628906 4.328125 20.363281 3.859375 19.894531 C 3.390625 19.425781 3.125 18.789062 3.125 18.128906 C 3.125 17.464844 3.390625 16.828125 3.859375 16.359375 C 4.328125 15.890625 4.960938 15.628906 5.625 15.628906 Z M 8.125 20.628906 L 6.875 20.628906 L 6.875 15.628906 L 8.125 15.628906 Z M 25.003906 25.628906 L 23.753906 25.628906 C 23.585938 25.628906 23.429688 25.5625 23.3125 25.445312 C 23.195312 25.328125 23.128906 25.167969 23.128906 25.003906 C 23.128906 24.839844 23.195312 24.679688 23.3125 24.5625 C 23.429688 24.445312 23.585938 24.378906 23.753906 24.378906 L 25.003906 24.378906 C 25.167969 24.378906 25.328125 24.445312 25.445312 24.5625 C 25.5625 24.679688 25.628906 24.839844 25.628906 25.003906 C 25.628906 25.167969 25.5625 25.328125 25.445312 25.445312 C 25.328125 25.5625 25.167969 25.628906 25.003906 25.628906 Z M 33.128906 20.628906 L 31.878906 20.628906 L 31.878906 15.628906 L 33.128906 15.628906 Z M 34.378906 20.628906 L 34.378906 15.628906 C 35.042969 15.628906 35.679688 15.890625 36.148438 16.359375 C 36.617188 16.828125 36.878906 17.464844 36.878906 18.128906 C 36.878906 18.789062 36.617188 19.425781 36.148438 19.894531 C 35.679688 20.363281 35.042969 20.628906 34.378906 20.628906 Z M 34.378906 20.628906 " fill-opacity="1" fill-rule="nonzero"/></svg>