<svg xmlns="http://www.w3.org/2000/svg" xmlns:xlink="http://www.w3.org/1999/xlink" width="54" zoomAndPan="magnify" viewBox="0 0 40.5 40.5" height="54" preserveAspectRatio="xMidYMid meet" version="1.0"><path fill="#508167" d="M 6.898438 28.054688 L 33.5625 28.054688 L 33.5625 11.789062 C 33.5625 11.136719 33.03125 10.605469 32.378906 10.605469 L 8.082031 10.605469 C 7.429688 10.605469 6.898438 11.136719 6.898438 11.789062 Z M 33.636719 28.203125 L 6.824219 28.203125 C 6.785156 28.203125 6.75 28.167969 6.75 28.128906 L 6.75 11.789062 C 6.75 11.054688 7.347656 10.460938 8.082031 10.460938 L 32.378906 10.460938 C 33.113281 10.460938 33.710938 11.054688 33.710938 11.789062 L 33.710938 28.128906 C 33.710938 28.167969 33.675781 28.203125 33.636719 28.203125 Z M 33.636719 28.203125 " fill-opacity="1" fill-rule="nonzero"/><path fill="#508167" d="M 14.4375 33.082031 L 26.023438 33.082031 L 26.023438 30.714844 L 14.4375 30.714844 Z M 26.09375 33.230469 L 14.363281 33.230469 C 14.324219 33.230469 14.292969 33.195312 14.292969 33.15625 L 14.292969 30.640625 C 14.292969 30.601562 14.324219 30.570312 14.363281 30.570312 L 26.09375 30.570312 C 26.132812 30.570312 26.167969 30.601562 26.167969 30.640625 L 26.167969 33.15625 C 26.167969 33.195312 26.132812 33.230469 26.09375 33.230469 Z M 26.09375 33.230469 " fill-opacity="1" fill-rule="nonzero"/><path fill="#508167" d="M 6.898438 28.203125 L 6.898438 29.386719 C 6.898438 30.039062 7.429688 30.570312 8.082031 30.570312 L 32.378906 30.570312 C 33.03125 30.570312 33.5625 30.039062 33.5625 29.386719 L 33.5625 28.203125 Z M 32.378906 30.714844 L 8.082031 30.714844 C 7.347656 30.714844 6.75 30.121094 6.75 29.386719 L 6.75 28.128906 C 6.75 28.089844 6.785156 28.054688 6.824219 28.054688 L 33.636719 28.054688 C 33.675781 28.054688 33.710938 28.089844 33.710938 28.128906 L 33.710938 29.386719 C 33.710938 30.121094 33.113281 30.714844 32.378906 30.714844 Z M 32.378906 30.714844 " fill-opacity="1" fill-rule="nonzero"/><path fill="#508167" d="M 30.285156 33.230469 L 10.175781 33.230469 C 10.136719 33.230469 10.101562 33.195312 10.101562 33.15625 C 10.101562 33.117188 10.136719 33.082031 10.175781 33.082031 L 30.285156 33.082031 C 30.324219 33.082031 30.359375 33.117188 30.359375 33.15625 C 30.359375 33.195312 30.324219 33.230469 30.285156 33.230469 Z M 30.285156 33.230469 " fill-opacity="1" fill-rule="nonzero"/><path fill="#508167" d="M 20.40625 29.386719 C 20.40625 29.484375 20.328125 29.5625 20.230469 29.5625 C 20.132812 29.5625 20.050781 29.484375 20.050781 29.386719 C 20.050781 29.285156 20.132812 29.207031 20.230469 29.207031 C 20.328125 29.207031 20.40625 29.285156 20.40625 29.386719 Z M 20.40625 29.386719 " fill-opacity="1" fill-rule="nonzero"/><path fill="#508167" d="M 25.382812 1 L 25.382812 1.003906 L 29.996094 8.292969 C 30.007812 8.3125 30.011719 8.34375 29.996094 8.378906 L 29.988281 8.386719 L 29.972656 8.417969 C 29.957031 8.441406 29.9375 8.480469 29.910156 8.527344 C 29.859375 8.625 29.785156 8.761719 29.695312 8.9375 C 29.515625 9.289062 29.28125 9.789062 29.035156 10.402344 C 28.546875 11.625 28.03125 13.296875 27.910156 15.089844 C 27.910156 15.113281 27.902344 15.128906 27.890625 15.140625 C 27.878906 15.152344 27.859375 15.160156 27.839844 15.160156 L 22.804688 15.160156 C 22.769531 15.160156 22.734375 15.132812 22.734375 15.089844 C 22.613281 13.292969 22.097656 11.621094 21.609375 10.402344 C 21.367188 9.789062 21.128906 9.289062 20.949219 8.9375 C 20.859375 8.761719 20.785156 8.625 20.734375 8.527344 C 20.707031 8.480469 20.6875 8.441406 20.671875 8.417969 L 20.65625 8.386719 L 20.648438 8.378906 L 20.648438 8.375 C 20.632812 8.351562 20.632812 8.316406 20.648438 8.292969 L 25.257812 1.003906 C 25.261719 1.003906 25.261719 1.003906 25.261719 1 L 25.273438 0.992188 C 25.285156 0.976562 25.304688 0.96875 25.324219 0.96875 C 25.351562 0.96875 25.371094 0.984375 25.382812 1 Z M 29.777344 8.464844 L 29.847656 8.339844 L 25.324219 1.183594 L 20.796875 8.335938 L 20.867188 8.460938 C 21.242188 9.140625 22.585938 11.734375 22.855469 14.796875 L 22.875 15.015625 L 27.769531 15.015625 L 27.789062 14.796875 C 28.0625 11.730469 29.402344 9.136719 29.777344 8.464844 Z M 29.777344 8.464844 " fill-opacity="1" fill-rule="nonzero"/><path fill="#508167" d="M 24.339844 9.667969 C 24.882812 10.210938 25.765625 10.210938 26.308594 9.667969 C 26.851562 9.125 26.851562 8.238281 26.308594 7.699219 C 25.765625 7.15625 24.878906 7.15625 24.339844 7.699219 C 23.796875 8.238281 23.796875 9.125 24.339844 9.667969 Z M 24.234375 7.59375 C 24.835938 6.992188 25.808594 6.992188 26.410156 7.59375 C 27.011719 8.195312 27.011719 9.171875 26.410156 9.773438 C 25.808594 10.371094 24.835938 10.371094 24.234375 9.773438 C 23.636719 9.171875 23.636719 8.191406 24.234375 7.59375 Z M 24.234375 7.59375 " fill-opacity="1" fill-rule="nonzero"/><path fill="#508167" d="M 25.273438 0.992188 C 25.289062 0.976562 25.304688 0.96875 25.324219 0.96875 C 25.363281 0.96875 25.398438 1.003906 25.398438 1.042969 L 25.398438 7.214844 C 25.398438 7.253906 25.363281 7.289062 25.324219 7.289062 C 25.285156 7.289062 25.25 7.253906 25.25 7.214844 L 25.25 1.042969 C 25.25 1.023438 25.257812 1.007812 25.273438 0.992188 Z M 25.273438 0.992188 " fill-opacity="1" fill-rule="nonzero"/><path fill="#508167" d="M 29.332031 17.621094 C 29.347656 17.648438 29.34375 17.671875 29.335938 17.683594 L 29.332031 17.691406 L 29.328125 17.695312 C 29.320312 17.710938 29.296875 17.726562 29.265625 17.726562 L 21.375 17.726562 C 21.347656 17.726562 21.324219 17.714844 21.308594 17.6875 C 21.296875 17.671875 21.292969 17.644531 21.308594 17.617188 L 22.71875 15.074219 C 22.726562 15.066406 22.734375 15.058594 22.738281 15.054688 C 22.742188 15.050781 22.742188 15.046875 22.746094 15.046875 C 22.746094 15.042969 22.75 15.042969 22.75 15.039062 C 22.753906 15.035156 22.753906 15.035156 22.753906 15.035156 C 22.769531 15.019531 22.789062 15.011719 22.808594 15.011719 L 27.839844 15.011719 C 27.863281 15.011719 27.886719 15.027344 27.902344 15.050781 Z M 27.796875 15.164062 L 22.847656 15.164062 L 21.5 17.589844 L 29.144531 17.589844 Z M 27.796875 15.164062 " fill-opacity="1" fill-rule="nonzero"/><path fill="#508167" d="M 28.089844 36.277344 L 28.089844 36.28125 C 28.089844 36.292969 28.082031 36.308594 28.066406 36.324219 L 25.378906 39.015625 C 25.363281 39.027344 25.34375 39.035156 25.324219 39.035156 C 25.304688 39.035156 25.289062 39.027344 25.273438 39.015625 L 22.585938 36.324219 C 22.570312 36.308594 22.5625 36.292969 22.5625 36.28125 L 22.5625 36.277344 L 22.402344 33.910156 C 22.402344 33.882812 22.410156 33.863281 22.421875 33.851562 L 22.433594 33.839844 C 22.445312 33.832031 22.460938 33.828125 22.472656 33.828125 L 28.175781 33.828125 C 28.195312 33.828125 28.214844 33.835938 28.230469 33.851562 C 28.238281 33.863281 28.25 33.882812 28.246094 33.910156 Z M 28.097656 33.976562 L 22.554688 33.976562 L 22.707031 36.242188 L 25.324219 38.863281 L 27.945312 36.242188 Z M 28.097656 33.976562 " fill-opacity="1" fill-rule="nonzero"/><path fill="#508167" d="M 29.195312 17.730469 L 21.457031 17.730469 L 22.542969 33.828125 L 28.109375 33.828125 Z M 21.328125 17.605469 C 21.339844 17.59375 21.359375 17.585938 21.378906 17.585938 L 29.273438 17.585938 C 29.292969 17.585938 29.3125 17.59375 29.324219 17.609375 C 29.335938 17.621094 29.347656 17.640625 29.34375 17.667969 L 28.246094 33.902344 C 28.246094 33.90625 28.246094 33.90625 28.246094 33.90625 C 28.246094 33.945312 28.210938 33.976562 28.175781 33.976562 L 22.472656 33.976562 C 22.4375 33.976562 22.402344 33.945312 22.398438 33.90625 C 22.398438 33.90625 22.398438 33.90625 22.398438 33.902344 L 21.300781 17.667969 C 21.300781 17.648438 21.304688 17.632812 21.3125 17.621094 C 21.3125 17.621094 21.316406 17.617188 21.316406 17.617188 C 21.324219 17.613281 21.324219 17.609375 21.328125 17.605469 Z M 21.328125 17.605469 " fill-opacity="1" fill-rule="nonzero"/><path fill="#508167" d="M 24.679688 26.40625 C 25.03125 26.050781 25.613281 26.050781 25.96875 26.40625 C 26.320312 26.757812 26.320312 27.339844 25.96875 27.695312 C 25.613281 28.046875 25.03125 28.046875 24.679688 27.695312 C 24.324219 27.339844 24.324219 26.757812 24.679688 26.40625 Z M 25.863281 27.589844 C 26.164062 27.292969 26.164062 26.808594 25.863281 26.507812 C 25.566406 26.210938 25.082031 26.210938 24.78125 26.507812 C 24.480469 26.808594 24.480469 27.292969 24.78125 27.589844 C 25.082031 27.890625 25.566406 27.890625 25.863281 27.589844 Z M 25.863281 27.589844 " fill-opacity="1" fill-rule="nonzero"/><path fill="#508167" d="M 25.265625 27.84375 L 25.269531 27.839844 L 25.273438 27.839844 C 25.289062 27.824219 25.300781 27.816406 25.324219 27.816406 C 25.363281 27.816406 25.398438 27.851562 25.398438 27.890625 L 25.398438 33.902344 C 25.398438 33.941406 25.363281 33.976562 25.324219 33.976562 C 25.285156 33.976562 25.25 33.941406 25.25 33.902344 L 25.25 27.890625 C 25.25 27.863281 25.261719 27.847656 25.265625 27.84375 Z M 25.265625 27.84375 " fill-opacity="1" fill-rule="nonzero"/><path fill="#508167" d="M 33.394531 27.5625 L 33.394531 27.917969 L 33.753906 27.917969 L 33.753906 27.5625 Z M 7.0625 27.5625 L 6.707031 27.5625 L 6.707031 27.917969 L 7.0625 27.917969 Z M 6.898438 28.054688 L 6.539062 28.054688 L 6.539062 28.410156 L 6.898438 28.410156 Z M 33.5625 28.054688 L 33.5625 28.410156 L 33.921875 28.410156 L 33.921875 28.054688 Z M 14.4375 33.082031 L 14.082031 33.082031 L 14.082031 33.4375 L 14.4375 33.4375 Z M 26.023438 33.082031 L 26.023438 33.4375 L 26.378906 33.4375 L 26.378906 33.082031 Z M 26.023438 30.714844 L 26.378906 30.714844 L 26.378906 30.359375 L 26.023438 30.359375 Z M 14.4375 30.714844 L 14.4375 30.359375 L 14.082031 30.359375 L 14.082031 30.714844 Z M 6.898438 28.203125 L 6.898438 27.84375 L 6.539062 27.84375 L 6.539062 28.203125 Z M 33.5625 28.203125 L 33.921875 28.203125 L 33.921875 27.84375 L 33.5625 27.84375 Z M 18 10.53125 C 18 10.335938 17.839844 10.175781 17.640625 10.175781 C 17.445312 10.175781 17.285156 10.335938 17.285156 10.53125 Z M 17.285156 27.8125 C 17.285156 28.011719 17.445312 28.171875 17.640625 28.171875 C 17.839844 28.171875 18 28.011719 18 27.8125 Z M 17.640625 14.425781 C 17.835938 14.425781 17.996094 14.265625 17.996094 14.070312 C 17.996094 13.871094 17.835938 13.710938 17.640625 13.710938 Z M 6.824219 13.710938 C 6.625 13.710938 6.464844 13.871094 6.464844 14.070312 C 6.464844 14.265625 6.625 14.425781 6.824219 14.425781 Z M 8.671875 18.371094 C 8.472656 18.371094 8.3125 18.53125 8.3125 18.726562 C 8.3125 18.925781 8.472656 19.085938 8.671875 19.085938 Z M 14.417969 19.085938 C 14.617188 19.085938 14.777344 18.925781 14.777344 18.726562 C 14.777344 18.53125 14.617188 18.371094 14.417969 18.371094 Z M 8.671875 17.097656 C 8.472656 17.097656 8.3125 17.257812 8.3125 17.453125 C 8.3125 17.652344 8.472656 17.8125 8.671875 17.8125 Z M 15.289062 17.8125 C 15.488281 17.8125 15.648438 17.652344 15.648438 17.453125 C 15.648438 17.257812 15.488281 17.097656 15.289062 17.097656 Z M 16.066406 20.363281 C 16.261719 20.363281 16.421875 20.203125 16.421875 20.003906 C 16.421875 19.808594 16.261719 19.648438 16.066406 19.648438 Z M 8.671875 20.921875 C 8.472656 20.921875 8.3125 21.082031 8.3125 21.277344 C 8.3125 21.476562 8.472656 21.636719 8.671875 21.636719 Z M 14.417969 21.636719 C 14.617188 21.636719 14.777344 21.476562 14.777344 21.277344 C 14.777344 21.082031 14.617188 20.921875 14.417969 20.921875 Z M 15.289062 20.363281 C 15.488281 20.363281 15.648438 20.203125 15.648438 20.003906 C 15.648438 19.808594 15.488281 19.648438 15.289062 19.648438 Z M 8.671875 22.195312 C 8.472656 22.195312 8.3125 22.355469 8.3125 22.550781 C 8.3125 22.75 8.472656 22.910156 8.671875 22.910156 Z M 16.066406 22.910156 C 16.261719 22.910156 16.421875 22.75 16.421875 22.550781 C 16.421875 22.355469 16.261719 22.195312 16.066406 22.195312 Z M 25.382812 1 L 25.074219 1.183594 L 25.078125 1.191406 Z M 25.382812 1.003906 L 25.082031 1.191406 L 25.082031 1.195312 Z M 29.996094 8.378906 L 30.300781 8.5625 L 30.308594 8.546875 Z M 29.996094 8.378906 L 29.6875 8.195312 L 29.6875 8.199219 Z M 29.988281 8.386719 L 29.679688 8.207031 L 29.679688 8.210938 Z M 29.972656 8.417969 L 29.664062 8.238281 L 29.664062 8.242188 Z M 29.910156 8.527344 L 29.597656 8.355469 Z M 29.695312 8.9375 L 29.375 8.777344 Z M 29.035156 10.402344 L 28.703125 10.269531 Z M 27.910156 15.089844 L 28.269531 15.121094 L 28.269531 15.113281 Z M 27.890625 15.140625 L 27.644531 14.878906 Z M 22.734375 15.089844 L 22.375 15.113281 L 22.378906 15.121094 Z M 21.609375 10.402344 L 21.941406 10.269531 Z M 20.949219 8.9375 L 20.632812 9.097656 Z M 20.734375 8.527344 L 21.046875 8.355469 Z M 20.671875 8.417969 L 20.980469 8.242188 L 20.980469 8.238281 Z M 20.65625 8.386719 L 20.964844 8.210938 L 20.964844 8.207031 Z M 20.648438 8.378906 L 20.957031 8.199219 L 20.949219 8.183594 Z M 20.648438 8.378906 L 20.96875 8.21875 L 20.964844 8.207031 L 20.957031 8.199219 Z M 20.648438 8.375 L 20.957031 8.195312 Z M 25.257812 1.003906 L 24.996094 0.761719 L 24.976562 0.785156 L 24.957031 0.8125 Z M 25.261719 1 L 25.007812 0.75 L 25.007812 0.753906 Z M 25.273438 0.992188 L 25.019531 0.738281 Z M 25.382812 1 L 25.074219 1.179688 Z M 29.777344 8.464844 L 29.46875 8.289062 Z M 29.847656 8.339844 L 30.160156 8.511719 L 30.265625 8.328125 L 30.148438 8.148438 Z M 25.324219 1.183594 L 25.625 0.992188 L 25.324219 0.515625 L 25.023438 0.992188 Z M 20.796875 8.335938 L 20.496094 8.148438 L 20.382812 8.324219 L 20.484375 8.511719 Z M 20.867188 8.460938 L 21.175781 8.289062 Z M 22.855469 14.796875 L 23.210938 14.765625 Z M 22.875 15.015625 L 22.519531 15.046875 L 22.546875 15.375 L 22.875 15.375 Z M 27.769531 15.015625 L 27.769531 15.375 L 28.097656 15.375 L 28.125 15.050781 Z M 27.789062 14.796875 L 27.433594 14.765625 Z M 24.339844 9.667969 L 24.597656 9.421875 L 24.589844 9.414062 Z M 24.339844 9.667969 L 24.078125 9.914062 L 24.085938 9.921875 Z M 26.308594 9.667969 L 26.054688 9.414062 Z M 26.308594 7.699219 L 26.054688 7.949219 Z M 24.234375 7.59375 L 23.980469 7.34375 Z M 26.410156 7.59375 L 26.664062 7.34375 Z M 26.410156 9.773438 L 26.664062 10.023438 Z M 24.234375 9.773438 L 23.980469 10.023438 L 23.984375 10.023438 Z M 29.332031 17.621094 L 29.019531 17.796875 L 29.027344 17.804688 Z M 29.332031 17.621094 L 29.644531 17.445312 L 29.640625 17.441406 Z M 29.335938 17.683594 L 29.035156 17.492188 L 29.035156 17.496094 Z M 29.332031 17.691406 L 29.03125 17.5 L 29.027344 17.507812 L 29.019531 17.515625 Z M 29.328125 17.695312 L 29.640625 17.871094 Z M 21.308594 17.6875 L 21.003906 17.875 Z M 21.308594 17.617188 L 20.996094 17.441406 L 20.992188 17.449219 Z M 22.71875 15.074219 L 22.460938 14.832031 L 22.429688 14.863281 L 22.40625 14.902344 Z M 22.738281 15.054688 L 22.46875 14.820312 L 22.46875 14.824219 Z M 22.746094 15.046875 L 22.472656 14.8125 Z M 22.75 15.039062 L 23.023438 15.273438 Z M 22.753906 15.035156 L 22.503906 14.78125 Z M 27.796875 15.164062 L 28.109375 14.992188 L 28.003906 14.808594 L 27.796875 14.808594 Z M 22.847656 15.164062 L 22.847656 14.808594 L 22.640625 14.808594 L 22.539062 14.992188 Z M 21.5 17.589844 L 21.1875 17.417969 L 20.894531 17.945312 L 21.5 17.945312 Z M 29.144531 17.589844 L 29.144531 17.945312 L 29.75 17.945312 L 29.457031 17.417969 Z M 28.089844 36.277344 L 27.734375 36.253906 L 27.734375 36.257812 Z M 28.089844 36.28125 L 28.445312 36.300781 Z M 28.066406 36.324219 L 27.8125 36.070312 Z M 25.378906 39.015625 L 25.628906 39.265625 Z M 25.273438 39.015625 L 25.019531 39.265625 Z M 22.585938 36.324219 L 22.835938 36.070312 Z M 22.5625 36.28125 L 22.207031 36.300781 Z M 22.5625 36.277344 L 22.917969 36.257812 L 22.917969 36.253906 Z M 22.402344 33.910156 L 22.046875 33.921875 L 22.046875 33.933594 Z M 22.421875 33.851562 L 22.683594 34.097656 Z M 22.433594 33.839844 L 22.25 33.53125 L 22.207031 33.558594 L 22.175781 33.59375 Z M 28.230469 33.851562 L 28.488281 33.609375 Z M 28.246094 33.910156 L 28.605469 33.933594 L 28.605469 33.921875 Z M 28.097656 33.976562 L 28.453125 34 L 28.480469 33.617188 L 28.097656 33.617188 Z M 22.554688 33.976562 L 22.554688 33.617188 L 22.171875 33.617188 L 22.199219 34 Z M 22.707031 36.242188 L 22.351562 36.265625 L 22.359375 36.398438 L 22.453125 36.492188 Z M 25.324219 38.863281 L 25.074219 39.117188 L 25.324219 39.367188 L 25.578125 39.117188 Z M 27.945312 36.242188 L 28.195312 36.492188 L 28.289062 36.398438 L 28.300781 36.265625 Z M 29.195312 17.730469 L 29.550781 17.757812 L 29.574219 17.375 L 29.195312 17.375 Z M 21.457031 17.730469 L 21.457031 17.375 L 21.074219 17.375 L 21.101562 17.757812 Z M 22.542969 33.828125 L 22.1875 33.851562 L 22.210938 34.183594 L 22.542969 34.183594 Z M 28.109375 33.828125 L 28.109375 34.183594 L 28.445312 34.183594 L 28.464844 33.851562 Z M 29.324219 17.609375 L 29.066406 17.851562 Z M 29.34375 17.667969 L 29.703125 17.691406 L 29.703125 17.679688 Z M 28.246094 33.902344 L 28.601562 33.964844 L 28.601562 33.945312 L 28.605469 33.929688 Z M 28.246094 33.90625 L 27.898438 33.835938 L 27.890625 33.875 Z M 22.398438 33.90625 L 22.042969 33.90625 L 22.042969 33.9375 Z M 22.398438 33.902344 L 22.042969 33.929688 L 22.042969 33.953125 L 22.046875 33.972656 Z M 21.300781 17.667969 L 20.945312 17.679688 L 20.945312 17.691406 Z M 21.3125 17.621094 L 21.078125 17.351562 L 21.03125 17.394531 L 21 17.445312 Z M 21.316406 17.617188 L 21.5625 17.878906 L 21.5625 17.875 Z M 24.679688 26.40625 L 24.929688 26.65625 Z M 25.96875 26.40625 L 25.714844 26.65625 Z M 24.679688 27.695312 L 24.929688 27.441406 Z M 25.265625 27.84375 L 25.023438 27.582031 Z M 25.269531 27.839844 L 25.511719 28.101562 L 25.515625 28.097656 L 25.523438 28.09375 Z M 33.394531 27.203125 L 7.0625 27.203125 L 7.0625 27.917969 L 33.394531 27.917969 Z M 7.421875 27.5625 L 7.421875 11.894531 L 6.707031 11.894531 L 6.707031 27.5625 Z M 7.421875 11.894531 C 7.421875 11.472656 7.765625 11.128906 8.183594 11.128906 L 8.183594 10.417969 C 7.371094 10.417969 6.707031 11.074219 6.707031 11.894531 Z M 8.183594 11.128906 L 32.304688 11.128906 L 32.304688 10.417969 L 8.183594 10.417969 Z M 32.304688 11.128906 C 32.707031 11.128906 33.039062 11.457031 33.039062 11.863281 L 33.753906 11.863281 C 33.753906 11.0625 33.101562 10.417969 32.304688 10.417969 Z M 33.039062 11.863281 L 33.039062 27.5625 L 33.753906 27.5625 L 33.753906 11.863281 Z M 33.921875 11.789062 C 33.921875 10.941406 33.230469 10.25 32.378906 10.25 L 32.378906 10.960938 C 32.835938 10.960938 33.207031 11.332031 33.207031 11.789062 Z M 32.378906 10.25 L 8.082031 10.25 L 8.082031 10.960938 L 32.378906 10.960938 Z M 8.082031 10.25 C 7.230469 10.25 6.539062 10.941406 6.539062 11.789062 L 7.253906 11.789062 C 7.253906 11.332031 7.625 10.960938 8.082031 10.960938 Z M 33.636719 27.84375 L 6.824219 27.84375 L 6.824219 28.558594 L 33.636719 28.558594 Z M 6.824219 27.84375 C 6.910156 27.84375 6.980469 27.882812 7.023438 27.925781 C 7.070312 27.972656 7.105469 28.039062 7.105469 28.128906 L 6.394531 28.128906 C 6.394531 28.363281 6.589844 28.558594 6.824219 28.558594 Z M 7.105469 28.128906 L 7.105469 11.789062 L 6.394531 11.789062 L 6.394531 28.128906 Z M 7.105469 11.789062 C 7.105469 11.253906 7.542969 10.816406 8.082031 10.816406 L 8.082031 10.101562 C 7.148438 10.101562 6.394531 10.859375 6.394531 11.789062 Z M 8.082031 10.816406 L 32.378906 10.816406 L 32.378906 10.101562 L 8.082031 10.101562 Z M 32.378906 10.816406 C 32.917969 10.816406 33.351562 11.253906 33.351562 11.789062 L 34.066406 11.789062 C 34.066406 10.859375 33.3125 10.101562 32.378906 10.101562 Z M 33.351562 11.789062 L 33.351562 28.128906 L 34.066406 28.128906 L 34.066406 11.789062 Z M 33.351562 28.128906 C 33.351562 28.042969 33.390625 27.972656 33.433594 27.925781 C 33.480469 27.882812 33.550781 27.84375 33.636719 27.84375 L 33.636719 28.558594 C 33.871094 28.558594 34.066406 28.363281 34.066406 28.128906 Z M 26.09375 32.871094 L 14.363281 32.871094 L 14.363281 33.585938 L 26.09375 33.585938 Z M 14.363281 32.871094 C 14.453125 32.871094 14.523438 32.910156 14.566406 32.953125 C 14.609375 33 14.648438 33.070312 14.648438 33.15625 L 13.933594 33.15625 C 13.933594 33.390625 14.128906 33.585938 14.363281 33.585938 Z M 14.648438 33.15625 L 14.648438 30.640625 L 13.933594 30.640625 L 13.933594 33.15625 Z M 14.648438 30.640625 C 14.648438 30.730469 14.609375 30.800781 14.566406 30.84375 C 14.523438 30.886719 14.453125 30.925781 14.363281 30.925781 L 14.363281 30.210938 C 14.128906 30.210938 13.933594 30.40625 13.933594 30.640625 Z M 14.363281 30.925781 L 26.09375 30.925781 L 26.09375 30.210938 L 14.363281 30.210938 Z M 26.09375 30.925781 C 26.007812 30.925781 25.9375 30.886719 25.894531 30.84375 C 25.851562 30.800781 25.8125 30.730469 25.8125 30.640625 L 26.527344 30.640625 C 26.527344 30.40625 26.332031 30.210938 26.09375 30.210938 Z M 25.8125 30.640625 L 25.8125 33.15625 L 26.527344 33.15625 L 26.527344 30.640625 Z M 25.8125 33.15625 C 25.8125 33.070312 25.851562 33 25.894531 32.953125 C 25.9375 32.910156 26.007812 32.871094 26.09375 32.871094 L 26.09375 33.585938 C 26.332031 33.585938 26.527344 33.390625 26.527344 33.15625 Z M 6.539062 29.386719 C 6.539062 30.234375 7.230469 30.925781 8.082031 30.925781 L 8.082031 30.210938 C 7.625 30.210938 7.253906 29.839844 7.253906 29.386719 Z M 8.082031 30.925781 L 32.378906 30.925781 L 32.378906 30.210938 L 8.082031 30.210938 Z M 32.378906 30.925781 C 33.230469 30.925781 33.921875 30.234375 33.921875 29.386719 L 33.207031 29.386719 C 33.207031 29.839844 32.835938 30.210938 32.378906 30.210938 Z M 32.378906 30.359375 L 8.082031 30.359375 L 8.082031 31.074219 L 32.378906 31.074219 Z M 8.082031 30.359375 C 7.542969 30.359375 7.105469 29.921875 7.105469 29.386719 L 6.394531 29.386719 C 6.394531 30.316406 7.148438 31.074219 8.082031 31.074219 Z M 7.105469 29.386719 L 7.105469 28.128906 L 6.394531 28.128906 L 6.394531 29.386719 Z M 7.105469 28.128906 C 7.105469 28.214844 7.070312 28.285156 7.023438 28.328125 C 6.980469 28.375 6.910156 28.410156 6.824219 28.410156 L 6.824219 27.699219 C 6.589844 27.699219 6.394531 27.894531 6.394531 28.128906 Z M 6.824219 28.410156 L 33.636719 28.410156 L 33.636719 27.699219 L 6.824219 27.699219 Z M 33.636719 28.410156 C 33.550781 28.410156 33.480469 28.375 33.433594 28.328125 C 33.390625 28.285156 33.351562 28.214844 33.351562 28.128906 L 34.066406 28.128906 C 34.066406 27.894531 33.871094 27.699219 33.636719 27.699219 Z M 33.351562 28.128906 L 33.351562 29.386719 L 34.066406 29.386719 L 34.066406 28.128906 Z M 33.351562 29.386719 C 33.351562 29.921875 32.917969 30.359375 32.378906 30.359375 L 32.378906 31.074219 C 33.3125 31.074219 34.066406 30.316406 34.066406 29.386719 Z M 30.285156 32.871094 L 10.175781 32.871094 L 10.175781 33.585938 L 30.285156 33.585938 Z M 10.175781 32.871094 C 10.261719 32.871094 10.332031 32.910156 10.375 32.953125 C 10.421875 33 10.460938 33.070312 10.460938 33.15625 L 9.746094 33.15625 C 9.746094 33.390625 9.941406 33.585938 10.175781 33.585938 Z M 10.460938 33.15625 C 10.460938 33.242188 10.421875 33.3125 10.375 33.355469 C 10.332031 33.402344 10.261719 33.4375 10.175781 33.4375 L 10.175781 32.726562 C 9.941406 32.726562 9.746094 32.921875 9.746094 33.15625 Z M 10.175781 33.4375 L 30.285156 33.4375 L 30.285156 32.726562 L 10.175781 32.726562 Z M 30.285156 33.4375 C 30.199219 33.4375 30.128906 33.402344 30.082031 33.355469 C 30.039062 33.3125 30 33.242188 30 33.15625 L 30.714844 33.15625 C 30.714844 32.917969 30.519531 32.726562 30.285156 32.726562 Z M 30 33.15625 C 30 33.070312 30.039062 33 30.082031 32.953125 C 30.128906 32.910156 30.199219 32.871094 30.285156 32.871094 L 30.285156 33.585938 C 30.519531 33.585938 30.714844 33.390625 30.714844 33.15625 Z M 20.050781 29.386719 C 20.050781 29.285156 20.132812 29.207031 20.230469 29.207031 L 20.230469 29.921875 C 20.527344 29.921875 20.765625 29.679688 20.765625 29.386719 Z M 20.230469 29.207031 C 20.328125 29.207031 20.410156 29.285156 20.410156 29.386719 L 19.695312 29.386719 C 19.695312 29.679688 19.933594 29.921875 20.230469 29.921875 Z M 20.410156 29.386719 C 20.410156 29.484375 20.328125 29.5625 20.230469 29.5625 L 20.230469 28.851562 C 19.933594 28.851562 19.695312 29.089844 19.695312 29.386719 Z M 20.230469 29.5625 C 20.132812 29.5625 20.050781 29.484375 20.050781 29.386719 L 20.765625 29.386719 C 20.765625 29.089844 20.527344 28.851562 20.230469 28.851562 Z M 17.285156 10.53125 L 17.285156 27.8125 L 18 27.8125 L 18 10.53125 Z M 17.640625 13.710938 L 6.824219 13.710938 L 6.824219 14.425781 L 17.640625 14.425781 Z M 8.875 13.53125 C 9.527344 13.53125 10.054688 13.003906 10.054688 12.355469 L 9.339844 12.355469 C 9.339844 12.613281 9.132812 12.820312 8.875 12.820312 Z M 10.054688 12.355469 C 10.054688 11.703125 9.527344 11.175781 8.875 11.175781 L 8.875 11.890625 C 9.132812 11.890625 9.339844 12.097656 9.339844 12.355469 Z M 8.875 11.175781 C 8.226562 11.175781 7.699219 11.703125 7.699219 12.355469 L 8.414062 12.355469 C 8.414062 12.097656 8.621094 11.890625 8.875 11.890625 Z M 7.699219 12.355469 C 7.699219 13.003906 8.226562 13.53125 8.875 13.53125 L 8.875 12.820312 C 8.621094 12.820312 8.414062 12.613281 8.414062 12.355469 Z M 11.75 13.53125 C 12.402344 13.53125 12.929688 13.003906 12.929688 12.355469 L 12.214844 12.355469 C 12.214844 12.613281 12.007812 12.820312 11.75 12.820312 Z M 12.929688 12.355469 C 12.929688 11.703125 12.402344 11.175781 11.75 11.175781 L 11.75 11.890625 C 12.007812 11.890625 12.214844 12.097656 12.214844 12.355469 Z M 11.75 11.175781 C 11.101562 11.175781 10.574219 11.703125 10.574219 12.355469 L 11.285156 12.355469 C 11.285156 12.097656 11.492188 11.890625 11.75 11.890625 Z M 10.574219 12.355469 C 10.574219 13.003906 11.101562 13.53125 11.75 13.53125 L 11.75 12.820312 C 11.492188 12.820312 11.285156 12.613281 11.285156 12.355469 Z M 14.628906 13.53125 C 15.28125 13.53125 15.808594 13.003906 15.808594 12.355469 L 15.09375 12.355469 C 15.09375 12.613281 14.886719 12.820312 14.628906 12.820312 Z M 15.808594 12.355469 C 15.808594 11.703125 15.28125 11.175781 14.628906 11.175781 L 14.628906 11.890625 C 14.886719 11.890625 15.09375 12.097656 15.09375 12.355469 Z M 14.628906 11.175781 C 13.976562 11.175781 13.449219 11.703125 13.449219 12.355469 L 14.164062 12.355469 C 14.164062 12.097656 14.371094 11.890625 14.628906 11.890625 Z M 13.449219 12.355469 C 13.449219 13.003906 13.976562 13.53125 14.628906 13.53125 L 14.628906 12.820312 C 14.371094 12.820312 14.164062 12.613281 14.164062 12.355469 Z M 8.671875 19.085938 L 14.417969 19.085938 L 14.417969 18.371094 L 8.671875 18.371094 Z M 8.671875 17.8125 L 15.289062 17.8125 L 15.289062 17.097656 L 8.671875 17.097656 Z M 8.671875 20.363281 L 16.066406 20.363281 L 16.066406 19.648438 L 8.671875 19.648438 Z M 8.671875 21.636719 L 14.417969 21.636719 L 14.417969 20.921875 L 8.671875 20.921875 Z M 8.671875 20.363281 L 15.289062 20.363281 L 15.289062 19.648438 L 8.671875 19.648438 Z M 8.671875 22.910156 L 16.066406 22.910156 L 16.066406 22.195312 L 8.671875 22.195312 Z M 25.078125 1.191406 L 25.082031 1.191406 L 25.6875 0.816406 L 25.6875 0.8125 Z M 25.082031 1.195312 L 29.695312 8.484375 L 30.296875 8.101562 L 25.6875 0.8125 Z M 29.699219 8.492188 C 29.699219 8.488281 29.695312 8.488281 29.695312 8.484375 C 29.691406 8.480469 29.6875 8.476562 29.683594 8.46875 C 29.683594 8.464844 29.679688 8.457031 29.675781 8.449219 C 29.671875 8.445312 29.671875 8.4375 29.667969 8.433594 C 29.664062 8.425781 29.660156 8.414062 29.65625 8.402344 C 29.652344 8.394531 29.648438 8.375 29.644531 8.347656 C 29.640625 8.335938 29.640625 8.316406 29.640625 8.296875 C 29.640625 8.277344 29.640625 8.246094 29.648438 8.210938 C 29.65625 8.179688 29.671875 8.132812 29.707031 8.085938 C 29.722656 8.0625 29.742188 8.042969 29.765625 8.023438 C 29.789062 8 29.816406 7.984375 29.839844 7.972656 C 29.894531 7.945312 29.949219 7.9375 29.988281 7.9375 C 30.027344 7.933594 30.0625 7.941406 30.082031 7.945312 C 30.105469 7.953125 30.125 7.960938 30.136719 7.964844 C 30.152344 7.972656 30.164062 7.976562 30.171875 7.980469 C 30.1875 7.992188 30.199219 8 30.207031 8.003906 C 30.222656 8.015625 30.234375 8.027344 30.238281 8.03125 C 30.25 8.042969 30.257812 8.050781 30.261719 8.054688 C 30.265625 8.058594 30.273438 8.066406 30.273438 8.070312 C 30.277344 8.074219 30.28125 8.078125 30.289062 8.085938 C 30.289062 8.089844 30.292969 8.09375 30.296875 8.101562 C 30.300781 8.105469 30.304688 8.109375 30.308594 8.117188 C 30.308594 8.121094 30.316406 8.132812 30.324219 8.148438 C 30.324219 8.15625 30.332031 8.167969 30.335938 8.179688 C 30.339844 8.191406 30.34375 8.214844 30.351562 8.242188 C 30.351562 8.253906 30.355469 8.273438 30.355469 8.296875 C 30.351562 8.320312 30.351562 8.347656 30.34375 8.382812 C 30.332031 8.417969 30.316406 8.457031 30.289062 8.5 C 30.257812 8.539062 30.21875 8.578125 30.171875 8.605469 C 30.128906 8.628906 30.082031 8.640625 30.042969 8.648438 C 30.007812 8.652344 29.976562 8.648438 29.953125 8.648438 C 29.929688 8.644531 29.910156 8.640625 29.894531 8.636719 C 29.878906 8.628906 29.867188 8.625 29.855469 8.621094 C 29.835938 8.613281 29.824219 8.605469 29.8125 8.601562 C 29.804688 8.59375 29.796875 8.589844 29.792969 8.585938 C 29.78125 8.578125 29.773438 8.570312 29.769531 8.566406 C 29.761719 8.5625 29.757812 8.558594 29.757812 8.558594 C 29.75 8.550781 29.746094 8.546875 29.746094 8.546875 L 30.25 8.039062 C 30.246094 8.039062 30.242188 8.035156 30.238281 8.03125 C 30.234375 8.027344 30.230469 8.023438 30.226562 8.019531 C 30.222656 8.015625 30.210938 8.007812 30.203125 8 C 30.195312 7.996094 30.1875 7.992188 30.179688 7.988281 C 30.171875 7.980469 30.15625 7.972656 30.136719 7.964844 C 30.128906 7.960938 30.113281 7.957031 30.101562 7.953125 C 30.085938 7.945312 30.066406 7.941406 30.042969 7.9375 C 30.019531 7.9375 29.984375 7.933594 29.949219 7.941406 C 29.910156 7.945312 29.867188 7.957031 29.820312 7.984375 C 29.773438 8.007812 29.734375 8.046875 29.703125 8.089844 C 29.675781 8.128906 29.660156 8.171875 29.652344 8.203125 C 29.640625 8.238281 29.640625 8.269531 29.640625 8.289062 C 29.640625 8.3125 29.640625 8.332031 29.644531 8.34375 C 29.648438 8.371094 29.652344 8.394531 29.65625 8.40625 C 29.664062 8.421875 29.667969 8.429688 29.671875 8.4375 C 29.675781 8.453125 29.683594 8.464844 29.6875 8.46875 C 29.691406 8.476562 29.691406 8.480469 29.695312 8.484375 C 29.699219 8.492188 29.703125 8.496094 29.707031 8.5 C 29.710938 8.507812 29.714844 8.511719 29.71875 8.515625 C 29.722656 8.519531 29.726562 8.527344 29.734375 8.535156 C 29.734375 8.535156 29.742188 8.546875 29.753906 8.554688 C 29.757812 8.558594 29.769531 8.570312 29.785156 8.582031 C 29.792969 8.585938 29.804688 8.59375 29.820312 8.605469 C 29.832031 8.609375 29.839844 8.613281 29.855469 8.621094 C 29.867188 8.625 29.886719 8.632812 29.910156 8.640625 C 29.933594 8.644531 29.964844 8.652344 30.003906 8.648438 C 30.046875 8.648438 30.097656 8.640625 30.152344 8.613281 C 30.179688 8.601562 30.203125 8.585938 30.226562 8.566406 C 30.25 8.546875 30.273438 8.523438 30.289062 8.5 C 30.320312 8.453125 30.335938 8.410156 30.34375 8.375 C 30.351562 8.339844 30.355469 8.3125 30.355469 8.289062 C 30.351562 8.269531 30.351562 8.25 30.347656 8.238281 C 30.34375 8.214844 30.339844 8.195312 30.335938 8.183594 C 30.332031 8.171875 30.328125 8.160156 30.324219 8.15625 C 30.324219 8.148438 30.320312 8.140625 30.316406 8.136719 C 30.3125 8.128906 30.3125 8.125 30.308594 8.121094 C 30.304688 8.113281 30.300781 8.105469 30.296875 8.101562 C 30.296875 8.101562 30.292969 8.097656 30.292969 8.09375 Z M 29.691406 8.480469 C 29.636719 8.390625 29.640625 8.285156 29.683594 8.207031 L 30.308594 8.546875 C 30.386719 8.40625 30.382812 8.238281 30.300781 8.105469 Z M 29.6875 8.195312 L 30.300781 8.5625 Z M 29.6875 8.199219 L 29.679688 8.207031 L 30.296875 8.566406 L 30.304688 8.558594 Z M 29.679688 8.210938 L 29.664062 8.238281 L 30.28125 8.59375 L 30.300781 8.566406 Z M 29.664062 8.242188 C 29.648438 8.269531 29.625 8.304688 29.597656 8.355469 L 30.222656 8.699219 C 30.25 8.65625 30.269531 8.617188 30.28125 8.59375 Z M 29.597656 8.355469 C 29.542969 8.453125 29.46875 8.597656 29.375 8.777344 L 30.011719 9.097656 C 30.101562 8.925781 30.171875 8.792969 30.222656 8.699219 Z M 29.375 8.777344 C 29.195312 9.136719 28.953125 9.648438 28.703125 10.269531 L 29.367188 10.535156 C 29.605469 9.933594 29.839844 9.441406 30.011719 9.097656 Z M 28.703125 10.269531 C 28.207031 11.511719 27.675781 13.222656 27.554688 15.066406 L 28.269531 15.113281 C 28.382812 13.367188 28.886719 11.738281 29.367188 10.535156 Z M 27.554688 15.058594 C 27.5625 14.996094 27.59375 14.929688 27.644531 14.878906 L 28.132812 15.402344 C 28.210938 15.332031 28.257812 15.230469 28.269531 15.121094 Z M 27.644531 14.878906 C 27.699219 14.828125 27.769531 14.804688 27.839844 14.804688 L 27.839844 15.515625 C 27.953125 15.515625 28.054688 15.472656 28.132812 15.402344 Z M 27.839844 14.804688 L 22.804688 14.804688 L 22.804688 15.515625 L 27.839844 15.515625 Z M 22.804688 14.804688 C 22.957031 14.804688 23.074219 14.917969 23.089844 15.058594 L 22.378906 15.121094 C 22.398438 15.347656 22.582031 15.515625 22.804688 15.515625 Z M 23.089844 15.066406 C 22.96875 13.21875 22.4375 11.511719 21.941406 10.269531 L 21.277344 10.535156 C 21.757812 11.734375 22.261719 13.367188 22.375 15.113281 Z M 21.941406 10.269531 C 21.691406 9.644531 21.449219 9.132812 21.269531 8.777344 L 20.632812 9.097656 C 20.804688 9.441406 21.039062 9.933594 21.277344 10.535156 Z M 21.269531 8.777344 C 21.175781 8.597656 21.101562 8.453125 21.046875 8.355469 L 20.421875 8.699219 C 20.472656 8.792969 20.542969 8.925781 20.632812 9.097656 Z M 21.046875 8.355469 C 21.019531 8.304688 20.996094 8.265625 20.980469 8.242188 L 20.363281 8.59375 C 20.375 8.617188 20.394531 8.65625 20.421875 8.699219 Z M 20.980469 8.238281 L 20.964844 8.210938 L 20.34375 8.566406 L 20.363281 8.59375 Z M 20.964844 8.207031 L 20.957031 8.199219 L 20.339844 8.558594 L 20.347656 8.566406 Z M 20.949219 8.183594 C 20.949219 8.1875 20.953125 8.191406 20.957031 8.195312 C 20.957031 8.199219 20.964844 8.207031 20.96875 8.21875 L 20.328125 8.535156 C 20.339844 8.554688 20.347656 8.566406 20.351562 8.574219 Z M 20.957031 8.199219 L 20.957031 8.195312 L 20.339844 8.554688 Z M 20.957031 8.195312 C 20.984375 8.242188 20.996094 8.292969 20.992188 8.335938 C 20.992188 8.378906 20.984375 8.429688 20.953125 8.480469 L 20.34375 8.105469 C 20.261719 8.242188 20.257812 8.417969 20.339844 8.554688 Z M 20.945312 8.492188 C 20.449219 8.589844 20.351562 8.09375 20.351562 8.09375 C 20.351562 8.09375 20.351562 8.097656 20.351562 8.097656 C 20.351562 8.097656 20.449219 8.589844 20.945312 8.492188 L 20.351562 8.09375 C 20.351562 8.097656 20.351562 8.09375 20.351562 8.097656 C 20.84375 7.996094 20.945312 8.492188 20.945312 8.492188 C 20.945312 8.492188 20.84375 7.996094 20.351562 8.09375 C 20.351562 8.097656 20.351562 8.09375 20.351562 8.09375 Z M 20.949219 8.484375 L 25.5625 1.195312 L 24.957031 0.8125 L 20.347656 8.101562 Z M 25.519531 1.25 L 25.007812 0.753906 C 25.003906 0.757812 25 0.761719 24.996094 0.761719 Z M 25.515625 1.253906 L 25.527344 1.242188 L 25.019531 0.742188 L 25.007812 0.75 Z M 25.523438 1.246094 C 25.472656 1.296875 25.402344 1.328125 25.324219 1.328125 L 25.324219 0.613281 C 25.210938 0.613281 25.101562 0.660156 25.019531 0.738281 Z M 25.324219 1.328125 C 25.230469 1.328125 25.132812 1.277344 25.074219 1.179688 L 25.6875 0.816406 C 25.613281 0.691406 25.476562 0.613281 25.324219 0.613281 Z M 25.074219 1.179688 L 25.074219 1.183594 L 25.691406 0.820312 L 25.6875 0.816406 Z M 30.089844 8.636719 L 30.160156 8.511719 L 29.535156 8.164062 L 29.46875 8.289062 Z M 20.484375 8.511719 L 20.554688 8.636719 L 21.175781 8.289062 L 21.109375 8.164062 Z M 20.554688 8.636719 C 20.921875 9.296875 22.238281 11.839844 22.5 14.828125 L 23.210938 14.765625 C 22.9375 11.628906 21.5625 8.980469 21.175781 8.289062 Z M 22.5 14.828125 L 22.519531 15.046875 L 23.230469 14.988281 L 23.210938 14.765625 Z M 28.125 15.050781 L 28.144531 14.828125 L 27.433594 14.765625 L 27.414062 14.984375 Z M 28.144531 14.828125 C 28.410156 11.835938 29.722656 9.292969 30.089844 8.636719 L 29.46875 8.289062 C 29.082031 8.976562 27.710938 11.625 27.433594 14.765625 Z M 24.078125 9.914062 L 24.597656 9.425781 L 24.597656 9.421875 Z M 24.085938 9.921875 C 24.773438 10.601562 25.878906 10.601562 26.5625 9.921875 L 26.054688 9.414062 C 25.652344 9.820312 24.996094 9.820312 24.589844 9.414062 Z M 26.5625 9.921875 C 27.242188 9.238281 27.242188 8.128906 26.5625 7.445312 L 26.054688 7.949219 C 26.460938 8.351562 26.460938 9.011719 26.054688 9.414062 Z M 26.5625 7.445312 C 25.878906 6.761719 24.765625 6.761719 24.085938 7.445312 L 24.589844 7.949219 C 24.992188 7.546875 25.652344 7.546875 26.054688 7.949219 Z M 24.085938 7.445312 C 23.402344 8.128906 23.402344 9.238281 24.085938 9.921875 L 24.589844 9.414062 C 24.1875 9.011719 24.1875 8.351562 24.589844 7.949219 Z M 24.488281 7.847656 C 24.949219 7.386719 25.699219 7.386719 26.160156 7.847656 L 26.664062 7.34375 C 25.921875 6.601562 24.722656 6.601562 23.980469 7.34375 Z M 26.160156 7.847656 C 26.621094 8.308594 26.621094 9.058594 26.160156 9.519531 L 26.664062 10.023438 C 27.40625 9.28125 27.40625 8.082031 26.664062 7.34375 Z M 26.160156 9.519531 C 25.699219 9.980469 24.949219 9.980469 24.488281 9.519531 L 23.984375 10.023438 C 24.722656 10.765625 25.921875 10.765625 26.664062 10.023438 Z M 24.488281 9.519531 C 24.027344 9.058594 24.03125 8.304688 24.488281 7.847656 L 23.980469 7.34375 C 23.246094 8.078125 23.246094 9.28125 23.980469 10.023438 Z M 25.523438 1.246094 C 25.507812 1.261719 25.480469 1.285156 25.433594 1.304688 C 25.390625 1.324219 25.351562 1.328125 25.324219 1.328125 L 25.324219 0.613281 C 25.277344 0.613281 25.21875 0.621094 25.15625 0.644531 C 25.097656 0.671875 25.050781 0.707031 25.019531 0.738281 Z M 25.324219 1.328125 C 25.238281 1.328125 25.167969 1.289062 25.125 1.246094 C 25.078125 1.199219 25.039062 1.128906 25.039062 1.042969 L 25.753906 1.042969 C 25.753906 0.808594 25.558594 0.613281 25.324219 0.613281 Z M 25.039062 1.042969 L 25.039062 7.214844 L 25.753906 7.214844 L 25.753906 1.042969 Z M 25.039062 7.214844 C 25.039062 7.128906 25.078125 7.058594 25.125 7.011719 C 25.167969 6.96875 25.238281 6.929688 25.324219 6.929688 L 25.324219 7.644531 C 25.558594 7.644531 25.753906 7.449219 25.753906 7.214844 Z M 25.324219 6.929688 C 25.410156 6.929688 25.480469 6.96875 25.527344 7.011719 C 25.570312 7.058594 25.609375 7.128906 25.609375 7.214844 L 24.894531 7.214844 C 24.894531 7.449219 25.089844 7.644531 25.324219 7.644531 Z M 25.609375 7.214844 L 25.609375 1.042969 L 24.894531 1.042969 L 24.894531 7.214844 Z M 25.609375 1.042969 C 25.609375 1.070312 25.605469 1.109375 25.585938 1.152344 C 25.566406 1.199219 25.542969 1.226562 25.523438 1.242188 L 25.019531 0.738281 C 24.988281 0.769531 24.953125 0.816406 24.925781 0.875 C 24.902344 0.9375 24.894531 0.996094 24.894531 1.042969 Z M 29.027344 17.804688 L 29.640625 17.441406 L 29.640625 17.4375 Z M 29.023438 17.796875 C 28.996094 17.75 28.984375 17.699219 28.984375 17.652344 C 28.988281 17.609375 28.996094 17.554688 29.035156 17.492188 L 29.636719 17.875 C 29.71875 17.75 29.71875 17.582031 29.644531 17.445312 Z M 29.035156 17.496094 L 29.03125 17.5 L 29.632812 17.878906 L 29.636719 17.875 Z M 29.019531 17.515625 L 29.019531 17.519531 L 29.640625 17.871094 L 29.644531 17.863281 Z M 29.019531 17.519531 C 29.074219 17.421875 29.171875 17.371094 29.265625 17.371094 L 29.265625 18.085938 C 29.421875 18.085938 29.566406 18.003906 29.640625 17.871094 Z M 29.265625 17.371094 L 21.375 17.371094 L 21.375 18.085938 L 29.265625 18.085938 Z M 21.375 17.371094 C 21.417969 17.371094 21.46875 17.382812 21.515625 17.410156 C 21.558594 17.433594 21.59375 17.46875 21.613281 17.503906 L 21.003906 17.875 C 21.082031 18.003906 21.21875 18.085938 21.375 18.085938 Z M 21.613281 17.503906 C 21.636719 17.542969 21.652344 17.59375 21.65625 17.648438 C 21.65625 17.703125 21.640625 17.75 21.625 17.78125 L 20.992188 17.449219 C 20.921875 17.585938 20.921875 17.746094 21.003906 17.875 Z M 21.621094 17.789062 L 23.03125 15.25 L 22.40625 14.902344 L 20.996094 17.441406 Z M 22.980469 15.320312 C 22.992188 15.304688 23.003906 15.292969 23.007812 15.285156 L 22.46875 14.824219 C 22.464844 14.828125 22.460938 14.828125 22.460938 14.832031 Z M 23.007812 15.289062 C 23.011719 15.285156 23.011719 15.28125 23.015625 15.28125 C 23.015625 15.277344 23.015625 15.277344 23.015625 15.277344 C 23.019531 15.277344 23.015625 15.277344 23.015625 15.277344 L 22.472656 14.8125 C 22.472656 14.816406 22.472656 14.816406 22.472656 14.816406 C 22.46875 14.820312 22.46875 14.820312 22.46875 14.820312 Z M 23.015625 15.277344 C 23.019531 15.277344 23.019531 15.273438 23.023438 15.273438 L 22.480469 14.804688 C 22.476562 14.808594 22.476562 14.8125 22.472656 14.8125 Z M 23.023438 15.273438 C 23.019531 15.273438 23.019531 15.273438 23.015625 15.277344 C 23.015625 15.277344 23.015625 15.28125 23.011719 15.28125 C 23.011719 15.28125 23.011719 15.285156 23.011719 15.285156 C 23.007812 15.285156 23.007812 15.285156 23.007812 15.285156 C 23.007812 15.285156 23.007812 15.289062 23.007812 15.289062 L 22.503906 14.78125 C 22.503906 14.785156 22.5 14.785156 22.5 14.785156 C 22.5 14.785156 22.496094 14.789062 22.496094 14.789062 C 22.496094 14.789062 22.492188 14.792969 22.492188 14.792969 C 22.488281 14.796875 22.484375 14.800781 22.480469 14.804688 Z M 23.007812 15.289062 C 22.953125 15.339844 22.882812 15.371094 22.808594 15.371094 L 22.808594 14.65625 C 22.691406 14.65625 22.582031 14.703125 22.503906 14.78125 Z M 22.808594 15.371094 L 27.839844 15.371094 L 27.839844 14.65625 L 22.808594 14.65625 Z M 27.839844 15.371094 C 27.78125 15.371094 27.730469 15.355469 27.695312 15.332031 C 27.65625 15.308594 27.617188 15.277344 27.589844 15.226562 L 28.210938 14.871094 C 28.132812 14.742188 27.992188 14.65625 27.839844 14.65625 Z M 27.582031 15.210938 C 27.582031 15.207031 27.578125 15.203125 27.574219 15.195312 C 27.574219 15.195312 27.570312 15.1875 27.570312 15.183594 C 27.566406 15.179688 27.566406 15.175781 27.566406 15.171875 C 27.5625 15.164062 27.558594 15.160156 27.558594 15.148438 C 27.554688 15.140625 27.550781 15.125 27.546875 15.105469 C 27.546875 15.097656 27.542969 15.082031 27.542969 15.066406 C 27.542969 15.046875 27.542969 15.023438 27.546875 14.988281 C 27.550781 14.972656 27.554688 14.953125 27.5625 14.929688 C 27.570312 14.910156 27.585938 14.882812 27.601562 14.855469 C 27.621094 14.824219 27.644531 14.796875 27.679688 14.769531 C 27.710938 14.746094 27.746094 14.726562 27.785156 14.710938 C 27.863281 14.6875 27.933594 14.691406 27.976562 14.699219 C 27.996094 14.707031 28.015625 14.710938 28.03125 14.71875 C 28.046875 14.722656 28.058594 14.730469 28.066406 14.734375 C 28.089844 14.746094 28.101562 14.753906 28.113281 14.761719 C 28.125 14.769531 28.132812 14.777344 28.136719 14.78125 C 28.148438 14.792969 28.15625 14.800781 28.164062 14.808594 C 28.171875 14.816406 28.179688 14.828125 28.183594 14.832031 C 28.1875 14.839844 28.195312 14.847656 28.195312 14.847656 C 28.199219 14.851562 28.199219 14.855469 28.199219 14.855469 C 28.203125 14.859375 28.203125 14.863281 28.207031 14.867188 C 28.207031 14.867188 28.210938 14.875 28.214844 14.878906 C 28.214844 14.882812 28.214844 14.882812 28.21875 14.886719 C 28.21875 14.890625 28.222656 14.894531 28.226562 14.902344 C 28.226562 14.902344 28.226562 14.910156 28.230469 14.914062 C 28.234375 14.917969 28.238281 14.929688 28.242188 14.941406 C 28.242188 14.945312 28.246094 14.957031 28.246094 14.964844 C 28.25 14.976562 28.253906 14.992188 28.253906 15.011719 C 28.257812 15.019531 28.257812 15.035156 28.257812 15.046875 C 28.257812 15.0625 28.257812 15.082031 28.253906 15.105469 C 28.25 15.128906 28.242188 15.15625 28.226562 15.191406 C 28.214844 15.226562 28.191406 15.265625 28.152344 15.300781 C 28.136719 15.316406 28.105469 15.339844 28.089844 15.351562 C 28.074219 15.363281 28.035156 15.378906 28.015625 15.386719 C 27.96875 15.402344 27.921875 15.40625 27.882812 15.40625 C 27.847656 15.40625 27.816406 15.398438 27.796875 15.390625 C 27.773438 15.382812 27.757812 15.375 27.742188 15.371094 C 27.730469 15.363281 27.71875 15.355469 27.710938 15.351562 C 27.703125 15.347656 27.695312 15.339844 27.6875 15.335938 C 27.675781 15.328125 27.667969 15.320312 27.664062 15.316406 C 27.652344 15.304688 27.640625 15.296875 27.636719 15.292969 C 27.632812 15.285156 27.628906 15.28125 27.625 15.277344 C 27.621094 15.273438 27.617188 15.269531 27.617188 15.265625 C 27.613281 15.261719 27.613281 15.261719 27.609375 15.257812 C 27.605469 15.253906 27.605469 15.25 27.605469 15.246094 L 28.199219 14.851562 C 28.195312 14.851562 28.195312 14.847656 28.191406 14.839844 C 28.1875 14.839844 28.1875 14.835938 28.183594 14.835938 C 28.183594 14.832031 28.179688 14.828125 28.175781 14.820312 C 28.171875 14.816406 28.167969 14.8125 28.164062 14.808594 C 28.160156 14.804688 28.148438 14.792969 28.140625 14.785156 C 28.132812 14.777344 28.125 14.769531 28.113281 14.761719 C 28.105469 14.757812 28.097656 14.753906 28.089844 14.746094 C 28.082031 14.742188 28.070312 14.734375 28.058594 14.730469 C 28.042969 14.722656 28.027344 14.714844 28.003906 14.707031 C 27.984375 14.703125 27.953125 14.695312 27.917969 14.691406 C 27.878906 14.691406 27.832031 14.695312 27.785156 14.710938 C 27.765625 14.71875 27.730469 14.738281 27.710938 14.746094 C 27.695312 14.757812 27.664062 14.785156 27.648438 14.796875 C 27.609375 14.835938 27.585938 14.875 27.574219 14.910156 C 27.558594 14.941406 27.550781 14.972656 27.546875 14.996094 C 27.542969 15.015625 27.542969 15.035156 27.542969 15.050781 C 27.542969 15.066406 27.542969 15.078125 27.546875 15.089844 C 27.546875 15.109375 27.550781 15.125 27.554688 15.132812 C 27.554688 15.144531 27.558594 15.152344 27.5625 15.160156 C 27.566406 15.171875 27.566406 15.179688 27.570312 15.183594 C 27.574219 15.191406 27.574219 15.195312 27.578125 15.199219 C 27.578125 15.207031 27.582031 15.210938 27.582031 15.214844 C 27.585938 15.214844 27.585938 15.21875 27.585938 15.21875 C 27.589844 15.226562 27.59375 15.230469 27.59375 15.234375 C 27.597656 15.234375 27.597656 15.238281 27.601562 15.242188 C 27.601562 15.246094 27.601562 15.246094 27.605469 15.25 C 27.609375 15.253906 27.613281 15.261719 27.617188 15.269531 C 27.621094 15.273438 27.628906 15.28125 27.640625 15.292969 C 27.644531 15.296875 27.652344 15.308594 27.664062 15.316406 C 27.667969 15.320312 27.679688 15.328125 27.6875 15.335938 C 27.699219 15.34375 27.714844 15.355469 27.734375 15.363281 C 27.742188 15.371094 27.753906 15.375 27.769531 15.382812 C 27.785156 15.386719 27.804688 15.394531 27.828125 15.398438 C 27.871094 15.40625 27.9375 15.414062 28.015625 15.386719 C 28.054688 15.375 28.089844 15.355469 28.125 15.328125 C 28.15625 15.304688 28.179688 15.273438 28.199219 15.246094 C 28.21875 15.21875 28.230469 15.191406 28.238281 15.167969 C 28.246094 15.144531 28.25 15.125 28.253906 15.109375 C 28.257812 15.078125 28.257812 15.050781 28.257812 15.035156 C 28.257812 15.015625 28.253906 15.003906 28.253906 14.992188 C 28.25 14.972656 28.246094 14.957031 28.242188 14.949219 C 28.242188 14.941406 28.238281 14.933594 28.238281 14.929688 C 28.234375 14.925781 28.234375 14.917969 28.230469 14.917969 C 28.230469 14.910156 28.226562 14.90625 28.226562 14.902344 C 28.222656 14.898438 28.222656 14.890625 28.21875 14.890625 Z M 27.589844 15.222656 L 29.019531 17.792969 L 29.644531 17.449219 L 28.210938 14.875 Z M 27.734375 36.257812 L 27.730469 36.261719 L 28.445312 36.300781 L 28.445312 36.296875 Z M 27.730469 36.261719 C 27.738281 36.179688 27.769531 36.113281 27.8125 36.070312 L 28.320312 36.578125 C 28.394531 36.503906 28.4375 36.40625 28.445312 36.300781 Z M 27.8125 36.578125 L 27.984375 36.746094 L 28.488281 36.242188 L 28.320312 36.070312 Z M 27.8125 36.070312 L 25.125 38.761719 L 25.628906 39.265625 L 28.320312 36.578125 Z M 25.125 38.761719 C 25.175781 38.710938 25.25 38.679688 25.324219 38.679688 L 25.324219 39.394531 C 25.441406 39.394531 25.550781 39.347656 25.628906 39.265625 Z M 25.324219 38.679688 C 25.402344 38.679688 25.472656 38.710938 25.527344 38.761719 L 25.019531 39.265625 C 25.101562 39.347656 25.210938 39.394531 25.324219 39.394531 Z M 25.527344 38.761719 L 22.835938 36.070312 L 22.332031 36.578125 L 25.019531 39.265625 Z M 22.332031 36.070312 L 22.160156 36.242188 L 22.667969 36.746094 L 22.835938 36.578125 Z M 22.835938 36.070312 C 22.878906 36.113281 22.914062 36.179688 22.917969 36.261719 L 22.207031 36.300781 C 22.210938 36.40625 22.257812 36.503906 22.332031 36.578125 Z M 22.917969 36.261719 L 22.917969 36.257812 L 22.207031 36.296875 L 22.207031 36.300781 Z M 22.917969 36.253906 L 22.757812 33.886719 L 22.046875 33.933594 L 22.207031 36.300781 Z M 22.757812 33.898438 C 22.761719 33.960938 22.738281 34.035156 22.683594 34.097656 L 22.160156 33.609375 C 22.082031 33.691406 22.042969 33.804688 22.046875 33.921875 Z M 22.683594 34.097656 L 22.695312 34.082031 L 22.175781 33.59375 L 22.160156 33.609375 Z M 22.617188 34.144531 C 22.574219 34.171875 22.523438 34.183594 22.472656 34.183594 L 22.472656 33.472656 C 22.394531 33.472656 22.316406 33.492188 22.25 33.53125 Z M 22.472656 34.183594 L 28.175781 34.183594 L 28.175781 33.472656 L 22.472656 33.472656 Z M 28.175781 34.183594 C 28.09375 34.183594 28.019531 34.152344 27.96875 34.097656 L 28.488281 33.609375 C 28.410156 33.523438 28.292969 33.472656 28.175781 33.472656 Z M 27.96875 34.09375 C 27.914062 34.035156 27.890625 33.960938 27.890625 33.898438 L 28.605469 33.921875 C 28.609375 33.804688 28.566406 33.691406 28.488281 33.609375 Z M 27.890625 33.886719 L 27.734375 36.253906 L 28.445312 36.300781 L 28.605469 33.933594 Z M 22.671875 34.109375 L 22.671875 34.105469 L 22.167969 33.601562 Z M 21.578125 17.859375 C 21.527344 17.910156 21.457031 17.941406 21.378906 17.941406 L 21.378906 17.230469 C 21.265625 17.230469 21.15625 17.273438 21.074219 17.355469 Z M 21.378906 17.941406 L 29.273438 17.941406 L 29.273438 17.230469 L 21.378906 17.230469 Z M 29.273438 17.941406 C 29.191406 17.941406 29.117188 17.910156 29.066406 17.851562 L 29.585938 17.367188 C 29.507812 17.28125 29.390625 17.230469 29.273438 17.230469 Z M 29.066406 17.851562 C 29.007812 17.792969 28.988281 17.71875 28.988281 17.65625 L 29.703125 17.679688 C 29.707031 17.5625 29.664062 17.449219 29.585938 17.367188 Z M 28.988281 17.644531 L 27.890625 33.878906 L 28.605469 33.929688 L 29.703125 17.691406 Z M 27.894531 33.84375 C 27.894531 33.855469 27.894531 33.859375 27.894531 33.863281 C 27.894531 33.867188 27.894531 33.867188 27.894531 33.871094 C 27.894531 33.871094 27.894531 33.871094 27.894531 33.867188 C 27.894531 33.867188 27.894531 33.863281 27.894531 33.863281 C 27.894531 33.855469 27.894531 33.847656 27.898438 33.835938 L 28.597656 33.976562 C 28.601562 33.964844 28.601562 33.953125 28.601562 33.949219 C 28.601562 33.945312 28.601562 33.941406 28.601562 33.941406 C 28.601562 33.9375 28.601562 33.9375 28.601562 33.9375 C 28.601562 33.941406 28.601562 33.941406 28.601562 33.945312 C 28.601562 33.949219 28.601562 33.953125 28.601562 33.964844 Z M 27.890625 33.875 C 27.90625 33.734375 28.023438 33.617188 28.175781 33.617188 L 28.175781 34.332031 C 28.398438 34.332031 28.585938 34.160156 28.605469 33.933594 Z M 28.175781 33.617188 L 22.472656 33.617188 L 22.472656 34.332031 L 28.175781 34.332031 Z M 22.472656 33.617188 C 22.554688 33.617188 22.621094 33.652344 22.664062 33.691406 C 22.710938 33.734375 22.746094 33.796875 22.753906 33.875 L 22.042969 33.9375 C 22.0625 34.160156 22.25 34.332031 22.472656 34.332031 Z M 22.753906 33.90625 C 22.753906 33.90625 22.753906 33.898438 22.753906 33.886719 C 22.753906 33.875 22.753906 33.855469 22.75 33.835938 L 22.046875 33.972656 C 22.042969 33.953125 22.042969 33.933594 22.042969 33.921875 C 22.042969 33.910156 22.042969 33.902344 22.042969 33.90625 Z M 22.753906 33.878906 L 21.65625 17.644531 L 20.945312 17.691406 L 22.042969 33.929688 Z M 21.65625 17.65625 C 21.660156 17.699219 21.648438 17.75 21.621094 17.796875 L 21 17.445312 C 20.960938 17.519531 20.941406 17.597656 20.945312 17.679688 Z M 21.542969 17.894531 C 21.554688 17.886719 21.5625 17.878906 21.5625 17.878906 L 21.074219 17.355469 C 21.074219 17.355469 21.074219 17.355469 21.078125 17.351562 Z M 21.5625 17.875 C 21.566406 17.871094 21.570312 17.867188 21.574219 17.863281 C 21.578125 17.863281 21.582031 17.859375 21.578125 17.859375 L 21.074219 17.355469 Z M 21.578125 17.859375 C 21.578125 17.859375 21.074219 17.355469 21.074219 17.355469 L 21.578125 17.859375 L 21.074219 17.355469 C 21.074219 17.355469 21.578125 17.859375 21.578125 17.859375 L 21.074219 17.355469 Z M 25.566406 27.050781 C 25.566406 27.183594 25.457031 27.292969 25.324219 27.292969 L 25.324219 28.003906 C 25.851562 28.003906 26.277344 27.578125 26.277344 27.050781 Z M 25.324219 27.292969 C 25.191406 27.292969 25.085938 27.183594 25.085938 27.050781 L 24.371094 27.050781 C 24.371094 27.578125 24.796875 28.003906 25.324219 28.003906 Z M 25.085938 27.050781 C 25.085938 26.917969 25.191406 26.8125 25.324219 26.8125 L 25.324219 26.097656 C 24.796875 26.097656 24.371094 26.523438 24.371094 27.050781 Z M 25.324219 26.8125 C 25.457031 26.8125 25.566406 26.917969 25.566406 27.050781 L 26.277344 27.050781 C 26.277344 26.523438 25.851562 26.097656 25.324219 26.097656 Z M 24.929688 26.65625 C 25.144531 26.441406 25.5 26.441406 25.714844 26.65625 L 26.21875 26.152344 C 25.726562 25.660156 24.917969 25.660156 24.425781 26.152344 Z M 25.714844 26.65625 C 25.929688 26.871094 25.929688 27.226562 25.714844 27.441406 L 26.21875 27.945312 C 26.714844 27.453125 26.714844 26.648438 26.21875 26.152344 Z M 25.714844 27.441406 C 25.5 27.65625 25.144531 27.65625 24.929688 27.441406 L 24.425781 27.945312 C 24.917969 28.441406 25.726562 28.441406 26.21875 27.945312 Z M 24.929688 27.441406 C 24.714844 27.226562 24.714844 26.871094 24.929688 26.65625 L 24.425781 26.152344 C 23.933594 26.648438 23.933594 27.453125 24.425781 27.945312 Z M 26.117188 27.84375 C 26.554688 27.40625 26.554688 26.695312 26.117188 26.257812 L 25.613281 26.761719 C 25.769531 26.921875 25.769531 27.179688 25.613281 27.339844 Z M 26.117188 26.257812 C 25.675781 25.816406 24.96875 25.816406 24.527344 26.257812 L 25.035156 26.761719 C 25.195312 26.601562 25.453125 26.601562 25.613281 26.761719 Z M 24.527344 26.257812 C 24.089844 26.695312 24.089844 27.40625 24.527344 27.84375 L 25.035156 27.339844 C 24.875 27.179688 24.875 26.921875 25.035156 26.761719 Z M 24.527344 27.84375 C 24.96875 28.28125 25.675781 28.28125 26.117188 27.84375 L 25.613281 27.339844 C 25.453125 27.5 25.195312 27.5 25.035156 27.339844 Z M 25.507812 28.105469 L 25.511719 28.101562 L 25.027344 27.578125 L 25.023438 27.582031 Z M 25.523438 28.09375 L 25.523438 28.089844 L 25.019531 27.585938 L 25.015625 27.589844 Z M 25.523438 28.089844 C 25.507812 28.105469 25.480469 28.132812 25.433594 28.152344 C 25.390625 28.167969 25.351562 28.171875 25.324219 28.171875 L 25.324219 27.460938 C 25.277344 27.460938 25.21875 27.464844 25.15625 27.492188 C 25.097656 27.519531 25.050781 27.554688 25.019531 27.585938 Z M 25.324219 28.171875 C 25.238281 28.171875 25.167969 28.136719 25.125 28.089844 C 25.078125 28.046875 25.039062 27.976562 25.039062 27.890625 L 25.753906 27.890625 C 25.753906 27.652344 25.558594 27.460938 25.324219 27.460938 Z M 25.039062 27.890625 L 25.039062 33.902344 L 25.753906 33.902344 L 25.753906 27.890625 Z M 25.039062 33.902344 C 25.039062 33.8125 25.078125 33.746094 25.125 33.699219 C 25.167969 33.65625 25.238281 33.617188 25.324219 33.617188 L 25.324219 34.332031 C 25.558594 34.332031 25.753906 34.136719 25.753906 33.902344 Z M 25.324219 33.617188 C 25.410156 33.617188 25.480469 33.65625 25.527344 33.699219 C 25.570312 33.746094 25.609375 33.8125 25.609375 33.902344 L 24.894531 33.902344 C 24.894531 34.136719 25.089844 34.332031 25.324219 34.332031 Z M 25.609375 33.902344 L 25.609375 27.890625 L 24.894531 27.890625 L 24.894531 33.902344 Z M 25.609375 27.890625 C 25.609375 27.957031 25.582031 28.039062 25.511719 28.105469 L 25.023438 27.582031 C 24.941406 27.660156 24.894531 27.769531 24.894531 27.890625 Z M 6.539062 11.789062 L 6.539062 28.054688 L 7.253906 28.054688 L 7.253906 11.789062 Z M 6.898438 28.410156 L 33.5625 28.410156 L 33.5625 27.699219 L 6.898438 27.699219 Z M 33.921875 28.054688 L 33.921875 11.789062 L 33.207031 11.789062 L 33.207031 28.054688 Z M 14.082031 30.714844 L 14.082031 33.082031 L 14.796875 33.082031 L 14.796875 30.714844 Z M 14.4375 33.4375 L 26.023438 33.4375 L 26.023438 32.726562 L 14.4375 32.726562 Z M 26.378906 33.082031 L 26.378906 30.714844 L 25.664062 30.714844 L 25.664062 33.082031 Z M 26.023438 30.359375 L 14.4375 30.359375 L 14.4375 31.074219 L 26.023438 31.074219 Z M 33.5625 27.84375 L 6.898438 27.84375 L 6.898438 28.558594 L 33.5625 28.558594 Z M 6.539062 28.203125 L 6.539062 29.386719 L 7.253906 29.386719 L 7.253906 28.203125 Z M 33.921875 29.386719 L 33.921875 28.203125 L 33.207031 28.203125 L 33.207031 29.386719 Z M 30.148438 8.148438 L 25.625 0.992188 L 25.023438 1.375 L 29.546875 8.527344 Z M 25.023438 0.992188 L 20.496094 8.148438 L 21.097656 8.527344 L 25.625 1.375 Z M 22.875 15.375 L 27.769531 15.375 L 27.769531 14.660156 L 22.875 14.660156 Z M 29.457031 17.417969 L 28.109375 14.992188 L 27.484375 15.335938 L 28.832031 17.761719 Z M 27.796875 14.808594 L 22.847656 14.808594 L 22.847656 15.519531 L 27.796875 15.519531 Z M 22.539062 14.992188 L 21.1875 17.417969 L 21.8125 17.761719 L 23.160156 15.335938 Z M 21.5 17.945312 L 29.144531 17.945312 L 29.144531 17.234375 L 21.5 17.234375 Z M 28.300781 36.265625 L 28.453125 34 L 27.742188 33.949219 L 27.585938 36.214844 Z M 28.097656 33.617188 L 22.554688 33.617188 L 22.554688 34.332031 L 28.097656 34.332031 Z M 22.199219 34 L 22.351562 36.265625 L 23.0625 36.214844 L 22.910156 33.949219 Z M 22.453125 36.492188 L 25.074219 39.117188 L 25.578125 38.613281 L 22.960938 35.988281 Z M 25.578125 39.117188 L 28.195312 36.492188 L 27.691406 35.988281 L 25.074219 38.613281 Z M 28.464844 33.851562 L 29.550781 17.757812 L 28.839844 17.707031 L 27.753906 33.804688 Z M 29.195312 17.375 L 21.457031 17.375 L 21.457031 18.089844 L 29.195312 18.089844 Z M 21.101562 17.757812 L 22.1875 33.851562 L 22.902344 33.804688 L 21.8125 17.707031 Z M 22.542969 34.183594 L 28.109375 34.183594 L 28.109375 33.472656 L 22.542969 33.472656 Z M 22.542969 34.183594 " fill-opacity="1" fill-rule="nonzero"/></svg>