<svg xmlns="http://www.w3.org/2000/svg" xmlns:xlink="http://www.w3.org/1999/xlink" width="54" zoomAndPan="magnify" viewBox="0 0 40.5 40.5" height="54" preserveAspectRatio="xMidYMid meet" version="1.0"><path fill="#508167" d="M 18.136719 20.726562 L 20.726562 18.136719 C 20.777344 18.085938 20.816406 18.027344 20.84375 17.960938 C 20.871094 17.894531 20.886719 17.824219 20.886719 17.75 C 20.886719 17.679688 20.871094 17.609375 20.84375 17.542969 C 20.816406 17.476562 20.777344 17.414062 20.726562 17.363281 L 19.347656 15.984375 C 19.628906 15.464844 19.855469 14.917969 20.023438 14.351562 L 21.972656 14.351562 C 22.117188 14.351562 22.257812 14.292969 22.359375 14.191406 C 22.460938 14.085938 22.519531 13.949219 22.519531 13.804688 L 22.519531 10.140625 C 22.519531 9.996094 22.460938 9.859375 22.359375 9.753906 C 22.257812 9.652344 22.117188 9.59375 21.972656 9.59375 L 20.027344 9.59375 C 19.863281 9.027344 19.632812 8.476562 19.347656 7.957031 L 20.726562 6.582031 C 20.777344 6.53125 20.816406 6.46875 20.84375 6.402344 C 20.871094 6.339844 20.886719 6.265625 20.886719 6.195312 C 20.886719 6.125 20.871094 6.050781 20.84375 5.984375 C 20.816406 5.917969 20.777344 5.859375 20.726562 5.808594 L 18.136719 3.21875 C 18.085938 3.167969 18.027344 3.128906 17.960938 3.101562 C 17.894531 3.074219 17.820312 3.058594 17.75 3.058594 C 17.679688 3.058594 17.605469 3.074219 17.539062 3.101562 C 17.476562 3.128906 17.414062 3.167969 17.363281 3.21875 L 15.988281 4.597656 C 15.46875 4.3125 14.917969 4.082031 14.351562 3.917969 L 14.351562 1.972656 C 14.351562 1.898438 14.335938 1.828125 14.308594 1.761719 C 14.28125 1.695312 14.242188 1.636719 14.191406 1.585938 C 14.140625 1.535156 14.078125 1.492188 14.011719 1.464844 C 13.945312 1.4375 13.875 1.425781 13.804688 1.425781 L 10.140625 1.425781 C 10.070312 1.425781 10 1.4375 9.933594 1.464844 C 9.867188 1.492188 9.804688 1.535156 9.753906 1.585938 C 9.703125 1.636719 9.664062 1.695312 9.636719 1.761719 C 9.609375 1.828125 9.59375 1.898438 9.59375 1.972656 L 9.59375 3.921875 C 9.027344 4.085938 8.480469 4.316406 7.960938 4.597656 L 6.582031 3.21875 C 6.53125 3.167969 6.46875 3.128906 6.402344 3.101562 C 6.335938 3.074219 6.265625 3.058594 6.195312 3.058594 C 6.121094 3.058594 6.050781 3.074219 5.984375 3.101562 C 5.917969 3.128906 5.859375 3.167969 5.808594 3.21875 L 3.21875 5.808594 C 3.167969 5.859375 3.128906 5.917969 3.101562 5.984375 C 3.074219 6.050781 3.058594 6.125 3.058594 6.195312 C 3.058594 6.265625 3.074219 6.339844 3.101562 6.402344 C 3.128906 6.46875 3.167969 6.53125 3.21875 6.582031 L 4.597656 7.960938 C 4.3125 8.480469 4.085938 9.027344 3.917969 9.59375 L 1.972656 9.59375 C 1.898438 9.59375 1.828125 9.609375 1.761719 9.636719 C 1.695312 9.664062 1.636719 9.703125 1.585938 9.753906 C 1.535156 9.804688 1.492188 9.867188 1.464844 9.933594 C 1.4375 10 1.425781 10.070312 1.425781 10.140625 L 1.425781 13.804688 C 1.425781 13.875 1.4375 13.945312 1.464844 14.011719 C 1.492188 14.078125 1.535156 14.140625 1.585938 14.191406 C 1.636719 14.242188 1.695312 14.28125 1.761719 14.308594 C 1.828125 14.335938 1.898438 14.351562 1.972656 14.351562 L 3.914062 14.351562 C 4.082031 14.917969 4.3125 15.46875 4.597656 15.988281 L 3.21875 17.363281 C 3.167969 17.414062 3.128906 17.476562 3.101562 17.542969 C 3.074219 17.609375 3.058594 17.679688 3.058594 17.75 C 3.058594 17.824219 3.074219 17.894531 3.101562 17.960938 C 3.128906 18.027344 3.167969 18.085938 3.21875 18.136719 L 5.808594 20.726562 C 5.910156 20.828125 6.050781 20.886719 6.195312 20.886719 C 6.339844 20.886719 6.476562 20.828125 6.582031 20.726562 L 7.957031 19.347656 C 8.476562 19.632812 9.027344 19.863281 9.59375 20.03125 L 9.59375 21.976562 C 9.59375 22.121094 9.652344 22.257812 9.753906 22.363281 C 9.859375 22.464844 9.996094 22.523438 10.140625 22.523438 L 13.804688 22.523438 C 13.949219 22.523438 14.085938 22.464844 14.191406 22.363281 C 14.292969 22.257812 14.351562 22.121094 14.351562 21.976562 L 14.351562 20.027344 C 14.917969 19.859375 15.464844 19.632812 15.984375 19.347656 L 17.363281 20.726562 C 17.464844 20.828125 17.605469 20.886719 17.75 20.886719 C 17.894531 20.886719 18.035156 20.828125 18.136719 20.726562 Z M 16.460938 18.277344 C 16.375 18.191406 16.261719 18.132812 16.136719 18.121094 C 16.015625 18.105469 15.894531 18.132812 15.789062 18.199219 C 15.136719 18.597656 14.421875 18.894531 13.675781 19.074219 C 13.554688 19.101562 13.449219 19.167969 13.375 19.265625 C 13.296875 19.363281 13.257812 19.480469 13.253906 19.605469 L 13.253906 21.425781 L 10.6875 21.425781 L 10.6875 19.609375 C 10.6875 19.484375 10.648438 19.367188 10.570312 19.269531 C 10.496094 19.175781 10.386719 19.105469 10.269531 19.078125 C 9.523438 18.898438 8.808594 18.601562 8.15625 18.199219 C 8.050781 18.132812 7.929688 18.105469 7.804688 18.121094 C 7.683594 18.136719 7.570312 18.191406 7.484375 18.277344 L 6.195312 19.566406 L 4.378906 17.75 L 5.667969 16.460938 C 5.753906 16.375 5.808594 16.261719 5.824219 16.140625 C 5.839844 16.015625 5.8125 15.894531 5.746094 15.789062 C 5.34375 15.136719 5.046875 14.421875 4.867188 13.675781 C 4.839844 13.554688 4.773438 13.449219 4.675781 13.375 C 4.578125 13.296875 4.460938 13.253906 4.335938 13.253906 L 2.519531 13.253906 L 2.519531 10.6875 L 4.339844 10.6875 C 4.460938 10.6875 4.582031 10.648438 4.679688 10.570312 C 4.773438 10.496094 4.84375 10.390625 4.871094 10.269531 C 5.050781 9.523438 5.34375 8.808594 5.746094 8.15625 C 5.8125 8.050781 5.835938 7.929688 5.824219 7.808594 C 5.808594 7.683594 5.753906 7.570312 5.667969 7.484375 L 4.378906 6.195312 L 6.195312 4.378906 L 7.484375 5.667969 C 7.570312 5.757812 7.683594 5.8125 7.804688 5.824219 C 7.929688 5.839844 8.050781 5.8125 8.15625 5.75 C 8.808594 5.347656 9.523438 5.050781 10.269531 4.875 C 10.386719 4.84375 10.496094 4.777344 10.570312 4.679688 C 10.648438 4.582031 10.6875 4.464844 10.6875 4.34375 L 10.6875 2.519531 L 13.253906 2.519531 L 13.253906 4.335938 C 13.257812 4.460938 13.296875 4.578125 13.375 4.675781 C 13.449219 4.773438 13.558594 4.839844 13.675781 4.867188 C 14.421875 5.046875 15.136719 5.34375 15.789062 5.746094 C 15.894531 5.8125 16.015625 5.839844 16.140625 5.824219 C 16.261719 5.808594 16.375 5.753906 16.460938 5.667969 L 17.75 4.378906 L 19.566406 6.195312 L 18.277344 7.484375 C 18.191406 7.570312 18.136719 7.683594 18.121094 7.804688 C 18.105469 7.929688 18.132812 8.050781 18.199219 8.15625 C 18.601562 8.808594 18.898438 9.523438 19.078125 10.269531 C 19.105469 10.390625 19.171875 10.496094 19.269531 10.570312 C 19.367188 10.648438 19.484375 10.6875 19.609375 10.691406 L 21.425781 10.691406 L 21.425781 13.257812 L 19.605469 13.257812 C 19.480469 13.257812 19.363281 13.296875 19.265625 13.375 C 19.167969 13.449219 19.101562 13.558594 19.074219 13.675781 C 18.894531 14.421875 18.601562 15.136719 18.199219 15.789062 C 18.132812 15.894531 18.105469 16.015625 18.121094 16.140625 C 18.136719 16.261719 18.191406 16.375 18.277344 16.460938 L 19.566406 17.75 L 17.75 19.566406 Z M 16.460938 18.277344 " fill-opacity="1" fill-rule="nonzero"/><path fill="#508167" d="M 11.972656 7.238281 C 11.035156 7.238281 10.121094 7.515625 9.339844 8.035156 C 8.5625 8.554688 7.957031 9.296875 7.597656 10.160156 C 7.238281 11.027344 7.144531 11.976562 7.328125 12.898438 C 7.511719 13.816406 7.960938 14.660156 8.625 15.320312 C 9.285156 15.984375 10.128906 16.433594 11.046875 16.617188 C 11.96875 16.800781 12.917969 16.707031 13.785156 16.347656 C 14.648438 15.988281 15.390625 15.382812 15.910156 14.601562 C 16.429688 13.824219 16.707031 12.910156 16.707031 11.972656 C 16.707031 10.71875 16.207031 9.515625 15.320312 8.625 C 14.429688 7.738281 13.226562 7.238281 11.972656 7.238281 Z M 11.972656 15.613281 C 11.253906 15.613281 10.546875 15.402344 9.949219 15 C 9.351562 14.601562 8.882812 14.03125 8.609375 13.367188 C 8.332031 12.703125 8.261719 11.96875 8.402344 11.261719 C 8.542969 10.558594 8.886719 9.910156 9.398438 9.398438 C 9.90625 8.890625 10.554688 8.542969 11.261719 8.402344 C 11.96875 8.261719 12.699219 8.335938 13.363281 8.609375 C 14.03125 8.886719 14.597656 9.351562 15 9.949219 C 15.398438 10.550781 15.613281 11.253906 15.613281 11.972656 C 15.613281 12.9375 15.226562 13.863281 14.546875 14.546875 C 13.863281 15.230469 12.9375 15.613281 11.972656 15.613281 Z M 11.972656 15.613281 " fill-opacity="1" fill-rule="nonzero"/><path fill="#508167" d="M 38.035156 25.65625 L 36.089844 25.65625 C 35.921875 25.085938 35.695312 24.539062 35.410156 24.019531 L 36.785156 22.640625 C 36.835938 22.589844 36.878906 22.53125 36.90625 22.464844 C 36.933594 22.398438 36.945312 22.328125 36.945312 22.253906 C 36.945312 22.183594 36.933594 22.113281 36.90625 22.046875 C 36.878906 21.980469 36.835938 21.917969 36.785156 21.867188 L 34.199219 19.28125 C 34.148438 19.230469 34.085938 19.191406 34.019531 19.160156 C 33.953125 19.132812 33.882812 19.121094 33.8125 19.121094 C 33.738281 19.121094 33.667969 19.132812 33.601562 19.160156 C 33.535156 19.191406 33.476562 19.230469 33.425781 19.28125 L 32.046875 20.65625 C 31.527344 20.371094 30.980469 20.144531 30.410156 19.976562 L 30.410156 18.03125 C 30.410156 17.886719 30.351562 17.746094 30.25 17.644531 C 30.148438 17.542969 30.007812 17.484375 29.863281 17.484375 L 26.203125 17.484375 C 26.058594 17.484375 25.917969 17.542969 25.816406 17.644531 C 25.714844 17.746094 25.65625 17.886719 25.65625 18.03125 L 25.65625 19.980469 C 25.089844 20.148438 24.539062 20.375 24.019531 20.660156 L 22.640625 19.28125 C 22.589844 19.230469 22.53125 19.191406 22.464844 19.160156 C 22.398438 19.132812 22.328125 19.121094 22.253906 19.121094 C 22.183594 19.121094 22.113281 19.132812 22.046875 19.160156 C 21.980469 19.191406 21.917969 19.230469 21.867188 19.28125 L 19.28125 21.867188 C 19.175781 21.972656 19.121094 22.109375 19.121094 22.253906 C 19.121094 22.402344 19.175781 22.539062 19.28125 22.640625 L 20.660156 24.019531 C 20.375 24.539062 20.148438 25.089844 19.980469 25.65625 L 18.03125 25.65625 C 17.886719 25.65625 17.746094 25.714844 17.644531 25.816406 C 17.542969 25.917969 17.484375 26.058594 17.484375 26.203125 L 17.484375 29.863281 C 17.484375 30.007812 17.542969 30.148438 17.644531 30.25 C 17.746094 30.351562 17.886719 30.410156 18.03125 30.410156 L 19.976562 30.410156 C 20.144531 30.980469 20.371094 31.527344 20.65625 32.046875 L 19.28125 33.425781 C 19.175781 33.527344 19.121094 33.667969 19.121094 33.8125 C 19.121094 33.957031 19.175781 34.09375 19.28125 34.199219 L 21.867188 36.785156 C 21.917969 36.835938 21.980469 36.878906 22.046875 36.90625 C 22.113281 36.933594 22.183594 36.949219 22.253906 36.949219 C 22.328125 36.949219 22.398438 36.933594 22.464844 36.90625 C 22.53125 36.878906 22.589844 36.835938 22.640625 36.785156 L 24.019531 35.410156 C 24.539062 35.695312 25.085938 35.925781 25.65625 36.09375 L 25.65625 38.039062 C 25.65625 38.109375 25.667969 38.179688 25.695312 38.246094 C 25.726562 38.3125 25.765625 38.375 25.816406 38.425781 C 25.867188 38.476562 25.925781 38.515625 25.992188 38.542969 C 26.058594 38.570312 26.128906 38.585938 26.203125 38.585938 L 29.863281 38.585938 C 29.933594 38.585938 30.007812 38.570312 30.074219 38.542969 C 30.140625 38.515625 30.199219 38.476562 30.25 38.425781 C 30.300781 38.375 30.339844 38.3125 30.367188 38.246094 C 30.394531 38.179688 30.410156 38.109375 30.410156 38.039062 L 30.410156 36.089844 C 30.976562 35.921875 31.527344 35.695312 32.046875 35.410156 L 33.425781 36.789062 C 33.476562 36.839844 33.535156 36.878906 33.601562 36.90625 C 33.667969 36.933594 33.738281 36.949219 33.8125 36.949219 C 33.882812 36.949219 33.953125 36.933594 34.019531 36.90625 C 34.085938 36.878906 34.148438 36.839844 34.199219 36.789062 L 36.785156 34.199219 C 36.835938 34.148438 36.878906 34.089844 36.90625 34.023438 C 36.933594 33.957031 36.945312 33.886719 36.945312 33.8125 C 36.945312 33.742188 36.933594 33.671875 36.90625 33.605469 C 36.878906 33.539062 36.835938 33.476562 36.785156 33.425781 L 35.40625 32.046875 C 35.691406 31.527344 35.917969 30.980469 36.085938 30.414062 L 38.035156 30.414062 C 38.105469 30.414062 38.175781 30.398438 38.242188 30.371094 C 38.308594 30.34375 38.371094 30.304688 38.421875 30.253906 C 38.472656 30.203125 38.511719 30.140625 38.539062 30.074219 C 38.566406 30.007812 38.582031 29.9375 38.582031 29.867188 L 38.582031 26.203125 C 38.582031 26.132812 38.566406 26.058594 38.539062 25.992188 C 38.511719 25.925781 38.472656 25.867188 38.421875 25.816406 C 38.371094 25.765625 38.308594 25.726562 38.242188 25.699219 C 38.175781 25.671875 38.105469 25.65625 38.035156 25.65625 Z M 37.488281 29.316406 L 35.664062 29.316406 C 35.542969 29.316406 35.421875 29.359375 35.328125 29.433594 C 35.230469 29.511719 35.164062 29.617188 35.132812 29.738281 C 34.957031 30.484375 34.660156 31.195312 34.257812 31.847656 C 34.195312 31.953125 34.167969 32.078125 34.183594 32.199219 C 34.195312 32.320312 34.25 32.4375 34.339844 32.523438 L 35.628906 33.8125 L 33.8125 35.625 L 32.523438 34.335938 C 32.4375 34.25 32.324219 34.195312 32.199219 34.179688 C 32.078125 34.167969 31.957031 34.195312 31.851562 34.257812 C 31.195312 34.660156 30.484375 34.957031 29.738281 35.132812 C 29.617188 35.160156 29.511719 35.230469 29.4375 35.328125 C 29.359375 35.421875 29.316406 35.542969 29.316406 35.664062 L 29.316406 37.488281 L 26.75 37.488281 L 26.75 35.667969 C 26.75 35.546875 26.707031 35.425781 26.632812 35.328125 C 26.554688 35.234375 26.449219 35.164062 26.328125 35.136719 C 25.582031 34.957031 24.871094 34.664062 24.214844 34.257812 C 24.113281 34.195312 23.988281 34.167969 23.867188 34.179688 C 23.742188 34.195312 23.628906 34.25 23.542969 34.335938 L 22.253906 35.625 L 20.441406 33.8125 L 21.726562 32.523438 C 21.816406 32.4375 21.871094 32.324219 21.882812 32.199219 C 21.898438 32.078125 21.871094 31.953125 21.808594 31.847656 C 21.402344 31.195312 21.105469 30.484375 20.929688 29.738281 C 20.902344 29.617188 20.832031 29.511719 20.738281 29.433594 C 20.640625 29.359375 20.519531 29.316406 20.398438 29.316406 L 18.578125 29.316406 L 18.578125 26.75 L 20.398438 26.75 C 20.523438 26.75 20.640625 26.707031 20.738281 26.632812 C 20.835938 26.554688 20.902344 26.449219 20.929688 26.332031 C 21.109375 25.585938 21.40625 24.871094 21.808594 24.21875 C 21.871094 24.113281 21.898438 23.988281 21.882812 23.867188 C 21.871094 23.746094 21.8125 23.632812 21.726562 23.542969 L 20.441406 22.253906 L 22.253906 20.441406 L 23.542969 21.730469 C 23.632812 21.816406 23.746094 21.871094 23.867188 21.886719 C 23.988281 21.902344 24.113281 21.875 24.21875 21.808594 C 24.871094 21.40625 25.582031 21.113281 26.328125 20.933594 C 26.449219 20.90625 26.554688 20.835938 26.632812 20.742188 C 26.707031 20.644531 26.75 20.527344 26.75 20.402344 L 26.75 18.582031 L 29.316406 18.582031 L 29.316406 20.398438 C 29.316406 20.523438 29.359375 20.640625 29.433594 20.738281 C 29.511719 20.835938 29.617188 20.902344 29.738281 20.929688 C 30.484375 21.109375 31.195312 21.40625 31.847656 21.808594 C 31.953125 21.875 32.078125 21.902344 32.199219 21.886719 C 32.324219 21.871094 32.4375 21.816406 32.523438 21.730469 L 33.8125 20.441406 L 35.625 22.253906 L 34.339844 23.542969 C 34.25 23.632812 34.195312 23.746094 34.179688 23.867188 C 34.167969 23.988281 34.195312 24.113281 34.257812 24.21875 C 34.664062 24.871094 34.957031 25.582031 35.136719 26.328125 C 35.164062 26.449219 35.234375 26.554688 35.328125 26.632812 C 35.425781 26.707031 35.542969 26.75 35.667969 26.75 L 37.488281 26.75 Z M 37.488281 29.316406 " fill-opacity="1" fill-rule="nonzero"/><path fill="#508167" d="M 28.035156 23.296875 C 27.097656 23.296875 26.179688 23.578125 25.402344 24.097656 C 24.625 24.617188 24.015625 25.355469 23.660156 26.222656 C 23.300781 27.085938 23.207031 28.039062 23.390625 28.957031 C 23.570312 29.875 24.023438 30.71875 24.683594 31.382812 C 25.347656 32.042969 26.191406 32.496094 27.109375 32.675781 C 28.027344 32.859375 28.980469 32.765625 29.84375 32.40625 C 30.710938 32.050781 31.449219 31.441406 31.96875 30.664062 C 32.492188 29.886719 32.769531 28.96875 32.769531 28.035156 C 32.765625 26.777344 32.265625 25.574219 31.378906 24.6875 C 30.492188 23.800781 29.289062 23.300781 28.035156 23.296875 Z M 28.035156 31.675781 C 27.3125 31.675781 26.609375 31.460938 26.011719 31.0625 C 25.410156 30.660156 24.945312 30.09375 24.667969 29.425781 C 24.394531 28.761719 24.320312 28.03125 24.460938 27.324219 C 24.601562 26.617188 24.949219 25.96875 25.457031 25.460938 C 25.96875 24.949219 26.617188 24.605469 27.324219 24.464844 C 28.027344 24.324219 28.761719 24.394531 29.425781 24.671875 C 30.09375 24.945312 30.660156 25.414062 31.058594 26.011719 C 31.460938 26.609375 31.675781 27.3125 31.675781 28.035156 C 31.671875 29 31.289062 29.925781 30.605469 30.605469 C 29.921875 31.289062 29 31.671875 28.035156 31.675781 Z M 28.035156 31.675781 " fill-opacity="1" fill-rule="nonzero"/><path fill="#508167" d="M 23.976562 6.519531 C 27.152344 7.453125 29.898438 9.484375 31.722656 12.25 C 31.285156 12.644531 31.007812 13.1875 30.945312 13.777344 C 30.882812 14.363281 31.039062 14.953125 31.378906 15.433594 C 31.722656 15.914062 32.230469 16.25 32.808594 16.378906 C 33.382812 16.511719 33.988281 16.425781 34.503906 16.136719 C 35.019531 15.851562 35.414062 15.386719 35.609375 14.828125 C 35.804688 14.269531 35.789062 13.660156 35.5625 13.117188 C 35.339844 12.570312 34.921875 12.125 34.390625 11.867188 C 33.859375 11.609375 33.25 11.554688 32.683594 11.71875 C 30.714844 8.703125 27.738281 6.488281 24.285156 5.46875 C 24.214844 5.449219 24.140625 5.441406 24.070312 5.445312 C 23.996094 5.453125 23.925781 5.472656 23.863281 5.507812 C 23.796875 5.542969 23.742188 5.589844 23.695312 5.644531 C 23.648438 5.703125 23.617188 5.765625 23.59375 5.835938 C 23.574219 5.90625 23.570312 5.980469 23.578125 6.050781 C 23.585938 6.125 23.605469 6.195312 23.640625 6.257812 C 23.679688 6.320312 23.726562 6.378906 23.78125 6.421875 C 23.839844 6.46875 23.90625 6.5 23.976562 6.519531 Z M 34.628906 14.027344 C 34.628906 14.285156 34.554688 14.535156 34.410156 14.75 C 34.265625 14.964844 34.0625 15.132812 33.824219 15.230469 C 33.585938 15.328125 33.324219 15.355469 33.070312 15.304688 C 32.820312 15.253906 32.585938 15.128906 32.402344 14.949219 C 32.222656 14.765625 32.097656 14.53125 32.046875 14.28125 C 31.996094 14.027344 32.023438 13.765625 32.121094 13.527344 C 32.21875 13.289062 32.386719 13.085938 32.601562 12.941406 C 32.816406 12.796875 33.066406 12.722656 33.324219 12.722656 C 33.671875 12.722656 34.003906 12.859375 34.246094 13.105469 C 34.492188 13.347656 34.628906 13.679688 34.628906 14.027344 Z M 34.628906 14.027344 " fill-opacity="1" fill-rule="nonzero"/><path fill="#508167" d="M 16.03125 33.488281 C 12.851562 32.550781 10.109375 30.523438 8.285156 27.757812 C 8.722656 27.363281 9 26.816406 9.0625 26.230469 C 9.125 25.644531 8.96875 25.054688 8.625 24.574219 C 8.28125 24.09375 7.773438 23.757812 7.199219 23.625 C 6.625 23.496094 6.019531 23.582031 5.503906 23.867188 C 4.984375 24.15625 4.59375 24.621094 4.398438 25.179688 C 4.203125 25.734375 4.21875 26.34375 4.445312 26.890625 C 4.667969 27.4375 5.085938 27.878906 5.617188 28.140625 C 6.148438 28.398438 6.757812 28.449219 7.324219 28.289062 C 9.289062 31.304688 12.269531 33.519531 15.722656 34.535156 C 15.769531 34.550781 15.824219 34.558594 15.875 34.558594 C 16.007812 34.558594 16.132812 34.511719 16.234375 34.425781 C 16.332031 34.339844 16.398438 34.21875 16.417969 34.089844 C 16.433594 33.960938 16.40625 33.828125 16.335938 33.71875 C 16.265625 33.605469 16.15625 33.523438 16.03125 33.488281 Z M 5.375 25.980469 C 5.375 25.722656 5.453125 25.472656 5.597656 25.257812 C 5.738281 25.042969 5.941406 24.875 6.179688 24.777344 C 6.417969 24.679688 6.679688 24.652344 6.933594 24.703125 C 7.1875 24.753906 7.417969 24.878906 7.601562 25.058594 C 7.785156 25.242188 7.910156 25.476562 7.957031 25.726562 C 8.007812 25.980469 7.984375 26.242188 7.882812 26.480469 C 7.785156 26.71875 7.617188 26.921875 7.402344 27.066406 C 7.191406 27.210938 6.9375 27.285156 6.679688 27.285156 C 6.332031 27.285156 6.003906 27.148438 5.757812 26.902344 C 5.511719 26.660156 5.375 26.328125 5.375 25.980469 Z M 5.375 25.980469 " fill-opacity="1" fill-rule="nonzero"/></svg>